SplineFontDB: 3.0
FontName: Merriweather-Italic
FullName: Merriweather Italic
FamilyName: Merriweather
Weight: Book
Copyright: Copyright (c) 2013, Sorkin Type Co (www.sorkintype.com) with Reserved Font Name 'Merriweather'
Version: 1.001; ttfautohint (v0.93.8-669f) -l 7 -r 28 -G 0 -x 13 -w "" -W -c
ItalicAngle: -7
UnderlinePosition: -120
UnderlineWidth: 147
Ascent: 1638
Descent: 410
sfntRevision: 0x00010042
LayerCount: 2
Layer: 0 1 "Back"  1
Layer: 1 1 "Fore"  0
XUID: [1021 631 1661839179 4574650]
FSType: 0
OS2Version: 3
OS2_WeightWidthSlopeOnly: 0
OS2_UseTypoMetrics: 1
CreationTime: 1361943000
ModificationTime: 1361926040
PfmFamily: 17
TTFWeight: 400
TTFWidth: 5
LineGap: 0
VLineGap: 0
Panose: 2 0 5 3 5 0 0 9 0 4
OS2TypoAscent: 2014
OS2TypoAOffset: 0
OS2TypoDescent: -560
OS2TypoDOffset: 0
OS2TypoLinegap: 0
OS2WinAscent: 2014
OS2WinAOffset: 0
OS2WinDescent: 560
OS2WinDOffset: 0
HheadAscent: 2014
HheadAOffset: 0
HheadDescent: -560
HheadDOffset: 0
OS2SubXSize: 1331
OS2SubYSize: 1229
OS2SubXOff: 0
OS2SubYOff: 154
OS2SupXSize: 1331
OS2SupYSize: 1229
OS2SupXOff: 0
OS2SupYOff: 717
OS2StrikeYSize: 102
OS2StrikeYPos: 512
OS2FamilyClass: 512
OS2Vendor: 'STC '
OS2CodePages: 20000093.00000000
OS2UnicodeRanges: a00000af.5000204a.00000000.00000000
Lookup: 1 0 0 "'aalt' Access All Alternates in Latin lookup 0"  {"'aalt' Access All Alternates in Latin lookup 0 subtable"  } ['aalt' ('DFLT' <'dflt' > 'latn' <'AZE ' 'CRT ' 'MOL ' 'ROM ' 'TRK ' 'dflt' > ) ]
Lookup: 3 0 0 "'aalt' Access All Alternates in Latin lookup 1"  {"'aalt' Access All Alternates in Latin lookup 1 subtable"  } ['aalt' ('DFLT' <'dflt' > 'latn' <'AZE ' 'CRT ' 'MOL ' 'ROM ' 'TRK ' 'dflt' > ) ]
Lookup: 1 0 0 "'locl' Localized Forms lookup 2"  {"'locl' Localized Forms lookup 2 subtable"  } ['locl' ('DFLT' <'AZE ' > ) ]
Lookup: 1 0 0 "'locl' Localized Forms lookup 3"  {"'locl' Localized Forms lookup 3 subtable"  } ['locl' ('DFLT' <'TRK ' > ) ]

StartChar: .notdef
Encoding: 65536 -1 0
Width: 1872
Flags: W
LayerCount: 2
Fore
SplineSet
228 1416 m 1,0,-1
 1644 1416 l 1,1,-1
 1644 0 l 1,2,-1
 228 0 l 1,3,-1
 228 1416 l 1,0,-1
586 219 m 1,4,-1
 933 587 l 1,5,-1
 1295 219 l 1,6,-1
 1417 341 l 1,7,-1
 1054 709 l 1,8,-1
 1417 1067 l 1,9,-1
 1289 1191 l 1,10,-1
 937 825 l 1,11,-1
 580 1193 l 1,12,-1
 457 1068 l 1,13,-1
 816 705 l 1,14,-1
 458 363 l 1,15,-1
 586 219 l 1,4,-1
EndSplineSet
EndChar

StartChar: exclam
Encoding: 33 33 26
Width: 686
GlyphClass: 2
Flags: W
LayerCount: 2
Fore
SplineSet
391 1778 m 1,0,-1
 636 1778 l 1,1,-1
 393 488 l 1,2,-1
 255 488 l 1,3,-1
 391 1778 l 1,0,-1
129 96 m 0,4,5
 129 126 129 126 149 157 c 128,-1,6
 169 188 169 188 194 208 c 1,7,8
 250 250 250 250 296 250 c 128,-1,9
 342 250 342 250 366 240 c 0,10,11
 427 215 427 215 427 143 c 0,12,13
 427 67 427 67 362 18 c 0,14,15
 282 -43 282 -43 200 -14 c 0,16,17
 129 12 129 12 129 96 c 0,4,5
EndSplineSet
EndChar

StartChar: numbersign
Encoding: 35 35 28
Width: 1405
GlyphClass: 2
Flags: W
LayerCount: 2
Fore
SplineSet
325 365 m 1,0,-1
 111 365 l 1,1,-1
 119 493 l 1,2,-1
 345 493 l 1,3,-1
 409 898 l 1,4,-1
 189 898 l 1,5,-1
 197 1025 l 1,6,-1
 429 1025 l 1,7,-1
 482 1357 l 1,8,-1
 647 1357 l 1,9,-1
 596 1025 l 1,10,-1
 907 1025 l 1,11,-1
 963 1357 l 1,12,-1
 1128 1357 l 1,13,-1
 1074 1025 l 1,14,-1
 1306 1025 l 1,15,-1
 1298 898 l 1,16,-1
 1054 898 l 1,17,-1
 989 493 l 1,18,-1
 1216 493 l 1,19,-1
 1208 365 l 1,20,-1
 969 365 l 1,21,-1
 912 0 l 1,22,-1
 752 0 l 1,23,-1
 803 365 l 1,24,-1
 491 365 l 1,25,-1
 429 0 l 1,26,-1
 267 0 l 1,27,-1
 325 365 l 1,0,-1
823 493 m 1,28,-1
 887 898 l 1,29,-1
 576 898 l 1,30,-1
 511 493 l 1,31,-1
 823 493 l 1,28,-1
EndSplineSet
EndChar

StartChar: dollar
Encoding: 36 36 29
Width: 1205
GlyphClass: 2
Flags: W
LayerCount: 2
Fore
SplineSet
853 1544 m 1,0,1
 1025 1527 1025 1527 1115 1465 c 1,2,-1
 1068 1220 l 1,3,-1
 952 1220 l 1,4,-1
 916 1384 l 1,5,6
 864 1423 864 1423 761 1438 c 0,7,8
 730 1443 730 1443 696.5 1443 c 128,-1,9
 663 1443 663 1443 618 1430 c 128,-1,10
 573 1417 573 1417 534 1388 c 0,11,12
 434 1312 434 1312 434 1173 c 0,13,14
 434 1031 434 1031 602 916 c 0,15,16
 653 882 653 882 710.5 846.5 c 128,-1,17
 768 811 768 811 828.5 770.5 c 128,-1,18
 889 730 889 730 937 680 c 0,19,20
 1044 570 1044 570 1044 429 c 0,21,22
 1044 242 1044 242 913 120 c 0,23,24
 791 6 791 6 598 -17 c 1,25,-1
 563 -230 l 1,26,-1
 383 -230 l 1,27,-1
 417 -19 l 1,28,29
 257 -4 257 -4 153 40 c 0,30,31
 124 53 124 53 109 65 c 1,32,-1
 154 343 l 1,33,-1
 280 343 l 1,34,-1
 302 159 l 1,35,36
 394 82 394 82 550 82 c 0,37,38
 661 82 661 82 747 146 c 1,39,40
 858 227 858 227 858 364 c 0,41,42
 858 505 858 505 696 614 c 0,43,44
 647 648 647 648 590 684 c 128,-1,45
 533 720 533 720 472 761.5 c 128,-1,46
 411 803 411 803 362 854 c 0,47,48
 253 969 253 969 253 1121 c 0,49,50
 253 1296 253 1296 376 1414 c 0,51,52
 493 1525 493 1525 673 1546 c 1,53,-1
 703 1729 l 1,54,-1
 884 1729 l 1,55,-1
 853 1544 l 1,0,1
EndSplineSet
EndChar

StartChar: percent
Encoding: 37 37 30
Width: 1911
GlyphClass: 3
Flags: W
LayerCount: 2
Fore
SplineSet
1342 1530 m 1,0,-1
 1501 1530 l 1,1,-1
 554 0 l 1,2,-1
 395 0 l 1,3,-1
 1342 1530 l 1,0,-1
648.5 783 m 128,-1,5
 572 745 572 745 490.5 745 c 128,-1,6
 409 745 409 745 357 768.5 c 128,-1,7
 305 792 305 792 270 834 c 0,8,9
 200 918 200 918 200 1055 c 0,10,11
 200 1219 200 1219 317 1347 c 0,12,13
 439 1480 439 1480 613 1480 c 0,14,15
 890 1480 890 1480 890 1185 c 0,16,17
 890 1012 890 1012 778 883 c 0,18,4
 725 821 725 821 648.5 783 c 128,-1,5
710 1177 m 0,19,20
 710 1378 710 1378 585 1378 c 0,21,22
 482 1378 482 1378 421 1264 c 0,23,24
 371 1171 371 1171 371 1057 c 0,25,26
 371 907 371 907 446 863 c 0,27,28
 472 848 472 848 517.5 848 c 128,-1,29
 563 848 563 848 601.5 882 c 128,-1,30
 640 916 640 916 664 966 c 0,31,32
 710 1063 710 1063 710 1177 c 0,19,20
1036 380 m 0,33,34
 1036 453 1036 453 1067 529.5 c 128,-1,35
 1098 606 1098 606 1153 666 c 0,36,37
 1275 799 1275 799 1449 799 c 0,38,39
 1726 799 1726 799 1726 504 c 0,40,41
 1726 331 1726 331 1614 202 c 0,42,43
 1495 64 1495 64 1314 64 c 0,44,45
 1180 64 1180 64 1106 153 c 0,46,47
 1036 237 1036 237 1036 380 c 0,33,34
1546 496 m 0,48,49
 1546 697 1546 697 1421 697 c 0,50,51
 1318 697 1318 697 1257 584 c 0,52,53
 1207 490 1207 490 1207 376 c 0,54,55
 1207 226 1207 226 1282 182 c 0,56,57
 1308 167 1308 167 1353.5 167 c 128,-1,58
 1399 167 1399 167 1437.5 201 c 128,-1,59
 1476 235 1476 235 1500 286 c 0,60,61
 1546 382 1546 382 1546 496 c 0,48,49
EndSplineSet
Ligature2: "'frac' Diagonal Fractions in Latin lookup 10 subtable" zero slash zero
EndChar

StartChar: ampersand
Encoding: 38 38 31
Width: 1453
GlyphClass: 2
Flags: W
LayerCount: 2
Fore
SplineSet
959 69 m 1,0,1
 797 -17 797 -17 589 -17 c 0,2,3
 276 -17 276 -17 138 122 c 1,4,5
 54 205 54 205 54 329 c 0,6,7
 54 522 54 522 297 684 c 0,8,9
 367 730 367 730 442 774 c 1,10,11
 359 913 359 913 326 1060 c 0,12,13
 315 1109 315 1109 315 1175 c 128,-1,14
 315 1241 315 1241 350 1314.5 c 128,-1,15
 385 1388 385 1388 446 1440 c 0,16,17
 575 1549 575 1549 768 1549 c 0,18,19
 930 1549 930 1549 1014 1459 c 0,20,21
 1085 1384 1085 1384 1085 1280 c 128,-1,22
 1085 1176 1085 1176 1047.5 1104 c 128,-1,23
 1010 1032 1010 1032 948 973 c 0,24,25
 860 888 860 888 651 768 c 1,26,27
 840 440 840 440 1001 279 c 1,28,29
 1089 393 1089 393 1089 542 c 0,30,31
 1089 645 1089 645 1038 754 c 1,32,-1
 1223 754 l 1,33,34
 1265 682 1265 682 1265 586 c 0,35,36
 1265 343 1265 343 1110 182 c 1,37,38
 1242 87 1242 87 1336 84 c 1,39,-1
 1325 -1 l 1,40,41
 1261 -20 1261 -20 1188 -20 c 0,42,43
 1062 -20 1062 -20 959 69 c 1,0,1
596 865 m 1,44,45
 743 956 743 956 796 1017 c 0,46,47
 899 1134 899 1134 899 1249 c 0,48,49
 899 1377 899 1377 822 1426 c 0,50,51
 791 1446 791 1446 737.5 1446 c 128,-1,52
 684 1446 684 1446 638 1425 c 128,-1,53
 592 1404 592 1404 560 1368 c 0,54,55
 495 1293 495 1293 495 1177 c 0,56,57
 495 1085 495 1085 522 1019 c 0,58,59
 557 932 557 932 596 865 c 1,44,45
250 359 m 0,60,61
 250 103 250 103 597 103 c 0,62,63
 750 103 750 103 862 163 c 1,64,65
 718 315 718 315 576 550 c 0,66,67
 536 616 536 616 499 678 c 1,68,69
 383 606 383 606 336 552 c 0,70,71
 250 455 250 455 250 359 c 0,60,61
EndSplineSet
EndChar

StartChar: quotesingle
Encoding: 39 39 32
Width: 524
GlyphClass: 2
Flags: W
LayerCount: 2
Fore
SplineSet
320 1687 m 1,0,-1
 547 1687 l 1,1,-1
 383 966 l 1,2,-1
 243 966 l 1,3,-1
 320 1687 l 1,0,-1
EndSplineSet
EndChar

StartChar: parenleft
Encoding: 40 40 33
Width: 854
GlyphClass: 2
Flags: W
LayerCount: 2
Fore
SplineSet
223 270 m 0,0,1
 203 377 203 377 203 492.5 c 128,-1,2
 203 608 203 608 220 738 c 128,-1,3
 237 868 237 868 283 996 c 128,-1,4
 329 1124 329 1124 388.5 1232.5 c 128,-1,5
 448 1341 448 1341 515 1429 c 128,-1,6
 582 1517 582 1517 643 1582 c 0,7,8
 759 1706 759 1706 827 1741 c 1,9,-1
 914 1682 l 1,10,11
 812 1614 812 1614 676 1404 c 1,12,13
 493 1124 493 1124 431 773 c 1,14,15
 411 618 411 618 411 510 c 128,-1,16
 411 402 411 402 425 306.5 c 128,-1,17
 439 211 439 211 461.5 130.5 c 128,-1,18
 484 50 484 50 512.5 -14.5 c 128,-1,19
 541 -79 541 -79 570 -128 c 0,20,21
 622 -216 622 -216 668 -255 c 1,22,-1
 560 -319 l 1,23,-1
 543 -319 l 1,24,25
 440 -244 440 -244 345 -80 c 0,26,27
 261 65 261 65 223 270 c 0,0,1
EndSplineSet
EndChar

StartChar: asterisk
Encoding: 42 42 35
Width: 1366
GlyphClass: 2
Flags: W
LayerCount: 2
Fore
SplineSet
278 982 m 1,0,-1
 601 1112 l 1,1,-1
 715 1150 l 1,2,-1
 609 1188 l 1,3,-1
 312 1318 l 1,4,-1
 427 1484 l 1,5,-1
 672 1281 l 1,6,-1
 752 1205 l 1,7,-1
 741 1319 l 1,8,-1
 734 1653 l 1,9,-1
 926 1652 l 1,10,-1
 849 1319 l 1,11,-1
 815 1205 l 1,12,-1
 911 1281 l 1,13,-1
 1201 1485 l 1,14,-1
 1278 1318 l 1,15,-1
 955 1188 l 1,16,-1
 841 1149 l 1,17,-1
 947 1112 l 1,18,-1
 1244 982 l 1,19,-1
 1129 816 l 1,20,-1
 884 1019 l 1,21,-1
 803 1097 l 1,22,-1
 814 981 l 1,23,-1
 821 647 l 1,24,-1
 629 648 l 1,25,-1
 706 981 l 1,26,-1
 740 1097 l 1,27,-1
 645 1019 l 1,28,-1
 355 815 l 1,29,-1
 278 982 l 1,0,-1
EndSplineSet
EndChar

StartChar: plus
Encoding: 43 43 36
Width: 1366
GlyphClass: 2
Flags: W
LayerCount: 2
Fore
SplineSet
592 536 m 1,0,-1
 618 700 l 1,1,-1
 477 693 l 1,2,-1
 252 693 l 1,3,-1
 270 851 l 1,4,-1
 496 851 l 1,5,-1
 634 840 l 1,6,-1
 647 1005 l 1,7,-1
 674 1235 l 1,8,-1
 852 1235 l 1,9,-1
 826 1005 l 1,10,-1
 797 841 l 1,11,-1
 912 851 l 1,12,-1
 1167 851 l 1,13,-1
 1149 693 l 1,14,-1
 894 693 l 1,15,-1
 782 700 l 1,16,17
 780 658 780 658 777 618 c 128,-1,18
 774 578 774 578 772 536 c 1,19,-1
 744 295 l 1,20,-1
 565 295 l 1,21,-1
 592 536 l 1,0,-1
EndSplineSet
EndChar

StartChar: comma
Encoding: 44 44 37
Width: 696
GlyphClass: 2
Flags: W
LayerCount: 2
Fore
SplineSet
149 132 m 1,0,-1
 263 265 l 1,1,2
 455 218 455 218 455 -4 c 0,3,4
 455 -169 455 -169 350 -305 c 0,5,6
 247 -438 247 -438 82 -501 c 1,7,-1
 39 -432 l 1,8,-1
 42 -411 l 1,9,10
 123 -375 123 -375 188 -278 c 0,11,12
 253 -182 253 -182 253 -88 c 0,13,14
 253 -21 253 -21 228 16 c 0,15,16
 185 80 185 80 142 78 c 1,17,-1
 149 132 l 1,0,-1
EndSplineSet
EndChar

StartChar: hyphen
Encoding: 45 45 38
Width: 1001
GlyphClass: 2
Flags: W
LayerCount: 2
Fore
SplineSet
186 851 m 1,0,-1
 860 851 l 1,1,-1
 842 694 l 1,2,-1
 168 694 l 1,3,-1
 186 851 l 1,0,-1
EndSplineSet
EndChar

StartChar: period
Encoding: 46 46 39
Width: 526
GlyphClass: 2
Flags: W
LayerCount: 2
Fore
SplineSet
112 11 m 128,-1,1
 97 27 97 27 91.5 46 c 128,-1,2
 86 65 86 65 86 94.5 c 128,-1,3
 86 124 86 124 103 156 c 128,-1,4
 120 188 120 188 142 208 c 0,5,6
 190 250 190 250 235.5 250 c 128,-1,7
 281 250 281 250 306 240 c 0,8,9
 366 215 366 215 366 143 c 0,10,11
 366 68 366 68 306 18 c 0,12,13
 258 -22 258 -22 214 -22 c 128,-1,14
 170 -22 170 -22 148.5 -13.5 c 128,-1,0
 127 -5 127 -5 112 11 c 128,-1,1
EndSplineSet
EndChar

StartChar: slash
Encoding: 47 47 40
Width: 854
GlyphClass: 2
Flags: W
LayerCount: 2
Fore
SplineSet
-132 -362 m 1,0,-1
 729 1597 l 1,1,-1
 903 1597 l 1,2,-1
 40 -362 l 1,3,-1
 -132 -362 l 1,0,-1
EndSplineSet
EndChar

StartChar: zero
Encoding: 48 48 41
Width: 1278
GlyphClass: 2
Flags: W
LayerCount: 2
Fore
SplineSet
744 1162 m 0,0,1
 1175 1162 1175 1162 1175 697 c 0,2,3
 1175 556 1175 556 1128 427 c 128,-1,4
 1081 298 1081 298 997 199.5 c 128,-1,5
 913 101 913 101 798.5 42.5 c 128,-1,6
 684 -16 684 -16 557.5 -16 c 128,-1,7
 431 -16 431 -16 348 21.5 c 128,-1,8
 265 59 265 59 213 122 c 0,9,10
 113 245 113 245 113 450 c 0,11,12
 113 751 113 751 300 957 c 0,13,14
 417 1086 417 1086 578 1137 c 0,15,16
 658 1162 658 1162 744 1162 c 0,0,1
340 457 m 0,17,18
 340 391 340 391 353 324 c 128,-1,19
 366 257 366 257 394 206 c 0,20,21
 455 96 455 96 571 94 c 1,22,23
 591 91 591 91 621 91 c 128,-1,24
 651 91 651 91 696.5 108.5 c 128,-1,25
 742 126 742 126 783.5 168.5 c 128,-1,26
 825 211 825 211 856 270 c 128,-1,27
 887 329 887 329 908 397 c 0,28,29
 948 531 948 531 948 646 c 128,-1,30
 948 761 948 761 935 829.5 c 128,-1,31
 922 898 922 898 894 948 c 0,32,33
 834 1053 834 1053 712 1053 c 0,34,35
 577 1053 577 1053 487 954 c 0,36,37
 340 793 340 793 340 457 c 0,17,18
EndSplineSet
EndChar

StartChar: one
Encoding: 49 49 42
Width: 930
GlyphClass: 2
Flags: W
LayerCount: 2
Fore
SplineSet
165 960 m 1,0,1
 342 1001 342 1001 581 1162 c 1,2,-1
 665 1142 l 1,3,-1
 521 113 l 1,4,-1
 734 87 l 1,5,-1
 724 0 l 1,6,-1
 111 0 l 1,7,-1
 121 87 l 1,8,-1
 319 112 l 1,9,-1
 430 916 l 1,10,11
 294 883 294 883 179 864 c 1,12,-1
 165 960 l 1,0,1
EndSplineSet
Substitution2: "'sups' Superscript in Latin lookup 11 subtable" onesuperior
EndChar

StartChar: two
Encoding: 50 50 43
Width: 1249
GlyphClass: 2
Flags: W
LayerCount: 2
Fore
SplineSet
78 79 m 1,0,1
 298 188 298 188 412.5 267 c 128,-1,2
 527 346 527 346 596.5 406 c 128,-1,3
 666 466 666 466 716 528 c 0,4,5
 822 661 822 661 822 780.5 c 128,-1,6
 822 900 822 900 766.5 963 c 128,-1,7
 711 1026 711 1026 605 1026 c 0,8,9
 473 1026 473 1026 325 926 c 0,10,11
 286 899 286 899 258 875 c 1,12,-1
 205 964 l 1,13,14
 324 1090 324 1090 520 1143 c 0,15,16
 591 1162 591 1162 679.5 1162 c 128,-1,17
 768 1162 768 1162 838.5 1134 c 128,-1,18
 909 1106 909 1106 954 1060 c 0,19,20
 1043 969 1043 969 1043 826 c 0,21,22
 1043 581 1043 581 684 325 c 0,23,24
 539 222 539 222 346 125 c 1,25,-1
 910 163 l 1,26,-1
 1006 311 l 1,27,-1
 1107 275 l 1,28,-1
 1028 0 l 1,29,-1
 95 0 l 1,30,-1
 78 79 l 1,0,1
EndSplineSet
Substitution2: "'sups' Superscript in Latin lookup 11 subtable" twosuperior
EndChar

StartChar: three
Encoding: 51 51 44
Width: 1104
GlyphClass: 2
Flags: W
LayerCount: 2
Fore
SplineSet
58 -201 m 1,0,1
 132 -211 132 -211 208 -211 c 128,-1,2
 284 -211 284 -211 376 -188 c 128,-1,3
 468 -165 468 -165 539 -120 c 0,4,5
 697 -18 697 -18 697 149 c 0,6,7
 697 401 697 401 419 405 c 1,8,-1
 277 371 l 1,9,-1
 292 488 l 1,10,11
 449 519 449 519 573 603 c 0,12,13
 719 701 719 701 719 842 c 0,14,15
 719 1023 719 1023 526 1023 c 0,16,17
 397 1023 397 1023 273 944 c 0,18,19
 237 921 237 921 204 897 c 1,20,-1
 161 998 l 1,21,22
 268 1100 268 1100 464 1146 c 0,23,24
 535 1162 535 1162 607 1162 c 128,-1,25
 679 1162 679 1162 738 1145.5 c 128,-1,26
 797 1129 797 1129 842 1095 c 0,27,28
 942 1021 942 1021 942 881 c 0,29,30
 942 752 942 752 827 637 c 0,31,32
 724 534 724 534 574 482 c 1,33,34
 751 482 751 482 845 390 c 0,35,36
 928 309 928 309 928 176 c 0,37,38
 928 30 928 30 818 -91 c 0,39,40
 665 -259 665 -259 379 -311 c 0,41,42
 291 -327 291 -327 230 -327 c 0,43,44
 136 -327 136 -327 44 -315 c 1,45,-1
 58 -201 l 1,0,1
EndSplineSet
Substitution2: "'sups' Superscript in Latin lookup 11 subtable" threesuperior
EndChar

StartChar: four
Encoding: 52 52 45
Width: 1264
GlyphClass: 2
Flags: W
LayerCount: 2
Fore
SplineSet
26 94 m 1,0,1
 347 577 347 577 728 1256 c 1,2,-1
 835 1256 l 1,3,-1
 917 1167 l 1,4,-1
 300 219 l 1,5,-1
 221 120 l 1,6,-1
 697 148 l 1,7,-1
 755 591 l 1,8,-1
 948 649 l 1,9,-1
 885 159 l 1,10,-1
 1136 174 l 1,11,-1
 1115 0 l 1,12,-1
 865 0 l 1,13,-1
 818 -375 l 1,14,-1
 629 -375 l 1,15,-1
 678 0 l 1,16,-1
 62 0 l 1,17,-1
 26 94 l 1,0,1
EndSplineSet
EndChar

StartChar: five
Encoding: 53 53 46
Width: 1116
GlyphClass: 2
Flags: W
LayerCount: 2
Fore
SplineSet
59 -239 m 1,0,1
 93 -245 93 -245 171.5 -245 c 128,-1,2
 250 -245 250 -245 356 -215 c 128,-1,3
 462 -185 462 -185 544 -130 c 0,4,5
 726 -10 726 -10 726 170 c 0,6,7
 726 393 726 393 569 446 c 0,8,9
 521 463 521 463 440.5 463 c 128,-1,10
 360 463 360 463 201 410 c 1,11,-1
 153 448 l 1,12,-1
 324 1146 l 1,13,-1
 861 1146 l 1,14,-1
 883 1162 l 1,15,-1
 1051 1162 l 1,16,-1
 993 977 l 1,17,-1
 457 977 l 1,18,-1
 341 551 l 1,19,20
 445 580 445 580 547.5 580 c 128,-1,21
 650 580 650 580 724 555 c 128,-1,22
 798 530 798 530 850 480 c 0,23,24
 957 377 957 377 957 188 c 0,25,26
 957 46 957 46 836 -81 c 0,27,28
 722 -200 722 -200 540 -273 c 0,29,30
 360 -346 360 -346 176 -346 c 0,31,32
 97 -346 97 -346 46 -329 c 1,33,-1
 59 -239 l 1,0,1
EndSplineSet
EndChar

StartChar: six
Encoding: 54 54 47
Width: 1268
GlyphClass: 2
Flags: W
LayerCount: 2
Fore
SplineSet
417 865 m 1,0,1
 548 975 548 975 758 975 c 0,2,3
 938 975 938 975 1034 860 c 1,4,5
 1117 759 1117 759 1117 601 c 0,6,7
 1117 370 1117 370 963 181 c 0,8,9
 799 -20 799 -20 555 -20 c 0,10,11
 356 -20 356 -20 246 122 c 0,12,13
 142 255 142 255 142 469 c 0,14,15
 142 832 142 832 386 1150 c 0,16,17
 540 1351 540 1351 764 1476 c 1,18,19
 876 1537 876 1537 999 1571 c 1,20,-1
 1028 1486 l 1,21,22
 809 1403 809 1403 644 1231 c 0,23,24
 489 1068 489 1068 417 865 c 1,0,1
376 683 m 1,25,26
 349 560 349 560 349 468 c 128,-1,27
 349 376 349 376 361 310.5 c 128,-1,28
 373 245 373 245 402 196 c 0,29,30
 467 88 467 88 601 88 c 0,31,32
 800 88 800 88 878 346 c 0,33,34
 908 448 908 448 908 537.5 c 128,-1,35
 908 627 908 627 892.5 683 c 128,-1,36
 877 739 877 739 850 776 c 0,37,38
 796 852 796 852 715.5 852 c 128,-1,39
 635 852 635 852 579.5 833 c 128,-1,40
 524 814 524 814 484 788 c 1,41,42
 431 751 431 751 376 683 c 1,25,26
EndSplineSet
EndChar

StartChar: seven
Encoding: 55 55 48
Width: 1096
GlyphClass: 2
Flags: W
LayerCount: 2
Fore
SplineSet
856 1007 m 1,0,-1
 289 995 l 1,1,-1
 193 813 l 1,2,-1
 65 817 l 1,3,-1
 135 1146 l 1,4,-1
 1027 1146 l 1,5,-1
 1059 1103 l 1,6,-1
 456 -320 l 1,7,-1
 248 -254 l 1,8,-1
 856 1007 l 1,0,-1
EndSplineSet
EndChar

StartChar: eight
Encoding: 56 56 49
Width: 1270
GlyphClass: 2
Flags: W
LayerCount: 2
Fore
SplineSet
123 332 m 0,0,1
 123 418 123 418 153 489.5 c 128,-1,2
 183 561 183 561 234 622 c 0,3,4
 332 737 332 737 490 821 c 1,5,6
 391 900 391 900 356 954 c 0,7,8
 287 1058 287 1058 287 1158.5 c 128,-1,9
 287 1259 287 1259 324 1335 c 128,-1,10
 361 1411 361 1411 426 1463 c 0,11,12
 557 1569 557 1569 764 1569 c 0,13,14
 929 1569 929 1569 1037 1480 c 0,15,16
 1148 1388 1148 1388 1148 1240 c 0,17,18
 1148 1108 1148 1108 1043 985 c 0,19,20
 958 886 958 886 811 803 c 1,21,22
 946 710 946 710 996 651 c 0,23,24
 1094 537 1094 537 1094 423 c 0,25,26
 1094 231 1094 231 924 102 c 0,27,28
 762 -20 762 -20 557 -20 c 0,29,30
 384 -20 384 -20 263 66 c 0,31,32
 123 165 123 165 123 332 c 0,0,1
718 869 m 1,33,34
 881 943 881 943 934 1112 c 0,35,36
 951 1166 951 1166 951 1226 c 128,-1,37
 951 1286 951 1286 934 1331.5 c 128,-1,38
 917 1377 917 1377 888 1408 c 0,39,40
 830 1470 830 1470 742 1470 c 0,41,42
 637 1470 637 1470 562.5 1390 c 128,-1,43
 488 1310 488 1310 488 1197 c 0,44,45
 488 1060 488 1060 630 938 c 0,46,47
 672 902 672 902 718 869 c 1,33,34
354 492 m 0,48,49
 336 434 336 434 335.5 372 c 128,-1,50
 335 310 335 310 353 257 c 128,-1,51
 371 204 371 204 405 166 c 0,52,53
 477 86 477 86 592 86 c 0,54,55
 711 86 711 86 794.5 175 c 128,-1,56
 878 264 878 264 878 385 c 0,57,58
 878 530 878 530 696 672 c 0,59,60
 641 715 641 715 576 758 c 1,61,62
 414 679 414 679 354 492 c 0,48,49
EndSplineSet
EndChar

StartChar: nine
Encoding: 57 57 50
Width: 1247
GlyphClass: 2
Flags: W
LayerCount: 2
Fore
SplineSet
824 277 m 1,0,1
 698 166 698 166 482 166 c 0,2,3
 300 166 300 166 204 285 c 0,4,5
 122 387 122 387 122 550 c 0,6,7
 122 771 122 771 276 958 c 0,8,9
 378 1083 378 1083 525 1136 c 0,10,11
 600 1162 600 1162 694 1162 c 128,-1,12
 788 1162 788 1162 865 1124.5 c 128,-1,13
 942 1087 942 1087 994 1022 c 0,14,15
 1098 894 1098 894 1098 686 c 0,16,17
 1098 437 1098 437 985 201 c 0,18,19
 819 -147 819 -147 475 -336 c 0,20,21
 364 -397 364 -397 241 -431 c 1,22,-1
 212 -345 l 1,23,24
 426 -265 426 -265 594 -90 c 0,25,26
 749 72 749 72 824 277 c 1,0,1
544 289 m 0,27,28
 600 289 600 289 654.5 307.5 c 128,-1,29
 709 326 709 326 750 353 c 0,30,31
 810 393 810 393 864 459 c 1,32,33
 891 569 891 569 891 670 c 128,-1,34
 891 771 891 771 879 834 c 128,-1,35
 867 897 867 897 838 946 c 0,36,37
 772 1054 772 1054 639 1054 c 0,38,39
 487 1054 487 1054 402 896 c 0,40,41
 332 766 332 766 332 604 c 0,42,43
 332 455 332 455 390 369 c 0,44,45
 444 289 444 289 544 289 c 0,27,28
EndSplineSet
EndChar

StartChar: less
Encoding: 60 60 53
Width: 1368
GlyphClass: 2
Flags: W
LayerCount: 2
Fore
SplineSet
211 814 m 1,0,-1
 1220 1324 l 1,1,-1
 1196 1130 l 1,2,-1
 400 751 l 1,3,-1
 1108 373 l 1,4,-1
 1085 176 l 1,5,-1
 195 686 l 1,6,-1
 211 814 l 1,0,-1
EndSplineSet
EndChar

StartChar: equal
Encoding: 61 61 54
Width: 1063
GlyphClass: 2
Flags: W
LayerCount: 2
Fore
SplineSet
168 1005 m 1,0,-1
 983 1005 l 1,1,-1
 965 848 l 1,2,-1
 150 848 l 1,3,-1
 168 1005 l 1,0,-1
98 496 m 1,4,-1
 913 496 l 1,5,-1
 895 339 l 1,6,-1
 80 339 l 1,7,-1
 98 496 l 1,4,-1
EndSplineSet
EndChar

StartChar: question
Encoding: 63 63 56
Width: 1020
GlyphClass: 2
Flags: W
LayerCount: 2
Fore
SplineSet
360 464 m 1,0,1
 304 517 304 517 286 646 c 0,2,3
 280 684 280 684 280 725.5 c 128,-1,4
 280 767 280 767 302 806 c 128,-1,5
 324 845 324 845 362 881 c 0,6,7
 423 939 423 939 515.5 991 c 128,-1,8
 608 1043 608 1043 647.5 1066.5 c 128,-1,9
 687 1090 687 1090 720 1114 c 0,10,11
 791 1167 791 1167 813 1217 c 1,12,13
 822 1257 822 1257 822 1316.5 c 128,-1,14
 822 1376 822 1376 792 1440.5 c 128,-1,15
 762 1505 762 1505 711 1552 c 0,16,17
 603 1653 603 1653 447 1653 c 0,18,19
 340 1653 340 1653 271 1620 c 1,20,-1
 299 1760 l 1,21,22
 334 1795 334 1795 441 1809 c 0,23,24
 472 1813 472 1813 502 1813 c 0,25,26
 758 1813 758 1813 886 1682 c 0,27,28
 993 1572 993 1572 993 1392 c 0,29,30
 993 1150 993 1150 825 1021 c 0,31,32
 753 965 753 965 667.5 918 c 128,-1,33
 582 871 582 871 545 841 c 0,34,35
 462 774 462 774 462 687 c 0,36,37
 462 643 462 643 481.5 584.5 c 128,-1,38
 501 526 501 526 504 513 c 1,39,-1
 377 463 l 1,40,-1
 360 464 l 1,0,1
299 40 m 0,41,42
 290 60 290 60 290 88.5 c 128,-1,43
 290 117 290 117 307.5 147.5 c 128,-1,44
 325 178 325 178 352 200 c 0,45,46
 411 250 411 250 472 250 c 128,-1,47
 533 250 533 250 561 222.5 c 128,-1,48
 589 195 589 195 589 154.5 c 128,-1,49
 589 114 589 114 571.5 81.5 c 128,-1,50
 554 49 554 49 527 26 c 0,51,52
 471 -22 471 -22 403 -22 c 0,53,54
 328 -22 328 -22 299 40 c 0,41,42
EndSplineSet
EndChar

StartChar: at
Encoding: 64 64 57
Width: 1969
GlyphClass: 2
Flags: W
LayerCount: 2
Fore
SplineSet
1321 -312 m 1,0,1
 1165 -428 1165 -428 905 -428 c 0,2,3
 552 -428 552 -428 344 -240 c 1,4,5
 120 -39 120 -39 120 334 c 0,6,7
 120 686 120 686 268 970 c 1,8,9
 410 1240 410 1240 657 1392 c 0,10,11
 905 1545 905 1545 1199 1545 c 0,12,13
 1505 1545 1505 1545 1685 1377 c 0,14,15
 1868 1206 1868 1206 1868 909 c 0,16,17
 1868 646 1868 646 1768 430 c 0,18,19
 1680 240 1680 240 1533 127 c 0,20,21
 1394 21 1394 21 1256 21 c 0,22,23
 1172 21 1172 21 1168 142 c 0,24,25
 1166 180 1166 180 1166 220 c 0,26,27
 1166 306 1166 306 1194 427 c 1,28,29
 1073 143 1073 143 920 42 c 1,30,31
 865 7 865 7 812 7 c 128,-1,32
 759 7 759 7 708 32 c 0,33,34
 600 86 600 86 554 242 c 0,35,36
 532 317 532 317 532 371 c 128,-1,37
 532 425 532 425 532.5 466 c 128,-1,38
 533 507 533 507 548 584 c 128,-1,39
 563 661 563 661 592.5 734 c 128,-1,40
 622 807 622 807 665.5 872 c 128,-1,41
 709 937 709 937 768 986 c 0,42,43
 897 1092 897 1092 1072 1092 c 0,44,45
 1156 1092 1156 1092 1213.5 1072.5 c 128,-1,46
 1271 1053 1271 1053 1292 1038 c 1,47,-1
 1457 1068 l 1,48,49
 1412 897 1412 897 1384 686 c 0,50,51
 1343 385 1343 385 1343 313 c 1,52,-1
 1349 193 l 1,53,54
 1349 165 1349 165 1363 165 c 0,55,56
 1445 165 1445 165 1529 268 c 0,57,58
 1655 423 1655 423 1700 677 c 0,59,60
 1715 758 1715 758 1715 853.5 c 128,-1,61
 1715 949 1715 949 1691.5 1034 c 128,-1,62
 1668 1119 1668 1119 1626 1183 c 128,-1,63
 1584 1247 1584 1247 1527 1291 c 128,-1,64
 1470 1335 1470 1335 1403 1362 c 0,65,66
 1278 1414 1278 1414 1127 1414 c 128,-1,67
 976 1414 976 1414 861 1374.5 c 128,-1,68
 746 1335 746 1335 653 1265 c 128,-1,69
 560 1195 560 1195 488.5 1100 c 128,-1,70
 417 1005 417 1005 369 893 c 0,71,72
 272 667 272 667 272 442 c 128,-1,73
 272 217 272 217 325 84 c 128,-1,74
 378 -49 378 -49 469 -132 c 0,75,76
 643 -291 643 -291 940 -291 c 0,77,78
 1079 -291 1079 -291 1223 -250 c 0,79,80
 1264 -239 1264 -239 1290 -227 c 1,81,-1
 1321 -312 l 1,0,1
710 447 m 0,82,83
 710 170 710 170 846 170 c 0,84,85
 910 170 910 170 1002 300 c 0,86,87
 1135 487 1135 487 1210 743 c 0,88,89
 1233 819 1233 819 1241 879 c 1,90,91
 1205 943 1205 943 1104 962 c 0,92,93
 1077 967 1077 967 1031.5 967 c 128,-1,94
 986 967 986 967 933.5 944.5 c 128,-1,95
 881 922 881 922 842.5 883.5 c 128,-1,96
 804 845 804 845 778.5 793.5 c 128,-1,97
 753 742 753 742 738 684 c 0,98,99
 710 576 710 576 710 447 c 0,82,83
EndSplineSet
EndChar

StartChar: A
Encoding: 65 65 58
Width: 1342
GlyphClass: 2
Flags: W
LayerCount: 2
Fore
SplineSet
-108 86 m 1,0,-1
 32 115 l 1,1,-1
 706 1530 l 1,2,-1
 905 1530 l 1,3,-1
 1158 118 l 1,4,-1
 1314 86 l 1,5,-1
 1307 0 l 1,6,-1
 819 0 l 1,7,-1
 825 86 l 1,8,-1
 960 115 l 1,9,-1
 910 436 l 1,10,-1
 358 436 l 1,11,-1
 211 116 l 1,12,-1
 360 86 l 1,13,-1
 354 0 l 1,14,-1
 -117 0 l 1,15,-1
 -108 86 l 1,0,-1
891 557 m 1,16,-1
 786 1236 l 1,17,-1
 775 1344 l 1,18,-1
 413 557 l 1,19,-1
 891 557 l 1,16,-1
EndSplineSet
EndChar

StartChar: B
Encoding: 66 66 59
Width: 1281
GlyphClass: 2
Flags: W
LayerCount: 2
Fore
SplineSet
511 -14 m 1,0,-1
 256 0 l 1,1,-1
 21 0 l 1,2,-1
 30 86 l 1,3,-1
 178 116 l 1,4,-1
 339 1406 l 1,5,-1
 206 1429 l 1,6,-1
 218 1530 l 1,7,-1
 466 1530 l 1,8,9
 534 1532 534 1532 602.5 1538.5 c 128,-1,10
 671 1545 671 1545 766.5 1545 c 128,-1,11
 862 1545 862 1545 945 1517 c 128,-1,12
 1028 1489 1028 1489 1082 1444 c 0,13,14
 1189 1353 1189 1353 1189 1210 c 0,15,16
 1189 909 1189 909 892 810 c 1,17,18
 1017 792 1017 792 1096 706 c 0,19,20
 1181 614 1181 614 1181 482.5 c 128,-1,21
 1181 351 1181 351 1128 256.5 c 128,-1,22
 1075 162 1075 162 982 102 c 0,23,24
 804 -14 804 -14 511 -14 c 1,0,-1
534 850 m 2,25,-1
 641 851 l 1,26,27
 799 851 799 851 893 932 c 0,28,29
 993 1019 993 1019 993 1186 c 0,30,31
 993 1370 993 1370 836 1413 c 0,32,33
 780 1428 780 1428 734.5 1428 c 128,-1,34
 689 1428 689 1428 668.5 1427.5 c 128,-1,35
 648 1427 648 1427 624 1426 c 0,36,37
 578 1424 578 1424 536 1417 c 1,38,-1
 466 852 l 1,39,40
 497 850 497 850 534 850 c 2,25,-1
554 107 m 0,41,42
 970 107 970 107 970 456 c 0,43,44
 970 596 970 596 899 660.5 c 128,-1,45
 828 725 828 725 677 725 c 0,46,47
 558 725 558 725 449 718 c 1,48,-1
 376 128 l 1,49,50
 422 107 422 107 554 107 c 0,41,42
EndSplineSet
EndChar

StartChar: C
Encoding: 67 67 60
Width: 1261
GlyphClass: 2
Flags: W
LayerCount: 2
Fore
SplineSet
694.5 -10 m 128,-1,1
 647 -16 647 -16 575.5 -16 c 128,-1,2
 504 -16 504 -16 432.5 10 c 128,-1,3
 361 36 361 36 306 81.5 c 128,-1,4
 251 127 251 127 211.5 189 c 128,-1,5
 172 251 172 251 146 322 c 0,6,7
 93 469 93 469 93 623 c 128,-1,8
 93 777 93 777 117.5 892 c 128,-1,9
 142 1007 142 1007 191 1109 c 128,-1,10
 240 1211 240 1211 308 1292 c 128,-1,11
 376 1373 376 1373 459 1430 c 0,12,13
 630 1546 630 1546 829 1546 c 0,14,15
 1018 1546 1018 1546 1184 1500 c 1,16,-1
 1222 1489 l 1,17,-1
 1154 1122 l 1,18,-1
 1037 1122 l 1,19,-1
 1016 1382 l 1,20,21
 973 1415 973 1415 912 1421.5 c 128,-1,22
 851 1428 851 1428 780 1428 c 128,-1,23
 709 1428 709 1428 634 1391 c 128,-1,24
 559 1354 559 1354 503 1292 c 128,-1,25
 447 1230 447 1230 408 1150 c 0,26,27
 302 931 302 931 302 662 c 0,28,29
 302 431 302 431 382 276 c 0,30,31
 473 101 473 101 641 101 c 0,32,33
 774 101 774 101 862 158 c 0,34,35
 893 177 893 177 908 205 c 1,36,-1
 975 402 l 1,37,-1
 1096 401 l 1,38,-1
 1057 70 l 1,39,40
 1001 66 1001 66 946 50.5 c 128,-1,41
 891 35 891 35 857 24.5 c 128,-1,42
 823 14 823 14 782.5 5 c 128,-1,0
 742 -4 742 -4 694.5 -10 c 128,-1,1
EndSplineSet
EndChar

StartChar: D
Encoding: 68 68 61
Width: 1429
GlyphClass: 2
Flags: W
LayerCount: 2
Fore
SplineSet
28 86 m 1,0,-1
 176 116 l 1,1,-1
 338 1406 l 1,2,-1
 205 1429 l 1,3,-1
 217 1530 l 1,4,-1
 515 1530 l 1,5,6
 562 1532 562 1532 600 1535.5 c 128,-1,7
 638 1539 638 1539 658 1540.5 c 128,-1,8
 678 1542 678 1542 699 1544 c 0,9,10
 734 1546 734 1546 779 1546 c 0,11,12
 1071 1546 1071 1546 1218 1373 c 1,13,14
 1356 1209 1356 1209 1356 902 c 0,15,16
 1356 511 1356 511 1146 250 c 0,17,18
 1004 75 1004 75 796 12 c 0,19,20
 701 -16 701 -16 595 -16 c 0,21,22
 568 -16 568 -16 551.5 -15 c 128,-1,23
 535 -14 535 -14 520 -13 c 0,24,25
 458 -9 458 -9 426.5 -6.5 c 128,-1,26
 395 -4 395 -4 367 -3 c 128,-1,27
 339 -2 339 -2 312 -1 c 128,-1,28
 285 0 285 0 264 0 c 2,29,-1
 19 0 l 1,30,-1
 28 86 l 1,0,-1
376 132 m 1,31,32
 425 114 425 114 514 107.5 c 128,-1,33
 603 101 603 101 627 101 c 1,34,35
 808 114 808 114 935 239 c 0,36,37
 1153 453 1153 453 1153 891 c 0,38,39
 1153 1185 1153 1185 1048 1312 c 1,40,41
 949 1430 949 1430 720 1430 c 0,42,43
 606 1430 606 1430 535 1411 c 1,44,-1
 376 132 l 1,31,32
EndSplineSet
EndChar

StartChar: E
Encoding: 69 69 62
Width: 1219
GlyphClass: 2
Flags: W
LayerCount: 2
Fore
SplineSet
28 86 m 1,0,-1
 177 115 l 1,1,-1
 337 1406 l 1,2,-1
 204 1429 l 1,3,-1
 216 1530 l 1,4,-1
 1143 1530 l 1,5,-1
 1136 1220 l 1,6,-1
 1030 1220 l 1,7,-1
 982 1408 l 1,8,-1
 541 1422 l 1,9,-1
 469 854 l 1,10,-1
 906 861 l 1,11,-1
 894 705 l 1,12,-1
 457 721 l 1,13,-1
 374 116 l 1,14,-1
 931 140 l 1,15,-1
 1050 347 l 1,16,-1
 1154 316 l 1,17,-1
 1065 0 l 1,18,-1
 18 0 l 1,19,-1
 28 86 l 1,0,-1
EndSplineSet
EndChar

StartChar: F
Encoding: 70 70 63
Width: 1152
GlyphClass: 2
Flags: W
LayerCount: 2
Fore
SplineSet
28 87 m 1,0,-1
 177 116 l 1,1,-1
 337 1406 l 1,2,-1
 204 1429 l 1,3,-1
 216 1530 l 1,4,-1
 1186 1530 l 1,5,-1
 1163 1220 l 1,6,-1
 1042 1220 l 1,7,-1
 1013 1402 l 1,8,-1
 537 1421 l 1,9,-1
 469 854 l 1,10,-1
 939 862 l 1,11,-1
 927 704 l 1,12,-1
 457 721 l 1,13,-1
 375 118 l 1,14,-1
 644 87 l 1,15,-1
 636 0 l 1,16,-1
 20 0 l 1,17,-1
 28 87 l 1,0,-1
EndSplineSet
EndChar

StartChar: G
Encoding: 71 71 64
Width: 1342
GlyphClass: 2
Flags: W
LayerCount: 2
Fore
SplineSet
718.5 -8 m 128,-1,1
 661 -16 661 -16 586.5 -16 c 128,-1,2
 512 -16 512 -16 441 10 c 128,-1,3
 370 36 370 36 315 81.5 c 128,-1,4
 260 127 260 127 220.5 189 c 128,-1,5
 181 251 181 251 155 322 c 0,6,7
 102 469 102 469 102 623 c 128,-1,8
 102 777 102 777 126.5 892 c 128,-1,9
 151 1007 151 1007 200 1109 c 128,-1,10
 249 1211 249 1211 317 1292 c 128,-1,11
 385 1373 385 1373 468 1430 c 0,12,13
 639 1546 639 1546 838 1546 c 0,14,15
 1050 1546 1050 1546 1239 1490 c 1,16,-1
 1277 1479 l 1,17,-1
 1220 1183 l 1,18,-1
 1093 1183 l 1,19,-1
 1071 1364 l 1,20,21
 997 1428 997 1428 814 1428 c 0,22,23
 635 1428 635 1428 512 1292 c 0,24,25
 407 1177 407 1177 353 982 c 0,26,27
 310 827 310 827 310 662 c 0,28,29
 310 432 310 432 393 276 c 0,30,31
 487 101 487 101 660 101 c 0,32,33
 863 101 863 101 954 195 c 1,34,-1
 1009 590 l 1,35,-1
 775 607 l 1,36,-1
 788 723 l 1,37,-1
 1224 723 l 1,38,-1
 1140 94 l 1,39,40
 1111 91 1111 91 1082.5 82 c 128,-1,41
 1054 73 1054 73 1014.5 61.5 c 128,-1,42
 975 50 975 50 928.5 36.5 c 128,-1,43
 882 23 882 23 829 11.5 c 128,-1,0
 776 0 776 0 718.5 -8 c 128,-1,1
EndSplineSet
EndChar

StartChar: H
Encoding: 72 72 65
Width: 1533
GlyphClass: 2
Flags: W
LayerCount: 2
Fore
SplineSet
29 86 m 1,0,-1
 177 116 l 1,1,-1
 338 1406 l 1,2,-1
 205 1429 l 1,3,-1
 217 1530 l 1,4,-1
 700 1530 l 1,5,-1
 689 1429 l 1,6,-1
 536 1406 l 1,7,-1
 465 844 l 1,8,-1
 1120 844 l 1,9,-1
 1190 1406 l 1,10,-1
 1040 1429 l 1,11,-1
 1050 1530 l 1,12,-1
 1537 1530 l 1,13,-1
 1525 1429 l 1,14,-1
 1387 1406 l 1,15,-1
 1227 117 l 1,16,-1
 1378 86 l 1,17,-1
 1369 0 l 1,18,-1
 859 0 l 1,19,-1
 867 87 l 1,20,-1
 1030 117 l 1,21,-1
 1104 714 l 1,22,-1
 449 714 l 1,23,-1
 375 116 l 1,24,-1
 532 87 l 1,25,-1
 524 0 l 1,26,-1
 20 0 l 1,27,-1
 29 86 l 1,0,-1
EndSplineSet
EndChar

StartChar: I
Encoding: 73 73 66
Width: 706
GlyphClass: 2
Flags: W
LayerCount: 2
Fore
SplineSet
29 86 m 1,0,-1
 177 116 l 1,1,-1
 338 1406 l 1,2,-1
 205 1429 l 1,3,-1
 217 1530 l 1,4,-1
 700 1530 l 1,5,-1
 689 1429 l 1,6,-1
 536 1406 l 1,7,-1
 375 116 l 1,8,-1
 532 87 l 1,9,-1
 524 0 l 1,10,-1
 20 0 l 1,11,-1
 29 86 l 1,0,-1
EndSplineSet
EndChar

StartChar: J
Encoding: 74 74 67
Width: 731
GlyphClass: 2
Flags: W
LayerCount: 2
Fore
SplineSet
207 86 m 0,0,1
 259 322 259 322 288.5 611 c 128,-1,2
 318 900 318 900 333.5 1072 c 128,-1,3
 349 1244 349 1244 368 1407 c 1,4,-1
 227 1429 l 1,5,-1
 241 1530 l 1,6,-1
 725 1530 l 1,7,-1
 714 1429 l 1,8,-1
 559 1408 l 1,9,10
 532 1156 532 1156 508 930 c 128,-1,11
 484 704 484 704 464 526 c 0,12,13
 418 133 418 133 392.5 53 c 128,-1,14
 367 -27 367 -27 311 -100.5 c 128,-1,15
 255 -174 255 -174 186 -224 c 0,16,17
 59 -315 59 -315 -115 -345 c 1,18,-1
 -150 -257 l 1,19,20
 -22 -221 -22 -221 84 -115 c 1,21,22
 184 -17 184 -17 207 86 c 0,0,1
EndSplineSet
EndChar

StartChar: K
Encoding: 75 75 68
Width: 1351
GlyphClass: 2
Flags: W
LayerCount: 2
Fore
SplineSet
29 86 m 1,0,-1
 177 116 l 1,1,-1
 338 1406 l 1,2,-1
 205 1429 l 1,3,-1
 217 1530 l 1,4,-1
 700 1530 l 1,5,-1
 689 1429 l 1,6,-1
 536 1406 l 1,7,-1
 446 688 l 1,8,-1
 1057 1406 l 1,9,-1
 940 1429 l 1,10,-1
 952 1530 l 1,11,-1
 1385 1530 l 1,12,-1
 1374 1429 l 1,13,-1
 1251 1407 l 1,14,-1
 710 814 l 1,15,16
 892 552 892 552 944 458 c 128,-1,17
 996 364 996 364 1027.5 311.5 c 128,-1,18
 1059 259 1059 259 1082 224 c 0,19,20
 1127 158 1127 158 1157 141 c 1,21,-1
 1297 93 l 1,22,-1
 1283 0 l 1,23,-1
 1012 0 l 1,24,25
 968 7 968 7 871 216 c 0,26,27
 765 444 765 444 605 698 c 1,28,-1
 422 498 l 1,29,-1
 375 116 l 1,30,-1
 532 87 l 1,31,-1
 524 0 l 1,32,-1
 20 0 l 1,33,-1
 29 86 l 1,0,-1
EndSplineSet
EndChar

StartChar: L
Encoding: 76 76 69
Width: 1168
GlyphClass: 2
Flags: W
LayerCount: 2
Fore
SplineSet
29 87 m 1,0,-1
 177 116 l 1,1,-1
 338 1406 l 1,2,-1
 205 1429 l 1,3,-1
 217 1530 l 1,4,-1
 735 1530 l 1,5,-1
 724 1429 l 1,6,-1
 536 1406 l 1,7,-1
 375 116 l 1,8,-1
 843 127 l 1,9,-1
 979 454 l 1,10,-1
 1096 431 l 1,11,-1
 1000 0 l 1,12,-1
 21 0 l 1,13,-1
 29 87 l 1,0,-1
EndSplineSet
EndChar

StartChar: M
Encoding: 77 77 70
Width: 1885
GlyphClass: 2
Flags: W
LayerCount: 2
Fore
SplineSet
0 87 m 1,0,-1
 167 116 l 1,1,-1
 458 1406 l 1,2,-1
 301 1429 l 1,3,-1
 313 1530 l 1,4,-1
 727 1530 l 1,5,-1
 915 440 l 1,6,-1
 928 283 l 1,7,-1
 979 440 l 1,8,9
 1063 645 1063 645 1168 884 c 0,10,11
 1360 1325 1360 1325 1444 1530 c 1,12,-1
 1842 1530 l 1,13,-1
 1831 1429 l 1,14,-1
 1671 1406 l 1,15,-1
 1636 117 l 1,16,-1
 1796 87 l 1,17,-1
 1787 0 l 1,18,-1
 1282 0 l 1,19,-1
 1291 87 l 1,20,-1
 1443 115 l 1,21,-1
 1496 1026 l 1,22,-1
 1511 1367 l 1,23,-1
 1401 1074 l 1,24,-1
 931 -3 l 1,25,-1
 833 -18 l 1,26,-1
 630 1050 l 1,27,-1
 583 1368 l 1,28,-1
 523 1040 l 1,29,-1
 337 116 l 1,30,-1
 507 87 l 1,31,-1
 498 0 l 1,32,-1
 -10 0 l 1,33,-1
 0 87 l 1,0,-1
EndSplineSet
EndChar

StartChar: N
Encoding: 78 78 71
Width: 1517
GlyphClass: 2
Flags: W
LayerCount: 2
Fore
SplineSet
42 86 m 1,0,-1
 178 114 l 1,1,-1
 347 1406 l 1,2,-1
 201 1429 l 1,3,-1
 218 1530 l 1,4,-1
 557 1530 l 1,5,-1
 1033 418 l 1,6,-1
 1094 225 l 1,7,-1
 1230 1407 l 1,8,-1
 1090 1429 l 1,9,-1
 1102 1530 l 1,10,-1
 1553 1530 l 1,11,-1
 1543 1429 l 1,12,-1
 1397 1406 l 1,13,-1
 1194 0 l 1,14,-1
 1006 0 l 1,15,-1
 528 1095 l 1,16,-1
 472 1278 l 1,17,-1
 351 116 l 1,18,-1
 505 87 l 1,19,-1
 497 0 l 1,20,-1
 34 0 l 1,21,-1
 42 86 l 1,0,-1
EndSplineSet
EndChar

StartChar: O
Encoding: 79 79 72
Width: 1386
GlyphClass: 2
Flags: W
LayerCount: 2
Fore
SplineSet
610 -20 m 0,0,1
 504 -20 504 -20 410 24 c 128,-1,2
 316 68 316 68 248 150 c 1,3,4
 102 330 102 330 102 650 c 0,5,6
 102 892 102 892 192 1099 c 0,7,8
 283 1307 283 1307 444 1428 c 0,9,10
 606 1550 606 1550 801 1550 c 0,11,12
 1035 1550 1035 1550 1170 1358 c 0,13,14
 1301 1173 1301 1173 1301 880 c 0,15,16
 1301 502 1301 502 1112 246 c 1,17,18
 917 -20 917 -20 610 -20 c 0,0,1
328 456 m 0,19,20
 386 100 386 100 649 100 c 0,21,22
 745 100 745 100 829 157 c 0,23,24
 1002 274 1002 274 1070 558 c 0,25,26
 1100 687 1100 687 1100 837 c 0,27,28
 1100 1131 1100 1131 1013 1278 c 128,-1,29
 926 1425 926 1425 767 1425 c 0,30,31
 640 1425 640 1425 530 1328 c 0,32,33
 367 1184 367 1184 320 901 c 0,34,35
 306 820 306 820 306 770 c 0,36,37
 306 589 306 589 328 456 c 0,19,20
EndSplineSet
EndChar

StartChar: P
Encoding: 80 80 73
Width: 1225
GlyphClass: 2
Flags: W
LayerCount: 2
Fore
SplineSet
598 544 m 2,0,-1
 521 544 l 2,1,2
 478 544 478 544 426 548 c 1,3,-1
 375 116 l 1,4,-1
 571 87 l 1,5,-1
 563 0 l 1,6,-1
 20 0 l 1,7,-1
 29 86 l 1,8,-1
 177 116 l 1,9,-1
 338 1406 l 1,10,-1
 205 1429 l 1,11,-1
 217 1530 l 1,12,-1
 470 1530 l 1,13,-1
 755 1547 l 1,14,15
 1206 1547 1206 1547 1212 1157 c 0,16,17
 1212 1149 1212 1149 1212 1140 c 0,18,19
 1212 869 1212 869 1032 703 c 0,20,21
 860 544 860 544 598 544 c 2,0,-1
441 678 m 1,22,23
 901 600 901 600 984 937 c 0,24,25
 1007 1033 1007 1033 1007 1123 c 128,-1,26
 1007 1213 1007 1213 995 1266 c 0,27,28
 958 1428 958 1428 746 1428 c 0,29,30
 648 1428 648 1428 536 1407 c 1,31,-1
 441 678 l 1,22,23
EndSplineSet
EndChar

StartChar: Q
Encoding: 81 81 74
Width: 1386
GlyphClass: 2
Flags: W
LayerCount: 2
Fore
SplineSet
580 -16 m 1,0,1
 364 -2 364 -2 236 166 c 0,2,3
 102 343 102 343 102 652 c 0,4,5
 102 894 102 894 192 1101 c 0,6,7
 283 1309 283 1309 444 1430 c 0,8,9
 606 1552 606 1552 801 1552 c 0,10,11
 1035 1552 1035 1552 1170 1360 c 0,12,13
 1301 1175 1301 1175 1301 880 c 0,14,15
 1301 536 1301 536 1140 288 c 0,16,17
 1062 167 1062 167 952 89 c 128,-1,18
 842 11 842 11 711 -10 c 1,19,20
 721 -160 721 -160 910 -176 c 0,21,22
 960 -181 960 -181 990.5 -181 c 128,-1,23
 1021 -181 1021 -181 1045 -178 c 128,-1,24
 1069 -175 1069 -175 1096 -170 c 0,25,26
 1155 -157 1155 -157 1198 -138 c 1,27,-1
 1200 -274 l 1,28,29
 1138 -326 1138 -326 1006 -348 c 0,30,31
 965 -355 965 -355 910 -355 c 128,-1,32
 855 -355 855 -355 789 -334 c 0,33,34
 648 -291 648 -291 596 -167 c 0,35,36
 577 -122 577 -122 577 -81.5 c 128,-1,37
 577 -41 577 -41 580 -16 c 1,0,1
328 458 m 0,38,39
 386 102 386 102 649 102 c 0,40,41
 745 102 745 102 829 159 c 0,42,43
 1002 276 1002 276 1070 560 c 0,44,45
 1100 689 1100 689 1100 839 c 0,46,47
 1100 1133 1100 1133 1013 1280 c 128,-1,48
 926 1427 926 1427 767 1427 c 0,49,50
 640 1427 640 1427 530 1330 c 0,51,52
 367 1186 367 1186 320 903 c 0,53,54
 306 822 306 822 306 772 c 0,55,56
 306 591 306 591 328 458 c 0,38,39
EndSplineSet
EndChar

StartChar: R
Encoding: 82 82 75
Width: 1338
GlyphClass: 2
Flags: W
LayerCount: 2
Fore
SplineSet
620 672 m 1,0,-1
 539 670 l 1,1,-1
 430 670 l 1,2,-1
 367 116 l 1,3,-1
 552 87 l 1,4,-1
 544 0 l 1,5,-1
 40 0 l 1,6,-1
 49 86 l 1,7,-1
 177 116 l 1,8,-1
 338 1406 l 1,9,-1
 205 1429 l 1,10,-1
 217 1530 l 1,11,-1
 403 1530 l 1,12,-1
 695 1546 l 1,13,14
 947 1546 947 1546 1069 1460 c 0,15,16
 1195 1371 1195 1371 1195 1184 c 0,17,18
 1195 911 1195 911 986 768 c 0,19,20
 916 720 916 720 825 695 c 1,21,22
 920 634 920 634 988 448 c 0,23,24
 1065 236 1065 236 1108 181 c 128,-1,25
 1151 126 1151 126 1186.5 112 c 128,-1,26
 1222 98 1222 98 1247 98 c 128,-1,27
 1272 98 1272 98 1278 98 c 1,28,-1
 1274 -1 l 1,29,-1
 1048 1 l 2,30,31
 993 1 993 1 918 160 c 0,32,33
 887 227 887 227 833 367.5 c 128,-1,34
 779 508 779 508 750 561 c 0,35,36
 688 672 688 672 620 672 c 1,0,-1
445 789 m 1,37,38
 517 785 517 785 582 785 c 0,39,40
 739 785 739 785 811 819 c 0,41,42
 1000 908 1000 908 1000 1168 c 0,43,44
 1000 1308 1000 1308 934 1365 c 0,45,46
 862 1427 862 1427 679 1427 c 0,47,48
 623 1427 623 1427 528 1408 c 1,49,-1
 445 789 l 1,37,38
EndSplineSet
EndChar

StartChar: S
Encoding: 83 83 76
Width: 1094
GlyphClass: 2
Flags: W
LayerCount: 2
Fore
SplineSet
95 343 m 1,0,-1
 211 343 l 1,1,-1
 237 150 l 1,2,3
 320 92 320 92 465 92 c 0,4,5
 580 92 580 92 666 146 c 0,6,7
 781 218 781 218 781 352 c 0,8,9
 781 499 781 499 632 614 c 0,10,11
 586 650 586 650 530 686 c 128,-1,12
 474 722 474 722 414 764.5 c 128,-1,13
 354 807 354 807 306 859 c 0,14,15
 194 979 194 979 194 1131 c 0,16,17
 194 1318 194 1318 330 1434 c 1,18,19
 464 1550 464 1550 663 1550 c 0,20,21
 908 1550 908 1550 1036 1465 c 1,22,-1
 990 1203 l 1,23,-1
 884 1203 l 1,24,-1
 856 1382 l 1,25,26
 786 1433 786 1433 656 1433 c 0,27,28
 485 1433 485 1433 419 1312 c 0,29,30
 391 1260 391 1260 391 1194 c 128,-1,31
 391 1128 391 1128 409.5 1081.5 c 128,-1,32
 428 1035 428 1035 464 994 c 0,33,34
 520 928 520 928 614 869.5 c 128,-1,35
 708 811 708 811 766.5 770.5 c 128,-1,36
 825 730 825 730 872 680 c 0,37,38
 979 568 979 568 979 419 c 0,39,40
 979 216 979 216 832 96 c 1,41,42
 688 -23 688 -23 459 -23 c 0,43,44
 261 -23 261 -23 112 36 c 0,45,46
 72 51 72 51 54 65 c 1,47,-1
 95 343 l 1,0,-1
EndSplineSet
EndChar

StartChar: T
Encoding: 84 84 77
Width: 1225
GlyphClass: 2
Flags: W
LayerCount: 2
Fore
SplineSet
205 93 m 1,0,-1
 449 116 l 1,1,-1
 625 1423 l 1,2,-1
 299 1396 l 1,3,-1
 227 1153 l 1,4,-1
 113 1151 l 1,5,-1
 169 1530 l 1,6,-1
 1303 1530 l 1,7,-1
 1258 1150 l 1,8,-1
 1150 1137 l 1,9,-1
 1137 1397 l 1,10,-1
 824 1423 l 1,11,-1
 647 116 l 1,12,-1
 895 93 l 1,13,-1
 888 0 l 1,14,-1
 196 0 l 1,15,-1
 205 93 l 1,0,-1
EndSplineSet
EndChar

StartChar: U
Encoding: 85 85 78
Width: 1379
GlyphClass: 2
Flags: W
LayerCount: 2
Fore
SplineSet
406 11 m 0,0,1
 145 108 145 108 145 454 c 0,2,3
 145 518 145 518 153 593 c 1,4,-1
 260 1407 l 1,5,-1
 127 1430 l 1,6,-1
 139 1530 l 1,7,-1
 622 1530 l 1,8,-1
 611 1430 l 1,9,-1
 460 1405 l 1,10,-1
 356 610 l 1,11,12
 345 507 345 507 345 468 c 128,-1,13
 345 429 345 429 345 418 c 0,14,15
 348 255 348 255 421.5 172.5 c 128,-1,16
 495 90 495 90 627 90 c 0,17,18
 966 90 966 90 1027 626 c 1,19,-1
 1130 1405 l 1,20,-1
 997 1429 l 1,21,-1
 1008 1530 l 1,22,-1
 1440 1530 l 1,23,-1
 1429 1429 l 1,24,-1
 1305 1407 l 1,25,-1
 1201 627 l 1,26,27
 1135 119 1135 119 826 14 c 0,28,29
 725 -20 725 -20 607 -20 c 128,-1,30
 489 -20 489 -20 406 11 c 0,0,1
EndSplineSet
EndChar

StartChar: V
Encoding: 86 86 79
Width: 1225
GlyphClass: 2
Flags: W
LayerCount: 2
Fore
SplineSet
188 1406 m 1,0,-1
 75 1429 l 1,1,-1
 85 1530 l 1,2,-1
 566 1530 l 1,3,-1
 555 1429 l 1,4,-1
 404 1406 l 1,5,-1
 544 449 l 1,6,-1
 567 170 l 1,7,-1
 662 449 l 1,8,-1
 1075 1406 l 1,9,-1
 941 1430 l 1,10,-1
 951 1530 l 1,11,-1
 1361 1530 l 1,12,-1
 1351 1430 l 1,13,-1
 1247 1408 l 1,14,-1
 607 -9 l 1,15,-1
 434 -21 l 1,16,-1
 188 1406 l 1,0,-1
EndSplineSet
EndChar

StartChar: W
Encoding: 87 87 80
Width: 1819
GlyphClass: 2
Flags: W
LayerCount: 2
Fore
SplineSet
157 1407 m 1,0,-1
 33 1429 l 1,1,-1
 45 1530 l 1,2,-1
 534 1530 l 1,3,-1
 523 1429 l 1,4,-1
 367 1411 l 1,5,-1
 533 170 l 1,6,-1
 584 368 l 1,7,-1
 934 1290 l 1,8,-1
 920 1410 l 1,9,-1
 802 1429 l 1,10,-1
 813 1530 l 1,11,-1
 1296 1530 l 1,12,-1
 1275 1429 l 1,13,-1
 1126 1409 l 1,14,-1
 1231 436 l 1,15,-1
 1242 170 l 1,16,-1
 1311 398 l 1,17,-1
 1723 1406 l 1,18,-1
 1592 1429 l 1,19,-1
 1603 1530 l 1,20,-1
 2025 1530 l 1,21,-1
 2008 1429 l 1,22,-1
 1890 1407 l 1,23,-1
 1293 -10 l 1,24,-1
 1091 -10 l 1,25,-1
 976 1012 l 1,26,-1
 588 -10 l 1,27,-1
 381 -10 l 1,28,-1
 157 1407 l 1,0,-1
EndSplineSet
EndChar

StartChar: X
Encoding: 88 88 81
Width: 1294
GlyphClass: 2
Flags: W
LayerCount: 2
Fore
SplineSet
-52 87 m 1,0,-1
 70 115 l 1,1,-1
 569 768 l 1,2,-1
 268 1403 l 1,3,-1
 129 1429 l 1,4,-1
 139 1530 l 1,5,-1
 655 1530 l 1,6,-1
 644 1429 l 1,7,-1
 499 1407 l 1,8,-1
 701 897 l 1,9,-1
 1040 1406 l 1,10,-1
 900 1429 l 1,11,-1
 912 1530 l 1,12,-1
 1381 1530 l 1,13,-1
 1371 1429 l 1,14,-1
 1234 1407 l 1,15,-1
 764 776 l 1,16,-1
 1086 116 l 1,17,-1
 1240 87 l 1,18,-1
 1232 0 l 1,19,-1
 696 0 l 1,20,-1
 704 87 l 1,21,-1
 855 115 l 1,22,-1
 629 644 l 1,23,-1
 266 116 l 1,24,-1
 415 86 l 1,25,-1
 407 0 l 1,26,-1
 -62 0 l 1,27,-1
 -52 87 l 1,0,-1
EndSplineSet
EndChar

StartChar: Y
Encoding: 89 89 82
Width: 1173
GlyphClass: 2
Flags: W
LayerCount: 2
Fore
SplineSet
251 87 m 1,0,-1
 447 116 l 1,1,-1
 508 590 l 1,2,-1
 144 1406 l 1,3,-1
 40 1429 l 1,4,-1
 50 1530 l 1,5,-1
 539 1530 l 1,6,-1
 527 1429 l 1,7,-1
 367 1406 l 1,8,-1
 595 838 l 1,9,-1
 631 712 l 1,10,-1
 701 838 l 1,11,-1
 1036 1406 l 1,12,-1
 907 1429 l 1,13,-1
 918 1530 l 1,14,-1
 1330 1530 l 1,15,-1
 1319 1429 l 1,16,-1
 1223 1407 l 1,17,-1
 696 590 l 1,18,-1
 635 116 l 1,19,-1
 848 87 l 1,20,-1
 840 0 l 1,21,-1
 243 0 l 1,22,-1
 251 87 l 1,0,-1
EndSplineSet
EndChar

StartChar: Z
Encoding: 90 90 83
Width: 1213
GlyphClass: 2
Flags: W
LayerCount: 2
Fore
SplineSet
8 89 m 1,0,-1
 817 1217 l 1,1,-1
 986 1416 l 1,2,-1
 410 1409 l 1,3,-1
 315 1162 l 1,4,-1
 197 1186 l 1,5,-1
 253 1530 l 1,6,-1
 1191 1530 l 1,7,-1
 1216 1444 l 1,8,-1
 405 303 l 1,9,-1
 252 107 l 1,10,-1
 883 132 l 1,11,-1
 1008 384 l 1,12,-1
 1129 353 l 1,13,-1
 1036 0 l 1,14,-1
 35 0 l 1,15,-1
 8 89 l 1,0,-1
EndSplineSet
EndChar

StartChar: bracketleft
Encoding: 91 91 84
Width: 854
GlyphClass: 2
Flags: W
LayerCount: 2
Fore
SplineSet
180 -54 m 0,0,1
 180 133 180 133 214 373 c 128,-1,2
 248 613 248 613 268 740 c 128,-1,3
 288 867 288 867 308 994 c 0,4,5
 361 1328 361 1328 375.5 1441.5 c 128,-1,6
 390 1555 390 1555 405 1603.5 c 128,-1,7
 420 1652 420 1652 446 1681 c 0,8,9
 494 1735 494 1735 611 1735 c 0,10,11
 679 1735 679 1735 871 1688 c 1,12,-1
 858 1601 l 1,13,-1
 583 1601 l 1,14,-1
 360 -55 l 1,15,16
 426 -55 426 -55 497.5 -56 c 128,-1,17
 569 -57 569 -57 635 -57 c 1,18,19
 629 -101 629 -101 625 -143 c 1,20,21
 502 -179 502 -179 447.5 -184.5 c 128,-1,22
 393 -190 393 -190 349 -190 c 128,-1,23
 305 -190 305 -190 272 -183 c 128,-1,24
 239 -176 239 -176 218 -160 c 0,25,26
 180 -129 180 -129 180 -54 c 0,0,1
EndSplineSet
EndChar

StartChar: backslash
Encoding: 92 92 85
Width: 854
GlyphClass: 2
Flags: W
LayerCount: 2
Fore
SplineSet
126 1597 m 1,0,-1
 299 1597 l 1,1,-1
 876 -362 l 1,2,-1
 702 -362 l 1,3,-1
 126 1597 l 1,0,-1
EndSplineSet
EndChar

StartChar: asciicircum
Encoding: 94 94 87
Width: 1364
GlyphClass: 2
Flags: W
LayerCount: 2
Fore
SplineSet
688 1531 m 1,0,-1
 885 1531 l 1,1,-1
 1142 510 l 1,2,-1
 977 510 l 1,3,-1
 762 1302 l 1,4,-1
 342 510 l 1,5,-1
 177 510 l 1,6,-1
 688 1531 l 1,0,-1
EndSplineSet
EndChar

StartChar: underscore
Encoding: 95 95 88
Width: 1335
GlyphClass: 2
Flags: W
LayerCount: 2
Fore
SplineSet
1287 -187 m 1,0,-1
 1267 -338 l 1,1,-1
 -111 -338 l 1,2,-1
 -91 -187 l 1,3,-1
 1287 -187 l 1,0,-1
EndSplineSet
EndChar

StartChar: grave
Encoding: 96 96 89
Width: 541
GlyphClass: 2
Flags: W
LayerCount: 2
Fore
SplineSet
436 1251 m 1,0,1
 325 1298 325 1298 160 1450 c 0,2,3
 80 1523 80 1523 50 1576 c 1,4,-1
 203 1743 l 1,5,-1
 491 1311 l 1,6,-1
 436 1251 l 1,0,1
EndSplineSet
EndChar

StartChar: a
Encoding: 97 97 90
Width: 1173
GlyphClass: 2
Flags: W
LayerCount: 2
Fore
SplineSet
718 136 m 1,0,1
 588 -20 588 -20 413 -20 c 0,2,3
 251 -20 251 -20 164 102 c 0,4,5
 83 216 83 216 83 412 c 0,6,7
 83 574 83 574 160 743 c 0,8,9
 290 1031 290 1031 540 1128 c 0,10,11
 628 1162 628 1162 727.5 1162 c 128,-1,12
 827 1162 827 1162 929 1128 c 1,13,-1
 1048 1162 l 1,14,-1
 917 187 l 2,15,16
 912 146 912 146 923.5 128.5 c 128,-1,17
 935 111 935 111 953 111 c 128,-1,18
 971 111 971 111 1015 137 c 1,19,-1
 1046 84 l 1,20,21
 1013 31 1013 31 916 -6 c 0,22,23
 882 -20 882 -20 843 -20 c 0,24,25
 716 -20 716 -20 716 101 c 0,26,27
 716 108 716 108 716 115 c 2,28,-1
 718 136 l 1,0,1
832 1008 m 1,29,30
 785 1041 785 1041 707 1041 c 128,-1,31
 629 1041 629 1041 570.5 1013 c 128,-1,32
 512 985 512 985 466 938 c 128,-1,33
 420 891 420 891 386.5 829.5 c 128,-1,34
 353 768 353 768 331 701 c 0,35,36
 288 570 288 570 288 466.5 c 128,-1,37
 288 363 288 363 299 304.5 c 128,-1,38
 310 246 310 246 331 206 c 0,39,40
 374 122 374 122 450 122 c 0,41,42
 578 122 578 122 688 236 c 0,43,44
 719 268 719 268 740 298 c 1,45,-1
 832 1008 l 1,29,30
EndSplineSet
Substitution2: "Single Substitution lookup 16 subtable" ordfeminine
Substitution2: "'aalt' Access All Alternates in Latin lookup 0 subtable" ordfeminine
EndChar

StartChar: b
Encoding: 98 98 91
Width: 1188
GlyphClass: 2
Flags: W
LayerCount: 2
Fore
SplineSet
455 -20 m 0,0,1
 347 -20 347 -20 223 25 c 1,2,-1
 125 -20 l 1,3,-1
 323 1484 l 1,4,-1
 228 1527 l 1,5,-1
 249 1611 l 1,6,-1
 489 1650 l 1,7,-1
 540 1623 l 1,8,-1
 456 998 l 1,9,10
 542 1109 542 1109 666 1148 c 0,11,12
 710 1162 710 1162 778.5 1162 c 128,-1,13
 847 1162 847 1162 911 1129.5 c 128,-1,14
 975 1097 975 1097 1017 1040 c 0,15,16
 1100 926 1100 926 1100 730 c 0,17,18
 1100 474 1100 474 932 240 c 0,19,20
 746 -20 746 -20 455 -20 c 0,0,1
341 143 m 1,21,22
 394 101 394 101 478.5 101 c 128,-1,23
 563 101 563 101 620 129.5 c 128,-1,24
 677 158 677 158 721.5 206.5 c 128,-1,25
 766 255 766 255 798.5 317.5 c 128,-1,26
 831 380 831 380 852 448 c 0,27,28
 895 584 895 584 895 723.5 c 128,-1,29
 895 863 895 863 850 941.5 c 128,-1,30
 805 1020 805 1020 727 1020 c 0,31,32
 643 1020 643 1020 554 955 c 0,33,34
 480 901 480 901 433 829 c 1,35,-1
 341 143 l 1,21,22
EndSplineSet
EndChar

StartChar: c
Encoding: 99 99 92
Width: 903
GlyphClass: 2
Flags: W
LayerCount: 2
Fore
SplineSet
844 931 m 1,0,1
 747 1016 747 1016 629 1016 c 0,2,3
 495 1016 495 1016 398 866 c 1,4,5
 295 704 295 704 295 460 c 0,6,7
 295 203 295 203 416 139 c 0,8,9
 453 119 453 119 494.5 119 c 128,-1,10
 536 119 536 119 568 125.5 c 128,-1,11
 600 132 600 132 632 146 c 0,12,13
 693 173 693 173 774 232 c 1,14,-1
 813 151 l 1,15,16
 722 45 722 45 574 -2 c 0,17,18
 515 -21 515 -21 437 -21 c 128,-1,19
 359 -21 359 -21 292.5 9.5 c 128,-1,20
 226 40 226 40 180 98 c 0,21,22
 86 217 86 217 86 430 c 0,23,24
 86 688 86 688 236 912 c 1,25,26
 339 1064 339 1064 498 1129 c 0,27,28
 579 1162 579 1162 675 1162 c 0,29,30
 805 1162 805 1162 895 1115 c 1,31,-1
 844 931 l 1,0,1
EndSplineSet
EndChar

StartChar: d
Encoding: 100 100 93
Width: 1179
GlyphClass: 2
Flags: W
LayerCount: 2
Fore
SplineSet
844 -20 m 0,0,1
 724 -20 724 -20 724 103 c 0,2,3
 724 109 724 109 724 115 c 2,4,-1
 724 142 l 1,5,6
 636 33 636 33 510 -6 c 0,7,8
 464 -20 464 -20 396.5 -20 c 128,-1,9
 329 -20 329 -20 267 12.5 c 128,-1,10
 205 45 205 45 164 102 c 0,11,12
 83 216 83 216 83 412 c 0,13,14
 83 574 83 574 160 743 c 0,15,16
 290 1031 290 1031 540 1128 c 0,17,18
 628 1162 628 1162 710.5 1162 c 128,-1,19
 793 1162 793 1162 869 1144 c 1,20,-1
 920 1482 l 1,21,-1
 797 1525 l 1,22,-1
 818 1608 l 1,23,-1
 1082 1650 l 1,24,-1
 1135 1623 l 1,25,-1
 927 187 l 2,26,27
 916 111 916 111 948 111 c 0,28,29
 971 111 971 111 1015 137 c 1,30,-1
 1046 85 l 1,31,32
 1003 28 1003 28 916 -6 c 0,33,34
 882 -20 882 -20 844 -20 c 0,0,1
846 997 m 1,35,36
 795 1041 795 1041 712 1041 c 128,-1,37
 629 1041 629 1041 570.5 1012.5 c 128,-1,38
 512 984 512 984 466 935.5 c 128,-1,39
 420 887 420 887 386.5 824.5 c 128,-1,40
 353 762 353 762 331 694 c 0,41,42
 288 560 288 560 288 419.5 c 128,-1,43
 288 279 288 279 330.5 200.5 c 128,-1,44
 373 122 373 122 446 122 c 0,45,46
 570 122 570 122 686 238 c 0,47,48
 718 270 718 270 740 300 c 1,49,-1
 846 997 l 1,35,36
EndSplineSet
EndChar

StartChar: e
Encoding: 101 101 94
Width: 1051
GlyphClass: 2
Flags: W
LayerCount: 2
Fore
SplineSet
510 119 m 0,0,1
 693 119 693 119 850 265 c 1,2,-1
 896 182 l 1,3,4
 846 110 846 110 742 52 c 1,5,6
 617 -20 617 -20 498.5 -20 c 128,-1,7
 380 -20 380 -20 304 18 c 0,8,9
 154 92 154 92 106 263 c 0,10,11
 86 337 86 337 86 380 c 128,-1,12
 86 423 86 423 87.5 473.5 c 128,-1,13
 89 524 89 524 110.5 615 c 128,-1,14
 132 706 132 706 170 787.5 c 128,-1,15
 208 869 208 869 260.5 937.5 c 128,-1,16
 313 1006 313 1006 378 1056 c 0,17,18
 516 1162 516 1162 676 1162 c 0,19,20
 885 1162 885 1162 942 1012 c 0,21,22
 960 966 960 966 960 901 c 128,-1,23
 960 836 960 836 924 772.5 c 128,-1,24
 888 709 888 709 830 659 c 128,-1,25
 772 609 772 609 699 572.5 c 128,-1,26
 626 536 626 536 552 512 c 0,27,28
 403 462 403 462 295 460 c 1,29,30
 293 439 293 439 293 421 c 128,-1,31
 293 403 293 403 294 378 c 128,-1,32
 295 353 295 353 304 315 c 128,-1,33
 313 277 313 277 329 241.5 c 128,-1,34
 345 206 345 206 370 179 c 0,35,36
 426 119 426 119 510 119 c 0,0,1
300 570 m 1,37,38
 446 577 446 577 588 660 c 0,39,40
 689 718 689 718 732 802 c 0,41,42
 755 845 755 845 755 910 c 128,-1,43
 755 975 755 975 720 1010.5 c 128,-1,44
 685 1046 685 1046 631.5 1046 c 128,-1,45
 578 1046 578 1046 535 1022.5 c 128,-1,46
 492 999 492 999 457.5 960 c 128,-1,47
 423 921 423 921 395.5 871 c 128,-1,48
 368 821 368 821 348 768 c 0,49,50
 312 668 312 668 300 570 c 1,37,38
EndSplineSet
EndChar

StartChar: f
Encoding: 102 102 95
Width: 705
GlyphClass: 2
Flags: W
LayerCount: 2
Fore
SplineSet
825 1476 m 1,0,1
 756 1524 756 1524 700 1524 c 128,-1,2
 644 1524 644 1524 614 1503 c 128,-1,3
 584 1482 584 1482 562 1445 c 0,4,5
 519 1375 519 1375 502 1243 c 2,6,-1
 490 1147 l 1,7,-1
 725 1147 l 1,8,-1
 709 1004 l 1,9,-1
 472 1004 l 1,10,-1
 339 -59 l 2,11,12
 313 -261 313 -261 208 -386 c 0,13,14
 102 -513 102 -513 -62 -513 c 0,15,16
 -154 -513 -154 -513 -205 -500 c 1,17,-1
 -152 -332 l 1,18,19
 -57 -370 -57 -370 13 -370 c 0,20,21
 99 -370 99 -370 132 -127 c 1,22,-1
 269 1004 l 1,23,-1
 130 1004 l 1,24,-1
 145 1079 l 1,25,-1
 294 1141 l 1,26,-1
 307 1220 l 1,27,28
 336 1403 336 1403 462 1538 c 0,29,30
 586 1670 586 1670 726 1670 c 0,31,32
 826 1670 826 1670 884 1644 c 1,33,-1
 825 1476 l 1,0,1
EndSplineSet
EndChar

StartChar: g
Encoding: 103 103 96
Width: 1153
GlyphClass: 2
Flags: W
LayerCount: 2
Fore
SplineSet
540 1128 m 0,0,1
 628 1162 628 1162 726.5 1162 c 128,-1,2
 825 1162 825 1162 948 1121 c 1,3,-1
 1068 1162 l 1,4,-1
 875 -77 l 1,5,6
 842 -296 842 -296 662 -411 c 0,7,8
 511 -508 511 -508 338 -508 c 0,9,10
 207 -508 207 -508 119 -473 c 1,11,-1
 169 -288 l 1,12,13
 299 -350 299 -350 436 -350 c 0,14,15
 563 -350 563 -350 608 -310 c 0,16,17
 651 -271 651 -271 671 -145 c 2,18,-1
 716 133 l 1,19,20
 630 30 630 30 506 -7 c 0,21,22
 462 -20 462 -20 395.5 -20 c 128,-1,23
 329 -20 329 -20 267 12.5 c 128,-1,24
 205 45 205 45 164 102 c 0,25,26
 83 216 83 216 83 412 c 0,27,28
 83 574 83 574 160 743 c 0,29,30
 290 1031 290 1031 540 1128 c 0,0,1
843 1000 m 1,31,32
 791 1041 791 1041 710 1041 c 128,-1,33
 629 1041 629 1041 570.5 1012.5 c 128,-1,34
 512 984 512 984 466 935.5 c 128,-1,35
 420 887 420 887 386.5 824.5 c 128,-1,36
 353 762 353 762 331 694 c 0,37,38
 288 560 288 560 288 419.5 c 128,-1,39
 288 279 288 279 330.5 200.5 c 128,-1,40
 373 122 373 122 446 122 c 0,41,42
 570 122 570 122 688 240 c 0,43,44
 720 272 720 272 742 302 c 1,45,-1
 843 1000 l 1,31,32
EndSplineSet
EndChar

StartChar: h
Encoding: 104 104 97
Width: 1239
GlyphClass: 2
Flags: W
LayerCount: 2
Fore
SplineSet
890 -21 m 0,0,1
 760 -21 760 -21 767 111 c 0,2,3
 772 197 772 197 790.5 299 c 128,-1,4
 809 401 809 401 816.5 444 c 128,-1,5
 824 487 824 487 834 538.5 c 128,-1,6
 844 590 844 590 852 644 c 0,7,8
 872 766 872 766 872 835 c 128,-1,9
 872 904 872 904 864 935 c 128,-1,10
 856 966 856 966 842 982 c 0,11,12
 820 1005 820 1005 769.5 1005 c 128,-1,13
 719 1005 719 1005 674 985.5 c 128,-1,14
 629 966 629 966 584 932 c 0,15,16
 487 859 487 859 413 750 c 1,17,-1
 313 0 l 1,18,-1
 119 0 l 1,19,-1
 312 1482 l 1,20,-1
 194 1525 l 1,21,-1
 211 1608 l 1,22,-1
 477 1650 l 1,23,-1
 529 1623 l 1,24,-1
 434 911 l 1,25,26
 565 1086 565 1086 730 1142 c 0,27,28
 787 1162 787 1162 842.5 1162 c 128,-1,29
 898 1162 898 1162 939.5 1146.5 c 128,-1,30
 981 1131 981 1131 1010 1096 c 0,31,32
 1072 1023 1072 1023 1072 861 c 0,33,34
 1072 772 1072 772 1050.5 659.5 c 128,-1,35
 1029 547 1029 547 1018 488 c 0,36,37
 966 188 966 188 978 130 c 0,38,39
 983 110 983 110 1000.5 110 c 128,-1,40
 1018 110 1018 110 1064 136 c 1,41,-1
 1095 84 l 1,42,43
 1062 31 1062 31 963 -8 c 0,44,45
 928 -21 928 -21 890 -21 c 0,0,1
EndSplineSet
EndChar

StartChar: k
Encoding: 107 107 100
Width: 1078
GlyphClass: 2
Flags: W
LayerCount: 2
Fore
SplineSet
298 1482 m 1,0,-1
 181 1525 l 1,1,-1
 197 1608 l 1,2,-1
 463 1650 l 1,3,-1
 515 1623 l 1,4,-1
 299 0 l 1,5,-1
 105 0 l 1,6,-1
 298 1482 l 1,0,-1
891 147.5 m 128,-1,8
 924 121 924 121 952 121 c 128,-1,9
 980 121 980 121 1018 140 c 1,10,-1
 1052 79 l 1,11,12
 1009 18 1009 18 903 -10 c 0,13,14
 869 -19 869 -19 831 -19 c 0,15,16
 743 -19 743 -19 688 88 c 1,17,-1
 396 610 l 1,18,-1
 398 611 l 1,19,-1
 396 611 l 1,20,21
 447 650 447 650 492.5 683 c 128,-1,22
 538 716 538 716 580 750 c 0,23,24
 671 823 671 823 733 906 c 0,25,26
 769 955 769 955 775 992.5 c 128,-1,27
 781 1030 781 1030 785 1052 c 128,-1,28
 789 1074 789 1074 804.5 1094 c 128,-1,29
 820 1114 820 1114 841 1128 c 0,30,31
 884 1155 884 1155 923 1155 c 0,32,33
 998 1155 998 1155 1018 1091 c 0,34,35
 1024 1073 1024 1073 1024 1056 c 0,36,37
 1024 1000 1024 1000 989 949 c 128,-1,38
 954 898 954 898 898.5 848.5 c 128,-1,39
 843 799 843 799 783 755 c 0,40,41
 717 706 717 706 572 615 c 1,42,-1
 831 216 l 2,43,7
 858 174 858 174 891 147.5 c 128,-1,8
EndSplineSet
EndChar

StartChar: l
Encoding: 108 108 101
Width: 606
GlyphClass: 2
Flags: W
LayerCount: 2
Fore
SplineSet
257 -20 m 0,0,1
 142 -20 142 -20 142 102 c 0,2,3
 142 108 142 108 142 115 c 2,4,-1
 148 192 l 1,5,-1
 332 1482 l 1,6,-1
 209 1525 l 1,7,-1
 230 1608 l 1,8,-1
 492 1650 l 1,9,-1
 540 1623 l 1,10,-1
 338 187 l 1,11,12
 334 111 334 111 358.5 111 c 128,-1,13
 383 111 383 111 427 137 c 1,14,-1
 458 85 l 1,15,16
 415 28 415 28 328 -6 c 0,17,18
 294 -20 294 -20 257 -20 c 0,0,1
EndSplineSet
EndChar

StartChar: m
Encoding: 109 109 102
Width: 1882
GlyphClass: 2
Flags: W
LayerCount: 2
Fore
SplineSet
1534 -20 m 0,0,1
 1415 -20 1415 -20 1415 101 c 0,2,3
 1415 105 1415 105 1417 144 c 0,4,5
 1424 239 1424 239 1452 415.5 c 128,-1,6
 1480 592 1480 592 1488 644 c 0,7,8
 1505 767 1505 767 1505 835 c 128,-1,9
 1505 903 1505 903 1496.5 934 c 128,-1,10
 1488 965 1488 965 1474 980 c 0,11,12
 1453 1003 1453 1003 1409.5 1003 c 128,-1,13
 1366 1003 1366 1003 1324.5 984 c 128,-1,14
 1283 965 1283 965 1240 932 c 0,15,16
 1155 866 1155 866 1079 758 c 1,17,18
 1070 649 1070 649 1048 505 c 1,19,-1
 984 0 l 1,20,-1
 787 0 l 1,21,-1
 843 443 l 1,22,23
 884 701 884 701 884 802.5 c 128,-1,24
 884 904 884 904 877 935 c 128,-1,25
 870 966 870 966 856 982 c 0,26,27
 835 1005 835 1005 786 1005 c 128,-1,28
 737 1005 737 1005 692.5 986 c 128,-1,29
 648 967 648 967 603 933 c 0,30,31
 508 861 508 861 432 755 c 1,32,-1
 330 0 l 1,33,-1
 135 0 l 1,34,-1
 263 943 l 1,35,-1
 271 941 l 1,36,-1
 164 1005 l 1,37,-1
 182 1094 l 1,38,-1
 424 1146 l 1,39,-1
 472 1122 l 1,40,-1
 455 926 l 1,41,42
 588 1089 588 1089 752 1144 c 0,43,44
 807 1162 807 1162 858.5 1162 c 128,-1,45
 910 1162 910 1162 948.5 1149.5 c 128,-1,46
 987 1137 987 1137 1015 1108 c 0,47,48
 1072 1047 1072 1047 1082 915 c 1,49,50
 1213 1087 1213 1087 1368 1142 c 0,51,52
 1422 1162 1422 1162 1474.5 1162 c 128,-1,53
 1527 1162 1527 1162 1568.5 1145 c 128,-1,54
 1610 1128 1610 1128 1640 1092 c 0,55,56
 1704 1015 1704 1015 1704 861 c 0,57,58
 1704 782 1704 782 1684.5 666 c 128,-1,59
 1665 550 1665 550 1655 488 c 0,60,61
 1628 320 1628 320 1621 235.5 c 128,-1,62
 1614 151 1614 151 1618 131 c 128,-1,63
 1622 111 1622 111 1641.5 111 c 128,-1,64
 1661 111 1661 111 1705 137 c 1,65,-1
 1736 85 l 1,66,67
 1693 28 1693 28 1606 -6 c 0,68,69
 1572 -20 1572 -20 1534 -20 c 0,0,1
EndSplineSet
EndChar

StartChar: n
Encoding: 110 110 103
Width: 1258
GlyphClass: 2
Flags: W
LayerCount: 2
Fore
SplineSet
907 -21 m 0,0,1
 777 -21 777 -21 784 111 c 0,2,3
 789 197 789 197 807.5 299 c 128,-1,4
 826 401 826 401 833.5 444 c 128,-1,5
 841 487 841 487 851 538.5 c 128,-1,6
 861 590 861 590 870 644 c 0,7,8
 889 766 889 766 889 835 c 128,-1,9
 889 904 889 904 881 935 c 128,-1,10
 873 966 873 966 858 982 c 0,11,12
 837 1005 837 1005 787 1005 c 128,-1,13
 737 1005 737 1005 692.5 986 c 128,-1,14
 648 967 648 967 603 933 c 0,15,16
 508 861 508 861 432 755 c 1,17,-1
 330 0 l 1,18,-1
 135 0 l 1,19,-1
 263 943 l 1,20,-1
 271 941 l 1,21,-1
 164 1005 l 1,22,-1
 182 1094 l 1,23,-1
 424 1146 l 1,24,-1
 472 1122 l 1,25,-1
 455 926 l 1,26,27
 588 1089 588 1089 752 1144 c 0,28,29
 807 1162 807 1162 861 1162 c 128,-1,30
 915 1162 915 1162 956.5 1146.5 c 128,-1,31
 998 1131 998 1131 1028 1096 c 0,32,33
 1089 1023 1089 1023 1089 861 c 0,34,35
 1089 772 1089 772 1067.5 659.5 c 128,-1,36
 1046 547 1046 547 1036 488 c 0,37,38
 983 188 983 188 996 130 c 0,39,40
 1000 110 1000 110 1018.5 110 c 128,-1,41
 1037 110 1037 110 1081 136 c 1,42,-1
 1112 84 l 1,43,44
 1079 31 1079 31 980 -8 c 0,45,46
 945 -21 945 -21 907 -21 c 0,0,1
EndSplineSet
EndChar

StartChar: o
Encoding: 111 111 104
Width: 1143
GlyphClass: 2
Flags: W
LayerCount: 2
Fore
SplineSet
315 11 m 0,0,1
 87 108 87 108 87 457 c 0,2,3
 87 626 87 626 157 788 c 0,4,5
 270 1048 270 1048 495 1134 c 0,6,7
 570 1162 570 1162 659.5 1162 c 128,-1,8
 749 1162 749 1162 822 1131 c 128,-1,9
 895 1100 895 1100 946 1042 c 1,10,11
 1051 919 1051 919 1051 693 c 0,12,13
 1051 416 1051 416 896 206 c 0,14,15
 792 66 792 66 642 8 c 0,16,17
 567 -20 567 -20 477.5 -20 c 128,-1,18
 388 -20 388 -20 315 11 c 0,0,1
422 126 m 0,19,20
 463 102 463 102 519 102 c 128,-1,21
 575 102 575 102 621.5 128.5 c 128,-1,22
 668 155 668 155 704.5 200.5 c 128,-1,23
 741 246 741 246 768 306 c 0,24,25
 842 475 842 475 842 687 c 0,26,27
 842 945 842 945 714 1018 c 0,28,29
 673 1041 673 1041 617 1041 c 128,-1,30
 561 1041 561 1041 514.5 1014.5 c 128,-1,31
 468 988 468 988 431.5 942.5 c 128,-1,32
 395 897 395 897 368 837 c 0,33,34
 294 668 294 668 294 456 c 0,35,36
 294 198 294 198 422 126 c 0,19,20
EndSplineSet
Substitution2: "Single Substitution lookup 16 subtable" ordmasculine
Substitution2: "'aalt' Access All Alternates in Latin lookup 0 subtable" ordmasculine
EndChar

StartChar: p
Encoding: 112 112 105
Width: 1160
GlyphClass: 2
Flags: W
LayerCount: 2
Fore
SplineSet
622 14 m 0,0,1
 535 -20 535 -20 455 -20 c 128,-1,2
 375 -20 375 -20 300 -4 c 1,3,-1
 229 -520 l 1,4,-1
 39 -520 l 1,5,-1
 237 963 l 1,6,-1
 246 961 l 1,7,-1
 129 1015 l 1,8,-1
 147 1094 l 1,9,-1
 409 1146 l 1,10,-1
 456 1122 l 1,11,-1
 442 1015 l 1,12,13
 564 1162 564 1162 732 1162 c 256,14,15
 900 1162 900 1162 989 1040 c 0,16,17
 1072 926 1072 926 1072 730 c 0,18,19
 1072 474 1072 474 904 240 c 0,20,21
 789 79 789 79 622 14 c 0,0,1
320 137 m 1,22,23
 372 101 372 101 453.5 101 c 128,-1,24
 535 101 535 101 592 129.5 c 128,-1,25
 649 158 649 158 693.5 206.5 c 128,-1,26
 738 255 738 255 770.5 317.5 c 128,-1,27
 803 380 803 380 824 448 c 0,28,29
 867 584 867 584 867 723.5 c 128,-1,30
 867 863 867 863 822 941.5 c 128,-1,31
 777 1020 777 1020 699 1020 c 0,32,33
 584 1020 584 1020 472 909 c 0,34,35
 441 879 441 879 419 849 c 1,36,-1
 320 137 l 1,22,23
EndSplineSet
EndChar

StartChar: q
Encoding: 113 113 106
Width: 1155
GlyphClass: 2
Flags: W
LayerCount: 2
Fore
SplineSet
712 129 m 1,0,1
 584 -20 584 -20 413 -20 c 0,2,3
 251 -20 251 -20 164 102 c 0,4,5
 83 216 83 216 83 412 c 0,6,7
 83 574 83 574 160 743 c 0,8,9
 290 1031 290 1031 540 1128 c 0,10,11
 628 1162 628 1162 727 1162 c 128,-1,12
 826 1162 826 1162 946 1122 c 1,13,-1
 1037 1132 l 1,14,-1
 847 -311 l 1,15,16
 840 -354 840 -354 851 -371 c 128,-1,17
 862 -388 862 -388 868 -388 c 0,18,19
 893 -388 893 -388 936 -361 c 1,20,-1
 967 -414 l 1,21,22
 926 -468 926 -468 832 -504 c 0,23,24
 797 -518 797 -518 760 -518 c 0,25,26
 646 -518 646 -518 646 -397 c 0,27,28
 646 -391 646 -391 646 -384 c 2,29,-1
 712 129 l 1,0,1
832 1008 m 1,30,31
 783 1041 783 1041 706 1041 c 128,-1,32
 629 1041 629 1041 570.5 1012.5 c 128,-1,33
 512 984 512 984 466 935.5 c 128,-1,34
 420 887 420 887 386.5 824.5 c 128,-1,35
 353 762 353 762 331 694 c 0,36,37
 288 560 288 560 288 419.5 c 128,-1,38
 288 279 288 279 330.5 200.5 c 128,-1,39
 373 122 373 122 446 122 c 0,40,41
 566 122 566 122 679 231 c 0,42,43
 710 261 710 261 733 291 c 1,44,-1
 826 1001 l 1,45,-1
 832 1008 l 1,30,31
EndSplineSet
EndChar

StartChar: r
Encoding: 114 114 107
Width: 836
GlyphClass: 2
Flags: W
LayerCount: 2
Fore
SplineSet
255 943 m 1,0,-1
 263 941 l 1,1,-1
 156 1005 l 1,2,-1
 174 1094 l 1,3,-1
 416 1146 l 1,4,-1
 464 1122 l 1,5,-1
 446 917 l 1,6,7
 545 1088 545 1088 700 1144 c 0,8,9
 751 1162 751 1162 786 1162 c 0,10,11
 854 1162 854 1162 867 1149 c 1,12,-1
 823 941 l 1,13,14
 795 955 795 955 739.5 955 c 128,-1,15
 684 955 684 955 644 943.5 c 128,-1,16
 604 932 604 932 564 904 c 0,17,18
 475 842 475 842 422 721 c 1,19,-1
 330 0 l 1,20,-1
 135 0 l 1,21,-1
 255 943 l 1,0,-1
EndSplineSet
EndChar

StartChar: s
Encoding: 115 115 108
Width: 885
GlyphClass: 2
Flags: W
LayerCount: 2
Fore
SplineSet
83 190 m 1,0,1
 151 143 151 143 264 122 c 0,2,3
 306 115 306 115 344.5 115 c 128,-1,4
 383 115 383 115 418 119 c 128,-1,5
 453 123 453 123 482 138 c 0,6,7
 550 171 550 171 550 259 c 0,8,9
 550 361 550 361 438 448 c 0,10,11
 407 472 407 472 377.5 494.5 c 128,-1,12
 348 517 348 517 312.5 550.5 c 128,-1,13
 277 584 277 584 244 628 c 0,14,15
 166 734 166 734 166 826 c 128,-1,16
 166 918 166 918 197.5 977.5 c 128,-1,17
 229 1037 229 1037 282 1078 c 0,18,19
 391 1162 391 1162 550 1162 c 0,20,21
 662 1162 662 1162 728 1147 c 128,-1,22
 794 1132 794 1132 806 1126 c 1,23,-1
 768 959 l 1,24,25
 742 997 742 997 628 1024 c 0,26,27
 588 1034 588 1034 548.5 1034 c 128,-1,28
 509 1034 509 1034 478 1028 c 128,-1,29
 447 1022 447 1022 422 1006 c 0,30,31
 354 965 354 965 354 876 c 0,32,33
 354 761 354 761 513 640 c 0,34,35
 613 563 613 563 655 509 c 0,36,37
 737 403 737 403 737 308.5 c 128,-1,38
 737 214 737 214 704.5 155.5 c 128,-1,39
 672 97 672 97 618 58 c 0,40,41
 508 -20 508 -20 341 -20 c 0,42,43
 193 -20 193 -20 90 17 c 0,44,45
 60 28 60 28 47 39 c 1,46,-1
 83 190 l 1,0,1
EndSplineSet
EndChar

StartChar: t
Encoding: 116 116 109
Width: 735
GlyphClass: 2
Flags: W
LayerCount: 2
Fore
SplineSet
164.5 73 m 128,-1,1
 150 110 150 110 150 172.5 c 128,-1,2
 150 235 150 235 251 1007 c 1,3,-1
 131 1007 l 1,4,-1
 151 1094 l 1,5,-1
 274 1141 l 1,6,7
 315 1189 315 1189 351 1285.5 c 128,-1,8
 387 1382 387 1382 400 1416 c 1,9,-1
 504 1416 l 1,10,-1
 468 1146 l 1,11,-1
 730 1146 l 1,12,-1
 710 1007 l 1,13,-1
 451 1007 l 1,14,15
 431 853 431 853 410 698.5 c 128,-1,16
 389 544 389 544 376 438 c 0,17,18
 353 263 353 263 353 223.5 c 128,-1,19
 353 184 353 184 356.5 166 c 128,-1,20
 360 148 360 148 369 138 c 0,21,22
 408 92 408 92 537 142 c 0,23,24
 597 166 597 166 629 190 c 1,25,-1
 647 102 l 1,26,27
 587 29 587 29 422 -9 c 0,28,29
 375 -20 375 -20 335 -20 c 128,-1,30
 295 -20 295 -20 262 -12.5 c 128,-1,31
 229 -5 229 -5 204 15.5 c 128,-1,0
 179 36 179 36 164.5 73 c 128,-1,1
EndSplineSet
EndChar

StartChar: u
Encoding: 117 117 110
Width: 1207
GlyphClass: 2
Flags: W
LayerCount: 2
Fore
SplineSet
430 -20 m 0,0,1
 165 -20 165 -20 165 255 c 0,2,3
 165 334 165 334 200 597 c 2,4,-1
 247 946 l 1,5,-1
 149 1005 l 1,6,-1
 167 1094 l 1,7,-1
 409 1146 l 1,8,-1
 457 1122 l 1,9,-1
 391 589 l 1,10,11
 361 364 361 364 361 299 c 128,-1,12
 361 234 361 234 371 201 c 128,-1,13
 381 168 381 168 400 150 c 0,14,15
 433 117 433 117 485.5 117 c 128,-1,16
 538 117 538 117 573.5 127.5 c 128,-1,17
 609 138 609 138 642 156 c 0,18,19
 709 192 709 192 761 246 c 1,20,-1
 881 1155 l 1,21,-1
 1074 1155 l 1,22,-1
 949 189 l 2,23,24
 947 171 947 171 947 157 c 0,25,26
 947 113 947 113 970 113 c 128,-1,27
 993 113 993 113 1037 140 c 1,28,-1
 1068 87 l 1,29,30
 1026 32 1026 32 933 -4 c 0,31,32
 898 -18 898 -18 861 -18 c 0,33,34
 741 -18 741 -18 741 85 c 0,35,36
 741 97 741 97 743 111 c 1,37,38
 612 -20 612 -20 430 -20 c 0,0,1
EndSplineSet
EndChar

StartChar: v
Encoding: 118 118 111
Width: 1057
GlyphClass: 2
Flags: W
LayerCount: 2
Fore
SplineSet
870 1155 m 0,0,1
 998 1155 998 1155 998 955 c 0,2,3
 998 784 998 784 768 418 c 0,4,5
 735 367 735 367 707 322 c 1,6,-1
 473 -9 l 1,7,-1
 322 -21 l 1,8,-1
 168 958 l 1,9,10
 154 1033 154 1033 98 1008 c 0,11,12
 83 1002 83 1002 66 991 c 1,13,-1
 37 1051 l 1,14,15
 72 1106 72 1106 162 1142 c 0,16,17
 195 1156 195 1156 233 1156 c 0,18,19
 334 1156 334 1156 356 1078 c 0,20,21
 363 1052 363 1052 366 1019 c 2,22,-1
 433 355 l 1,23,-1
 445 170 l 1,24,-1
 559 338 l 1,25,26
 664 506 664 506 700 583 c 1,27,28
 772 731 772 731 803 891 c 1,29,30
 810 933 810 933 792.5 982 c 128,-1,31
 775 1031 775 1031 775 1067 c 128,-1,32
 775 1103 775 1103 801.5 1129 c 128,-1,33
 828 1155 828 1155 870 1155 c 0,0,1
EndSplineSet
EndChar

StartChar: w
Encoding: 119 119 112
Width: 1698
GlyphClass: 2
Flags: W
LayerCount: 2
Fore
SplineSet
1511 1155 m 0,0,1
 1639 1155 1639 1155 1639 955 c 0,2,3
 1639 815 1639 815 1478 528 c 0,4,5
 1448 474 1448 474 1418.5 421.5 c 128,-1,6
 1389 369 1389 369 1365 322 c 1,7,-1
 1159 -9 l 1,8,-1
 972 -20 l 1,9,-1
 934 355 l 1,10,-1
 902 737 l 1,11,-1
 895 874 l 1,12,-1
 846 736 l 1,13,-1
 649 322 l 1,14,-1
 483 -9 l 1,15,-1
 315 -21 l 1,16,-1
 256 355 l 1,17,-1
 171 957 l 1,18,19
 154 1046 154 1046 67 990 c 1,20,-1
 37 1050 l 1,21,22
 81 1108 81 1108 164 1142 c 0,23,24
 198 1155 198 1155 237 1155 c 0,25,26
 339 1155 339 1155 362 1076 c 0,27,28
 370 1051 370 1051 373 1018 c 2,29,-1
 425 340 l 1,30,-1
 436 155 l 1,31,-1
 513 323 l 1,32,-1
 866 1146 l 1,33,-1
 1030 1146 l 1,34,-1
 1118 155 l 1,35,-1
 1229 323 l 1,36,37
 1358 565 1358 565 1407 732 c 0,38,39
 1453 889 1453 889 1446.5 924 c 128,-1,40
 1440 959 1440 959 1434 978 c 128,-1,41
 1428 997 1428 997 1422 1014 c 128,-1,42
 1416 1031 1416 1031 1416 1067 c 128,-1,43
 1416 1103 1416 1103 1442.5 1129 c 128,-1,44
 1469 1155 1469 1155 1511 1155 c 0,0,1
EndSplineSet
EndChar

StartChar: x
Encoding: 120 120 113
Width: 1008
GlyphClass: 2
Flags: W
LayerCount: 2
Fore
SplineSet
797 124.5 m 128,-1,1
 807 111 807 111 825.5 111 c 128,-1,2
 844 111 844 111 886 137 c 1,3,-1
 921 83 l 1,4,5
 897 35 897 35 795 -6 c 0,6,7
 762 -20 762 -20 727.5 -20 c 128,-1,8
 693 -20 693 -20 672 -12.5 c 128,-1,9
 651 -5 651 -5 636 9 c 0,10,11
 616 29 616 29 595 85 c 2,12,-1
 462 432 l 1,13,-1
 178 0 l 1,14,-1
 -31 0 l 1,15,-1
 398 586 l 1,16,-1
 215 975 l 2,17,18
 201 1004 201 1004 191 1017.5 c 128,-1,19
 181 1031 181 1031 164 1031 c 128,-1,20
 147 1031 147 1031 101 1005 c 1,21,-1
 67 1059 l 1,22,23
 81 1084 81 1084 122 1110 c 0,24,25
 205 1162 205 1162 253 1162 c 128,-1,26
 301 1162 301 1162 322.5 1155 c 128,-1,27
 344 1148 344 1148 358 1135 c 0,28,29
 378 1116 378 1116 399 1058 c 1,30,-1
 513 717 l 1,31,-1
 805 1155 l 1,32,-1
 1017 1155 l 1,33,-1
 576 560 l 1,34,-1
 773 167 l 2,35,0
 787 138 787 138 797 124.5 c 128,-1,1
EndSplineSet
EndChar

StartChar: y
Encoding: 121 121 114
Width: 1071
GlyphClass: 2
Flags: W
LayerCount: 2
Fore
SplineSet
885 1155 m 0,0,1
 1013 1155 1013 1155 1013 955 c 0,2,3
 1013 793 1013 793 837 474 c 0,4,5
 792 393 792 393 737.5 285 c 128,-1,6
 683 177 683 177 626 66.5 c 128,-1,7
 569 -44 569 -44 524 -126 c 0,8,9
 435 -285 435 -285 375 -357 c 1,10,11
 309 -452 309 -452 149 -492 c 0,12,13
 94 -505 94 -505 30 -505 c 0,14,15
 -58 -505 -58 -505 -143 -468 c 1,16,-1
 -93 -303 l 1,17,18
 -86 -306 -86 -306 -71 -315.5 c 128,-1,19
 -56 -325 -56 -325 -34 -335 c 0,20,21
 23 -360 23 -360 66 -360 c 128,-1,22
 109 -360 109 -360 142 -351.5 c 128,-1,23
 175 -343 175 -343 210 -320 c 0,24,25
 289 -268 289 -268 353 -152 c 1,26,-1
 166 958 l 1,27,28
 157 989 157 989 149 1001.5 c 128,-1,29
 141 1014 141 1014 121.5 1014 c 128,-1,30
 102 1014 102 1014 64 991 c 1,31,-1
 35 1051 l 1,32,33
 68 1104 68 1104 163 1142 c 0,34,35
 196 1156 196 1156 232 1156 c 128,-1,36
 268 1156 268 1156 291.5 1146.5 c 128,-1,37
 315 1137 315 1137 330 1119 c 1,38,39
 352 1090 352 1090 364 1019 c 1,40,-1
 449 295 l 1,41,-1
 471 29 l 1,42,-1
 611 338 l 1,43,44
 643 414 643 414 673.5 477.5 c 128,-1,45
 704 541 704 541 731 604 c 0,46,47
 791 744 791 744 818 891 c 1,48,49
 824 931 824 931 813 964 c 128,-1,50
 802 997 802 997 796 1014 c 128,-1,51
 790 1031 790 1031 790 1067 c 128,-1,52
 790 1103 790 1103 816.5 1129 c 128,-1,53
 843 1155 843 1155 885 1155 c 0,0,1
EndSplineSet
EndChar

StartChar: z
Encoding: 122 122 115
Width: 1058
GlyphClass: 2
Flags: W
LayerCount: 2
Fore
SplineSet
756.5 1133 m 128,-1,1
 824 1128 824 1128 882.5 1128 c 128,-1,2
 941 1128 941 1128 981 1162 c 1,3,-1
 1039 1102 l 1,4,-1
 389 296 l 1,5,-1
 261 153 l 1,6,-1
 673 153 l 2,7,8
 742 153 742 153 796.5 200 c 128,-1,9
 851 247 851 247 861 315 c 1,10,-1
 923 315 l 1,11,12
 923 165 923 165 876 50 c 0,13,14
 861 11 861 11 844 0 c 0,15,16
 808 -23 808 -23 746 -23 c 128,-1,17
 684 -23 684 -23 606.5 -18 c 128,-1,18
 529 -13 529 -13 449 -6 c 0,19,20
 246 10 246 10 204 10 c 0,21,22
 131 10 131 10 95 -10 c 1,23,-1
 78 -23 l 1,24,-1
 10 39 l 1,25,-1
 652 827 l 1,26,-1
 790 979 l 1,27,-1
 406 980 l 2,28,29
 299 980 299 980 244 882 c 0,30,31
 227 853 227 853 222 819 c 1,32,-1
 159 819 l 1,33,34
 159 1010 159 1010 214 1110 c 0,35,36
 225 1131 225 1131 238 1140 c 0,37,38
 270 1161 270 1161 332.5 1161 c 128,-1,39
 395 1161 395 1161 468 1156 c 128,-1,40
 541 1151 541 1151 615 1144.5 c 128,-1,0
 689 1138 689 1138 756.5 1133 c 128,-1,1
EndSplineSet
EndChar

StartChar: braceleft
Encoding: 123 123 116
Width: 1024
GlyphClass: 2
Flags: W
LayerCount: 2
Fore
SplineSet
1006 1688 m 1,0,1
 993 1606 993 1606 993 1601 c 1,2,-1
 717 1601 l 1,3,-1
 621 970 l 2,4,5
 609 886 609 886 488 828 c 0,6,7
 465 816 465 816 438 804 c 128,-1,8
 411 792 411 792 378 776 c 1,9,10
 484 722 484 722 513 692 c 0,11,12
 570 633 570 633 561 575 c 2,13,-1
 466 -55 l 1,14,-1
 741 -55 l 1,15,16
 739 -61 739 -61 737.5 -75.5 c 128,-1,17
 736 -90 736 -90 733.5 -106.5 c 128,-1,18
 731 -123 731 -123 729 -143 c 1,19,20
 607 -179 607 -179 551 -184.5 c 128,-1,21
 495 -190 495 -190 451 -190 c 128,-1,22
 407 -190 407 -190 375 -183 c 128,-1,23
 343 -176 343 -176 323 -160 c 0,24,25
 286 -129 286 -129 286 -47 c 0,26,27
 286 -37 286 -37 296 35 c 0,28,29
 317 177 317 177 333.5 294.5 c 128,-1,30
 350 412 350 412 376 579 c 1,31,32
 376 635 376 635 248 686 c 0,33,34
 204 703 204 703 159 714 c 1,35,-1
 177 838 l 1,36,37
 422 898 422 898 434 966 c 1,38,-1
 511 1483 l 1,39,40
 535 1634 535 1634 582 1684 c 0,41,42
 629 1735 629 1735 746 1735 c 0,43,44
 814 1735 814 1735 1006 1688 c 1,0,1
EndSplineSet
EndChar

StartChar: bar
Encoding: 124 124 117
Width: 854
GlyphClass: 2
Flags: W
LayerCount: 2
Fore
SplineSet
360 1780 m 1,0,-1
 533 1780 l 1,1,-1
 533 -186 l 1,2,-1
 360 -186 l 1,3,-1
 360 1780 l 1,0,-1
EndSplineSet
EndChar

StartChar: asciitilde
Encoding: 126 126 119
Width: 1137
GlyphClass: 2
Flags: W
LayerCount: 2
Fore
SplineSet
425 892 m 0,0,1
 300 892 300 892 223 775 c 1,2,-1
 152 848 l 1,3,4
 179 928 179 928 264 989 c 0,5,6
 359 1058 359 1058 464 1058 c 0,7,8
 548 1058 548 1058 650 972 c 0,9,10
 717 915 717 915 747.5 900.5 c 128,-1,11
 778 886 778 886 806 886 c 0,12,13
 931 886 931 886 1008 1003 c 1,14,-1
 1079 930 l 1,15,16
 1057 847 1057 847 968 784 c 0,17,18
 878 720 878 720 767 720 c 0,19,20
 681 720 681 720 582 806 c 0,21,22
 517 862 517 862 485.5 877 c 128,-1,23
 454 892 454 892 425 892 c 0,0,1
EndSplineSet
EndChar

StartChar: cent
Encoding: 162 162 123
Width: 1056
GlyphClass: 2
Flags: W
LayerCount: 2
Fore
SplineSet
895 931 m 1,0,1
 798 1016 798 1016 680 1016 c 0,2,3
 546 1016 546 1016 450 866 c 0,4,5
 346 704 346 704 346 460 c 0,6,7
 346 203 346 203 466 139 c 0,8,9
 504 119 504 119 545.5 119 c 128,-1,10
 587 119 587 119 619 125.5 c 128,-1,11
 651 132 651 132 683 146 c 0,12,13
 744 173 744 173 825 232 c 1,14,-1
 864 151 l 1,15,16
 733 4 733 4 551 -17 c 1,17,-1
 515 -215 l 1,18,-1
 365 -215 l 1,19,-1
 403 -10 l 1,20,21
 275 20 275 20 206 134 c 128,-1,22
 137 248 137 248 137 430 c 0,23,24
 137 653 137 653 256 862 c 0,25,26
 337 1003 337 1003 464 1086 c 0,27,28
 529 1128 529 1128 606 1147 c 1,29,-1
 659 1358 l 1,30,-1
 809 1358 l 1,31,-1
 759 1161 l 1,32,33
 870 1152 870 1152 946 1115 c 1,34,-1
 895 931 l 1,0,1
EndSplineSet
EndChar

StartChar: sterling
Encoding: 163 163 124
Width: 1368
GlyphClass: 2
Flags: W
LayerCount: 2
Fore
SplineSet
1140 610 m 1,0,1
 1265 510 1265 510 1265 363 c 0,2,3
 1265 219 1265 219 1179 112 c 0,4,5
 1059 -38 1059 -38 782 -38 c 0,6,7
 584 -38 584 -38 386 61 c 1,8,9
 311 100 311 100 287 101 c 1,10,11
 219 12 219 12 130 -20 c 0,12,13
 99 -31 99 -31 76 -31 c 128,-1,14
 53 -31 53 -31 38 -28 c 0,15,16
 -10 -17 -10 -17 -10 38 c 0,17,18
 -10 113 -10 113 78 169 c 0,19,20
 161 222 161 222 257 222 c 1,21,22
 296 278 296 278 326 410 c 0,23,24
 334 445 334 445 338 475 c 2,25,-1
 379 744 l 1,26,-1
 203 744 l 1,27,-1
 221 875 l 1,28,-1
 400 875 l 1,29,-1
 417 986 l 1,30,31
 448 1215 448 1215 601 1386 c 0,32,33
 760 1565 760 1565 971 1565 c 0,34,35
 1107 1565 1107 1565 1177 1525 c 0,36,37
 1205 1509 1205 1509 1230 1483 c 1,38,-1
 1117 1313 l 1,39,40
 1105 1340 1105 1340 1057 1368 c 0,41,42
 961 1424 961 1424 870 1424 c 0,43,44
 735 1424 735 1424 656 1198 c 0,45,46
 626 1114 626 1114 616 1038 c 0,47,48
 603 944 603 944 591 875 c 1,49,-1
 914 875 l 1,50,-1
 897 744 l 1,51,-1
 568 744 l 1,52,53
 566 731 566 731 564.5 719 c 128,-1,54
 563 707 563 707 557 667.5 c 128,-1,55
 551 628 551 628 541 573.5 c 128,-1,56
 531 519 531 519 520.5 474 c 128,-1,57
 510 429 510 429 497 391.5 c 128,-1,58
 484 354 484 354 468 320 c 0,59,60
 442 264 442 264 386 186 c 1,61,62
 424 176 424 176 455 164 c 128,-1,63
 486 152 486 152 517 140 c 128,-1,64
 548 128 548 128 580.5 116.5 c 128,-1,65
 613 105 613 105 647 95 c 0,66,67
 722 73 722 73 786 73 c 0,68,69
 1074 73 1074 73 1074 321 c 0,70,71
 1074 380 1074 380 1028 451 c 0,72,73
 1015 470 1015 470 1003 481 c 1,74,-1
 1140 610 l 1,0,1
EndSplineSet
EndChar

StartChar: currency
Encoding: 164 164 125
Width: 1540
GlyphClass: 2
Flags: W
LayerCount: 2
Fore
SplineSet
782 252 m 128,-1,1
 647 252 647 252 540 324 c 1,2,-1
 346 130 l 1,3,-1
 232 243 l 1,4,-1
 424 435 l 1,5,6
 342 549 342 549 342 688.5 c 128,-1,7
 342 828 342 828 422 942 c 1,8,-1
 229 1135 l 1,9,-1
 342 1249 l 1,10,-1
 536 1053 l 1,11,12
 650 1128 650 1128 786.5 1128 c 128,-1,13
 923 1128 923 1128 1038 1047 c 1,14,-1
 1228 1236 l 1,15,-1
 1341 1122 l 1,16,-1
 1150 931 l 1,17,18
 1222 821 1222 821 1222 688 c 128,-1,19
 1222 555 1222 555 1145 442 c 1,20,-1
 1339 248 l 1,21,-1
 1225 135 l 1,22,-1
 1031 328 l 1,23,0
 917 252 917 252 782 252 c 128,-1,1
490 690 m 256,24,25
 490 564 490 564 576 474 c 0,26,27
 661 385 661 385 782 385 c 256,28,29
 903 385 903 385 988 474 c 0,30,31
 1074 564 1074 564 1074 690 c 256,32,33
 1074 816 1074 816 988 906 c 0,34,35
 903 995 903 995 782 995 c 256,36,37
 661 995 661 995 576 906 c 0,38,39
 490 816 490 816 490 690 c 256,24,25
EndSplineSet
EndChar

StartChar: yen
Encoding: 165 165 126
Width: 1483
GlyphClass: 2
Flags: W
LayerCount: 2
Fore
SplineSet
393 87 m 1,0,-1
 610 117 l 1,1,-1
 641 376 l 1,2,-1
 229 376 l 1,3,-1
 244 506 l 1,4,-1
 656 506 l 1,5,-1
 683 731 l 1,6,-1
 270 731 l 1,7,-1
 284 862 l 1,8,-1
 635 862 l 1,9,-1
 331 1434 l 1,10,-1
 212 1452 l 1,11,-1
 223 1552 l 1,12,-1
 721 1552 l 1,13,-1
 710 1452 l 1,14,-1
 535 1435 l 1,15,-1
 770 975 l 1,16,-1
 811 864 l 1,17,-1
 877 983 l 1,18,-1
 1180 1435 l 1,19,-1
 1041 1452 l 1,20,-1
 1052 1552 l 1,21,-1
 1515 1552 l 1,22,-1
 1504 1453 l 1,23,-1
 1368 1425 l 1,24,-1
 942 862 l 1,25,-1
 1290 862 l 1,26,-1
 1276 731 l 1,27,-1
 859 731 l 1,28,-1
 832 506 l 1,29,-1
 1249 506 l 1,30,-1
 1234 376 l 1,31,-1
 817 376 l 1,32,-1
 787 117 l 1,33,-1
 1007 87 l 1,34,-1
 998 0 l 1,35,-1
 385 0 l 1,36,-1
 393 87 l 1,0,-1
EndSplineSet
EndChar

StartChar: brokenbar
Encoding: 166 166 127
Width: 854
GlyphClass: 2
Flags: W
LayerCount: 2
Fore
SplineSet
360 1780 m 1,0,-1
 533 1780 l 1,1,-1
 533 886 l 1,2,-1
 360 886 l 1,3,-1
 360 1780 l 1,0,-1
360 708 m 1,4,-1
 533 708 l 1,5,-1
 533 -186 l 1,6,-1
 360 -186 l 1,7,-1
 360 708 l 1,4,-1
EndSplineSet
EndChar

StartChar: section
Encoding: 167 167 128
Width: 1194
GlyphClass: 2
Flags: W
LayerCount: 2
Fore
SplineSet
963 405 m 1,0,1
 1028 335 1028 335 1028 245 c 0,2,3
 1028 104 1028 104 924 -11 c 1,4,5
 811 -138 811 -138 618 -175 c 0,6,7
 561 -186 561 -186 499.5 -186 c 128,-1,8
 438 -186 438 -186 366 -177.5 c 128,-1,9
 294 -169 294 -169 232 -156 c 0,10,11
 97 -128 97 -128 56 -100 c 1,12,-1
 96 230 l 1,13,-1
 199 230 l 1,14,-1
 234 22 l 1,15,16
 311 -73 311 -73 538 -73 c 0,17,18
 647 -73 647 -73 732 -12 c 0,19,20
 828 56 828 56 843 177 c 0,21,22
 844 186 844 186 844 210.5 c 128,-1,23
 844 235 844 235 819.5 268.5 c 128,-1,24
 795 302 795 302 747 332 c 128,-1,25
 699 362 699 362 636 387 c 128,-1,26
 573 412 573 412 507.5 438.5 c 128,-1,27
 442 465 442 465 380 496 c 0,28,29
 181 596 181 596 181 754 c 0,30,31
 181 874 181 874 264 1012 c 0,32,33
 286 1048 286 1048 311 1078 c 1,34,35
 232 1157 232 1157 232 1256 c 0,36,37
 232 1410 232 1410 338 1518 c 0,38,39
 452 1635 452 1635 644 1664 c 0,40,41
 700 1673 700 1673 760.5 1673 c 128,-1,42
 821 1673 821 1673 882 1666 c 128,-1,43
 943 1659 943 1659 992 1648 c 0,44,45
 1088 1627 1088 1627 1134 1597 c 1,46,-1
 1097 1296 l 1,47,-1
 1003 1296 l 1,48,-1
 948 1504 l 1,49,50
 894 1567 894 1567 732 1567 c 0,51,52
 548 1567 548 1567 464 1460 c 0,53,54
 421 1404 421 1404 421 1345 c 128,-1,55
 421 1286 421 1286 445 1249.5 c 128,-1,56
 469 1213 469 1213 517.5 1180.5 c 128,-1,57
 566 1148 566 1148 629 1120 c 128,-1,58
 692 1092 692 1092 758 1062.5 c 128,-1,59
 824 1033 824 1033 887 999 c 0,60,61
 1086 892 1086 892 1086 722 c 0,62,63
 1086 637 1086 637 1048.5 551 c 128,-1,64
 1011 465 1011 465 963 405 c 1,0,1
404 1008 m 1,65,66
 351 918 351 918 351 860.5 c 128,-1,67
 351 803 351 803 370 767.5 c 128,-1,68
 389 732 389 732 429 699.5 c 128,-1,69
 469 667 469 667 524 641 c 128,-1,70
 579 615 579 615 639 590 c 0,71,72
 804 521 804 521 871 480 c 1,73,74
 914 560 914 560 914 613 c 128,-1,75
 914 666 914 666 896 704.5 c 128,-1,76
 878 743 878 743 839 778 c 128,-1,77
 800 813 800 813 747 841.5 c 128,-1,78
 694 870 694 870 635 896.5 c 128,-1,79
 576 923 576 923 516 949.5 c 128,-1,80
 456 976 456 976 404 1008 c 1,65,66
EndSplineSet
EndChar

StartChar: dieresis
Encoding: 168 168 129
Width: 809
GlyphClass: 2
Flags: W
LayerCount: 2
Fore
SplineSet
606 1388 m 0,0,1
 588 1388 588 1388 569 1400 c 128,-1,2
 550 1412 550 1412 530 1430 c 0,3,4
 481 1476 481 1476 481.5 1506 c 128,-1,5
 482 1536 482 1536 495.5 1562 c 128,-1,6
 509 1588 509 1588 530 1608 c 0,7,8
 575 1651 575 1651 614 1651 c 128,-1,9
 653 1651 653 1651 676 1642 c 0,10,11
 748 1613 748 1613 748 1541 c 0,12,13
 748 1479 748 1479 700 1432 c 0,14,15
 654 1388 654 1388 606 1388 c 0,0,1
130 1398 m 0,16,17
 61 1428 61 1428 61 1503 c 0,18,19
 61 1560 61 1560 111 1608 c 0,20,21
 156 1651 156 1651 195 1651 c 128,-1,22
 234 1651 234 1651 258 1642 c 0,23,24
 328 1613 328 1613 328 1541 c 0,25,26
 328 1478 328 1478 281 1432 c 0,27,28
 235 1388 235 1388 193.5 1388 c 128,-1,29
 152 1388 152 1388 130 1398 c 0,16,17
EndSplineSet
EndChar

StartChar: copyright
Encoding: 169 169 130
Width: 1768
GlyphClass: 2
Flags: W
LayerCount: 2
Fore
SplineSet
178 806 m 0,0,1
 178 910 178 910 205 1006.5 c 128,-1,2
 232 1103 232 1103 281.5 1187 c 128,-1,3
 331 1271 331 1271 399.5 1339.5 c 128,-1,4
 468 1408 468 1408 552 1457 c 0,5,6
 727 1559 727 1559 933 1559 c 0,7,8
 1246 1559 1246 1559 1467 1340 c 0,9,10
 1608 1200 1608 1200 1662 1006 c 0,11,12
 1689 910 1689 910 1689 805.5 c 128,-1,13
 1689 701 1689 701 1662 604.5 c 128,-1,14
 1635 508 1635 508 1585.5 424.5 c 128,-1,15
 1536 341 1536 341 1467 272 c 128,-1,16
 1398 203 1398 203 1314 154 c 0,17,18
 1136 52 1136 52 933 52 c 256,19,20
 730 52 730 52 552 154 c 0,21,22
 384 251 384 251 282 424 c 0,23,24
 178 599 178 599 178 806 c 0,0,1
297 806 m 0,25,26
 297 537 297 537 482 348 c 0,27,28
 667 158 667 158 933 158 c 0,29,30
 1200 158 1200 158 1386 348 c 0,31,32
 1503 468 1503 468 1548 634 c 0,33,34
 1570 717 1570 717 1570 806 c 0,35,36
 1570 1073 1570 1073 1386 1264 c 0,37,38
 1270 1383 1270 1383 1104 1430 c 0,39,40
 1022 1454 1022 1454 933 1454 c 0,41,42
 760 1454 760 1454 610 1365 c 0,43,44
 468 1281 468 1281 383 1132 c 0,45,46
 297 981 297 981 297 806 c 0,25,26
1185 525 m 1,47,-1
 1213 458 l 1,48,49
 1145 399 1145 399 1008 374 c 0,50,51
 965 366 965 366 897.5 366 c 128,-1,52
 830 366 830 366 760 400.5 c 128,-1,53
 690 435 690 435 642 494 c 0,54,55
 542 617 542 617 542 802 c 0,56,57
 542 805 542 805 542 808 c 0,58,59
 542 991 542 991 654 1114 c 0,60,61
 774 1247 774 1247 969 1247 c 0,62,63
 1132 1247 1132 1247 1203 1209 c 1,64,-1
 1203 1004 l 1,65,-1
 1129 1004 l 1,66,-1
 1075 1124 l 1,67,68
 1032 1163 1032 1163 928 1163 c 0,69,70
 831 1163 831 1163 768 1090 c 0,71,72
 696 1007 696 1007 696 861 c 0,73,74
 696 857 696 857 696 853 c 0,75,76
 696 666 696 666 784 558 c 0,77,78
 860 465 860 465 966 465 c 128,-1,79
 1072 465 1072 465 1185 525 c 1,47,-1
EndSplineSet
EndChar

StartChar: ordfeminine
Encoding: 170 170 131
Width: 854
GlyphClass: 2
Flags: W
LayerCount: 2
Fore
SplineSet
575 859 m 1,0,1
 470 743 470 743 333 743 c 0,2,3
 156 743 156 743 109 916 c 0,4,5
 94 971 94 971 94 1037 c 128,-1,6
 94 1103 94 1103 111 1167.5 c 128,-1,7
 128 1232 128 1232 160 1291.5 c 128,-1,8
 192 1351 192 1351 237 1403 c 128,-1,9
 282 1455 282 1455 338 1494 c 0,10,11
 459 1577 459 1577 598 1577 c 0,12,13
 682 1577 682 1577 772 1548 c 1,14,-1
 875 1586 l 1,15,-1
 753 891 l 1,16,17
 751 837 751 837 765 837 c 0,18,19
 786 837 786 837 821 857 c 1,20,-1
 844 818 l 1,21,22
 837 803 837 803 797 783 c 0,23,24
 720 743 720 743 668 743 c 0,25,26
 573 743 573 743 573 828 c 0,27,28
 573 836 573 836 575 859 c 1,0,1
669 1417 m 1,29,30
 630 1475 630 1475 561.5 1475 c 128,-1,31
 493 1475 493 1475 437 1436.5 c 128,-1,32
 381 1398 381 1398 346 1338 c 0,33,34
 278 1222 278 1222 278 1055 c 0,35,36
 278 958 278 958 300.5 923 c 128,-1,37
 323 888 323 888 348.5 874.5 c 128,-1,38
 374 861 374 861 404.5 861 c 128,-1,39
 435 861 435 861 458 869 c 128,-1,40
 481 877 481 877 504 890 c 0,41,42
 551 918 551 918 588 953 c 1,43,-1
 669 1417 l 1,29,30
EndSplineSet
EndChar

StartChar: logicalnot
Encoding: 172 172 133
Width: 1370
GlyphClass: 2
Flags: W
LayerCount: 2
Fore
SplineSet
228 853 m 1,0,-1
 1188 853 l 1,1,-1
 1126 322 l 1,2,-1
 949 322 l 1,3,-1
 996 721 l 1,4,-1
 213 721 l 1,5,-1
 228 853 l 1,0,-1
EndSplineSet
EndChar

StartChar: registered
Encoding: 174 174 135
Width: 1768
GlyphClass: 2
Flags: W
LayerCount: 2
Fore
SplineSet
178 806 m 0,0,1
 178 910 178 910 205 1006.5 c 128,-1,2
 232 1103 232 1103 281.5 1187 c 128,-1,3
 331 1271 331 1271 399.5 1339.5 c 128,-1,4
 468 1408 468 1408 552 1457 c 0,5,6
 727 1559 727 1559 933 1559 c 0,7,8
 1246 1559 1246 1559 1467 1340 c 0,9,10
 1608 1200 1608 1200 1662 1006 c 0,11,12
 1689 910 1689 910 1689 805.5 c 128,-1,13
 1689 701 1689 701 1662 604.5 c 128,-1,14
 1635 508 1635 508 1585.5 424.5 c 128,-1,15
 1536 341 1536 341 1467 272 c 128,-1,16
 1398 203 1398 203 1314 154 c 0,17,18
 1136 52 1136 52 933 52 c 256,19,20
 730 52 730 52 552 154 c 0,21,22
 384 251 384 251 282 424 c 0,23,24
 178 599 178 599 178 806 c 0,0,1
297 806 m 0,25,26
 297 537 297 537 482 348 c 0,27,28
 667 158 667 158 933 158 c 0,29,30
 1200 158 1200 158 1386 348 c 0,31,32
 1503 468 1503 468 1548 634 c 0,33,34
 1570 717 1570 717 1570 806 c 0,35,36
 1570 1073 1570 1073 1386 1264 c 0,37,38
 1270 1383 1270 1383 1104 1430 c 0,39,40
 1022 1454 1022 1454 933 1454 c 0,41,42
 760 1454 760 1454 610 1365 c 0,43,44
 468 1281 468 1281 383 1132 c 0,45,46
 297 981 297 981 297 806 c 0,25,26
716 1240 m 1,47,-1
 954 1245 l 1,48,49
 1182 1245 1182 1245 1248 1108 c 0,50,51
 1268 1066 1268 1066 1269 1020 c 128,-1,52
 1270 974 1270 974 1260.5 935 c 128,-1,53
 1251 896 1251 896 1225 862 c 0,54,55
 1169 790 1169 790 1035 766 c 1,56,57
 1109 724 1109 724 1172 608 c 0,58,59
 1197 564 1197 564 1219 525 c 128,-1,60
 1241 486 1241 486 1271 465 c 1,61,62
 1295 453 1295 453 1338 453 c 1,63,-1
 1338 375 l 1,64,-1
 1178 375 l 2,65,66
 1146 375 1146 375 1106 455 c 0,67,68
 1089 490 1089 490 1068.5 533.5 c 128,-1,69
 1048 577 1048 577 1022 618 c 0,70,71
 959 717 959 717 883 749 c 1,72,-1
 796 749 l 1,73,-1
 796 469 l 1,74,-1
 898 449 l 1,75,-1
 898 375 l 1,76,-1
 572 375 l 1,77,-1
 572 449 l 1,78,-1
 655 469 l 1,79,-1
 655 1134 l 1,80,-1
 572 1156 l 1,81,-1
 572 1240 l 1,82,-1
 716 1240 l 1,47,-1
927 1155 m 0,83,84
 838 1155 838 1155 796 1145 c 1,85,-1
 796 837 l 1,86,87
 839 829 839 829 909.5 829 c 128,-1,88
 980 829 980 829 1011.5 842.5 c 128,-1,89
 1043 856 1043 856 1066 878 c 1,90,91
 1113 926 1113 926 1113 993 c 0,92,93
 1113 1155 1113 1155 927 1155 c 0,83,84
EndSplineSet
EndChar

StartChar: macron
Encoding: 175 175 136
Width: 614
GlyphClass: 2
Flags: W
LayerCount: 2
Fore
SplineSet
44 1574 m 1,0,-1
 554 1574 l 1,1,-1
 549 1425 l 1,2,-1
 40 1425 l 1,3,-1
 44 1574 l 1,0,-1
EndSplineSet
EndChar

StartChar: degree
Encoding: 176 176 137
Width: 899
GlyphClass: 2
Flags: W
LayerCount: 2
Fore
SplineSet
524 955 m 0,0,1
 454 955 454 955 395 980 c 0,2,3
 274 1033 274 1033 226 1153 c 0,4,5
 204 1210 204 1210 204 1242 c 0,6,7
 204 1345 204 1345 230.5 1404.5 c 128,-1,8
 257 1464 257 1464 302 1508 c 0,9,10
 398 1600 398 1600 542 1600 c 0,11,12
 679 1600 679 1600 774 1506 c 1,13,14
 864 1415 864 1415 864 1283 c 0,15,16
 864 1141 864 1141 764 1047 c 0,17,18
 667 955 667 955 524 955 c 0,0,1
531 1076 m 0,19,20
 572 1076 572 1076 607 1091 c 128,-1,21
 642 1106 642 1106 668 1133 c 0,22,23
 724 1191 724 1191 724 1283 c 0,24,25
 724 1363 724 1363 671 1420 c 0,26,27
 616 1479 616 1479 537 1479 c 0,28,29
 453 1479 453 1479 400 1422 c 0,30,31
 344 1363 344 1363 344 1272 c 0,32,33
 344 1192 344 1192 396 1136 c 0,34,35
 452 1076 452 1076 531 1076 c 0,19,20
EndSplineSet
EndChar

StartChar: plusminus
Encoding: 177 177 138
Width: 1370
GlyphClass: 2
Flags: W
LayerCount: 2
Fore
SplineSet
589 536 m 1,0,-1
 615 700 l 1,1,-1
 474 693 l 1,2,-1
 249 693 l 1,3,-1
 267 851 l 1,4,-1
 492 851 l 1,5,-1
 631 840 l 1,6,7
 634 882 634 882 638 923 c 128,-1,8
 642 964 642 964 645 1005 c 1,9,-1
 671 1235 l 1,10,-1
 849 1235 l 1,11,-1
 823 1005 l 1,12,-1
 794 841 l 1,13,-1
 909 851 l 1,14,-1
 1164 851 l 1,15,-1
 1146 693 l 1,16,-1
 891 693 l 1,17,-1
 779 700 l 1,18,19
 777 658 777 658 773.5 618 c 128,-1,20
 770 578 770 578 768 536 c 1,21,-1
 741 295 l 1,22,-1
 562 295 l 1,23,-1
 589 536 l 1,0,-1
197 180 m 1,24,-1
 1066 180 l 1,25,-1
 1049 30 l 1,26,-1
 180 30 l 1,27,-1
 197 180 l 1,24,-1
EndSplineSet
EndChar

StartChar: twosuperior
Encoding: 178 178 139
Width: 1163
GlyphClass: 2
Flags: W
LayerCount: 2
Fore
SplineSet
650 1494 m 0,0,1
 473 1494 473 1494 339 1356 c 1,2,-1
 269 1450 l 1,3,4
 322 1519 322 1519 440 1578 c 1,5,6
 581 1647 581 1647 727 1647 c 0,7,8
 875 1647 875 1647 960 1572 c 1,9,10
 1036 1507 1036 1507 1036 1414.5 c 128,-1,11
 1036 1322 1036 1322 989 1236 c 128,-1,12
 942 1150 942 1150 862 1070 c 1,13,14
 740 945 740 945 458 763 c 1,15,-1
 910 788 l 1,16,-1
 995 923 l 1,17,-1
 1098 894 l 1,18,-1
 1013 637 l 1,19,-1
 235 637 l 1,20,-1
 190 733 l 1,21,22
 664 999 664 999 798 1232 c 0,23,24
 834 1294 834 1294 834 1343 c 128,-1,25
 834 1392 834 1392 820 1418.5 c 128,-1,26
 806 1445 806 1445 781 1462 c 0,27,28
 734 1494 734 1494 650 1494 c 0,0,1
EndSplineSet
EndChar

StartChar: threesuperior
Encoding: 179 179 140
Width: 1071
GlyphClass: 2
Flags: W
LayerCount: 2
Fore
SplineSet
290 1520 m 1,0,1
 468 1644 468 1644 699 1644 c 0,2,3
 839 1644 839 1644 916 1580 c 0,4,5
 984 1524 984 1524 984 1433 c 0,6,7
 984 1233 984 1233 721 1134 c 1,8,9
 861 1134 861 1134 924 1054 c 1,10,11
 971 996 971 996 971 910 c 0,12,13
 971 794 971 794 888 700 c 0,14,15
 782 579 782 579 583 544 c 0,16,17
 523 534 523 534 480.5 534 c 128,-1,18
 438 534 438 534 402 538.5 c 128,-1,19
 366 543 366 543 328 552 c 0,20,21
 238 573 238 573 185 606 c 1,22,-1
 202 714 l 1,23,24
 308 663 308 663 443 663 c 0,25,26
 557 663 557 663 652 720 c 0,27,28
 764 787 764 787 764 906 c 0,29,30
 764 1005 764 1005 662 1035 c 0,31,32
 629 1045 629 1045 589 1046 c 1,33,-1
 385 1001 l 1,34,-1
 406 1126 l 1,35,36
 630 1168 630 1168 726 1286 c 0,37,38
 773 1345 773 1345 773 1416 c 0,39,40
 773 1512 773 1512 626 1512 c 0,41,42
 514 1512 514 1512 394 1456 c 0,43,44
 357 1439 357 1439 326 1418 c 1,45,-1
 290 1520 l 1,0,1
EndSplineSet
EndChar

StartChar: acute
Encoding: 180 180 141
Width: 559
GlyphClass: 2
Flags: W
LayerCount: 2
Fore
SplineSet
50 1312 m 1,0,-1
 367 1743 l 1,1,-1
 509 1576 l 1,2,3
 480 1520 480 1520 337 1405 c 0,4,5
 183 1280 183 1280 103 1251 c 1,6,-1
 50 1312 l 1,0,-1
EndSplineSet
EndChar

StartChar: mu
Encoding: 181 181 142
Width: 1364
GlyphClass: 2
Flags: W
LayerCount: 2
Fore
SplineSet
827 118 m 1,0,1
 684 -20 684 -20 487 -20 c 1,2,3
 420 -19 420 -19 364 11 c 1,4,-1
 306 -372 l 1,5,-1
 121 -372 l 1,6,-1
 229 358 l 1,7,8
 248 500 248 500 272.5 643 c 128,-1,9
 297 786 297 786 305 882.5 c 128,-1,10
 313 979 313 979 308.5 999 c 128,-1,11
 304 1019 304 1019 286 1019 c 128,-1,12
 268 1019 268 1019 222 993 c 1,13,-1
 192 1045 l 1,14,15
 208 1071 208 1071 249 1097 c 0,16,17
 332 1150 332 1150 394.5 1150 c 128,-1,18
 457 1150 457 1150 486 1123.5 c 128,-1,19
 515 1097 515 1097 515 1037 c 0,20,21
 515 947 515 947 442 501 c 0,22,23
 427 410 427 410 427 334.5 c 128,-1,24
 427 259 427 259 435.5 221 c 128,-1,25
 444 183 444 183 462 160 c 0,26,27
 494 117 494 117 547.5 117 c 128,-1,28
 601 117 601 117 641.5 133 c 128,-1,29
 682 149 682 149 720 173 c 0,30,31
 782 212 782 212 848 278 c 1,32,-1
 960 1140 l 1,33,-1
 1154 1140 l 1,34,-1
 1032 189 l 2,35,36
 1030 170 1030 170 1030 156 c 0,37,38
 1030 113 1030 113 1053.5 113 c 128,-1,39
 1077 113 1077 113 1120 140 c 1,40,-1
 1152 87 l 1,41,42
 1110 31 1110 31 1016 -4 c 0,43,44
 981 -18 981 -18 947.5 -18 c 128,-1,45
 914 -18 914 -18 890 -12 c 0,46,47
 825 3 825 3 825 84 c 0,48,49
 825 100 825 100 827 118 c 1,0,1
EndSplineSet
EndChar

StartChar: paragraph
Encoding: 182 182 143
Width: 1364
GlyphClass: 2
Flags: W
LayerCount: 2
Fore
SplineSet
715 1571 m 1,0,-1
 1170 1552 l 1,1,-1
 1348 1552 l 1,2,-1
 1337 1449 l 1,3,-1
 1170 1416 l 1,4,5
 1141 1163 1141 1163 1103 882 c 0,6,7
 1034 358 1034 358 1006 116 c 1,8,-1
 1141 86 l 1,9,-1
 1132 0 l 1,10,-1
 801 0 l 1,11,-1
 976 1414 l 1,12,-1
 782 1414 l 1,13,-1
 605 0 l 1,14,-1
 256 0 l 1,15,-1
 264 87 l 1,16,-1
 429 117 l 1,17,-1
 515 774 l 1,18,19
 160 782 160 782 160 1130 c 0,20,21
 160 1445 160 1445 458 1538 c 0,22,23
 564 1571 564 1571 715 1571 c 1,0,-1
EndSplineSet
EndChar

StartChar: cedilla
Encoding: 184 184 145
Width: 479
GlyphClass: 2
Flags: W
LayerCount: 2
Fore
SplineSet
257.5 -213 m 128,-1,1
 273 -175 273 -175 278 -126 c 128,-1,2
 283 -77 283 -77 283 -43.5 c 128,-1,3
 283 -10 283 -10 275 30 c 1,4,-1
 332 34 l 1,5,-1
 385 30 l 1,6,7
 415 -14 415 -14 415 -110 c 0,8,9
 415 -235 415 -235 386 -306.5 c 128,-1,10
 357 -378 357 -378 322 -409 c 0,11,12
 261 -464 261 -464 142 -464 c 0,13,14
 41 -464 41 -464 4 -436 c 1,15,-1
 39 -305 l 1,16,17
 65 -319 65 -319 103 -319 c 128,-1,18
 141 -319 141 -319 169 -308.5 c 128,-1,19
 197 -298 197 -298 219.5 -274.5 c 128,-1,0
 242 -251 242 -251 257.5 -213 c 128,-1,1
EndSplineSet
EndChar

StartChar: onesuperior
Encoding: 185 185 146
Width: 1020
GlyphClass: 2
Flags: W
LayerCount: 2
Fore
SplineSet
253 724 m 1,0,-1
 489 750 l 1,1,-1
 575 1395 l 1,2,-1
 314 1343 l 1,3,-1
 308 1446 l 1,4,5
 429 1482 429 1482 620 1583 c 0,6,7
 695 1622 695 1622 724 1645 c 1,8,-1
 793 1624 l 1,9,-1
 674 750 l 1,10,-1
 909 723 l 1,11,-1
 898 636 l 1,12,-1
 242 636 l 1,13,-1
 253 724 l 1,0,-1
EndSplineSet
EndChar

StartChar: ordmasculine
Encoding: 186 186 147
Width: 854
GlyphClass: 2
Flags: W
LayerCount: 2
Fore
SplineSet
725 860 m 128,-1,1
 659 796 659 796 579.5 764.5 c 128,-1,2
 500 733 500 733 420 733.5 c 128,-1,3
 340 734 340 734 280 759 c 128,-1,4
 220 784 220 784 178 830 c 0,5,6
 88 927 88 927 88 1085 c 0,7,8
 88 1314 88 1314 242 1459 c 0,9,10
 379 1589 379 1589 547 1589 c 1,11,12
 704 1587 704 1587 790 1488 c 0,13,14
 873 1393 873 1393 873 1252.5 c 128,-1,15
 873 1112 873 1112 832 1018 c 128,-1,0
 791 924 791 924 725 860 c 128,-1,1
368 858 m 0,16,17
 394 838 394 838 410 838 c 128,-1,18
 426 838 426 838 428 838 c 0,19,20
 562 838 562 838 626 960 c 0,21,22
 677 1057 677 1057 677 1216 c 0,23,24
 677 1407 677 1407 588 1470 c 0,25,26
 560 1491 560 1491 507 1491 c 128,-1,27
 454 1491 454 1491 407.5 1452.5 c 128,-1,28
 361 1414 361 1414 333 1356 c 0,29,30
 282 1252 282 1252 282 1103 c 0,31,32
 282 924 282 924 368 858 c 0,16,17
EndSplineSet
EndChar

StartChar: onequarter
Encoding: 188 188 149
Width: 2560
GlyphClass: 3
Flags: W
LayerCount: 2
Fore
SplineSet
2003 1113 m 1,0,-1
 2091 1114 l 1,1,-1
 2184 1010 l 1,2,-1
 1616 387 l 1,3,-1
 1537 295 l 1,4,-1
 1897 324 l 1,5,-1
 1933 576 l 1,6,-1
 2135 599 l 1,7,-1
 2100 341 l 1,8,-1
 2361 362 l 1,9,-1
 2341 187 l 1,10,-1
 2079 187 l 1,11,-1
 2031 -176 l 1,12,-1
 1828 -176 l 1,13,-1
 1878 187 l 1,14,-1
 1384 187 l 1,15,-1
 1347 282 l 1,16,-1
 2003 1113 l 1,0,-1
1488 1530 m 1,17,-1
 1647 1530 l 1,18,-1
 966 0 l 1,19,-1
 807 0 l 1,20,-1
 1488 1530 l 1,17,-1
284 724 m 1,21,-1
 520 750 l 1,22,-1
 606 1395 l 1,23,-1
 345 1343 l 1,24,-1
 339 1446 l 1,25,26
 460 1482 460 1482 651 1583 c 0,27,28
 726 1622 726 1622 755 1645 c 1,29,-1
 824 1624 l 1,30,-1
 705 750 l 1,31,-1
 940 723 l 1,32,-1
 929 636 l 1,33,-1
 273 636 l 1,34,-1
 284 724 l 1,21,-1
EndSplineSet
Ligature2: "'frac' Diagonal Fractions in Latin lookup 10 subtable" one slash four
EndChar

StartChar: threequarters
Encoding: 190 190 151
Width: 2575
GlyphClass: 3
Flags: W
LayerCount: 2
Fore
SplineSet
2018 1113 m 1,0,-1
 2106 1114 l 1,1,-1
 2199 1010 l 1,2,-1
 1631 387 l 1,3,-1
 1552 295 l 1,4,-1
 1912 324 l 1,5,-1
 1948 576 l 1,6,-1
 2150 599 l 1,7,-1
 2115 341 l 1,8,-1
 2376 362 l 1,9,-1
 2356 187 l 1,10,-1
 2094 187 l 1,11,-1
 2046 -176 l 1,12,-1
 1843 -176 l 1,13,-1
 1893 187 l 1,14,-1
 1399 187 l 1,15,-1
 1362 282 l 1,16,-1
 2018 1113 l 1,0,-1
1544 1530 m 1,17,-1
 1703 1530 l 1,18,-1
 1022 0 l 1,19,-1
 863 0 l 1,20,-1
 1544 1530 l 1,17,-1
367 1520 m 1,21,22
 545 1644 545 1644 776 1644 c 0,23,24
 916 1644 916 1644 992 1580 c 1,25,26
 1061 1524 1061 1524 1061 1433 c 0,27,28
 1061 1233 1061 1233 798 1134 c 1,29,30
 938 1134 938 1134 1002 1054 c 0,31,32
 1048 996 1048 996 1048 910 c 0,33,34
 1048 794 1048 794 966 700 c 0,35,36
 859 579 859 579 660 544 c 0,37,38
 600 534 600 534 557.5 534 c 128,-1,39
 515 534 515 534 479 538.5 c 128,-1,40
 443 543 443 543 404 552 c 0,41,42
 315 573 315 573 262 606 c 1,43,-1
 279 714 l 1,44,45
 385 663 385 663 520 663 c 0,46,47
 634 663 634 663 728 720 c 1,48,49
 841 787 841 787 841 906 c 0,50,51
 841 1005 841 1005 740 1035 c 0,52,53
 706 1045 706 1045 666 1046 c 1,54,-1
 462 1001 l 1,55,-1
 483 1126 l 1,56,57
 707 1168 707 1168 802 1286 c 0,58,59
 850 1345 850 1345 850 1416 c 0,60,61
 850 1512 850 1512 703 1512 c 0,62,63
 591 1512 591 1512 470 1456 c 0,64,65
 434 1439 434 1439 403 1418 c 1,66,-1
 367 1520 l 1,21,22
EndSplineSet
Ligature2: "'frac' Diagonal Fractions in Latin lookup 10 subtable" three slash four
EndChar

StartChar: Aring
Encoding: 197 197 158
Width: 1342
GlyphClass: 2
Flags: W
LayerCount: 2
Fore
SplineSet
684 1484 m 1,0,1
 527 1534 527 1534 527 1697 c 0,2,3
 527 1855 527 1855 656 1938 c 1,4,5
 750 2000 750 2000 877 2000 c 0,6,7
 1018 2000 1018 2000 1090 1930 c 0,8,9
 1152 1870 1152 1870 1152 1772 c 0,10,11
 1152 1648 1152 1648 1070 1566 c 0,12,13
 1007 1503 1007 1503 914 1480 c 1,14,-1
 1158 118 l 1,15,-1
 1314 86 l 1,16,-1
 1307 0 l 1,17,-1
 819 0 l 1,18,-1
 825 86 l 1,19,-1
 960 115 l 1,20,-1
 910 436 l 1,21,-1
 358 436 l 1,22,-1
 211 116 l 1,23,-1
 360 86 l 1,24,-1
 354 0 l 1,25,-1
 -117 0 l 1,26,-1
 -108 86 l 1,27,-1
 32 115 l 1,28,-1
 684 1484 l 1,0,1
939 1581 m 0,29,30
 1011 1641 1011 1641 1011 1752 c 0,31,32
 1011 1858 1011 1858 926 1898 c 0,33,34
 897 1912 897 1912 860 1912 c 128,-1,35
 823 1912 823 1912 790.5 1903 c 128,-1,36
 758 1894 758 1894 733 1874 c 0,37,38
 669 1821 669 1821 669 1719 c 0,39,40
 669 1656 669 1656 711.5 1604.5 c 128,-1,41
 754 1553 754 1553 830 1553 c 128,-1,42
 906 1553 906 1553 939 1581 c 0,29,30
891 557 m 1,43,-1
 786 1236 l 1,44,-1
 775 1344 l 1,45,-1
 413 557 l 1,46,-1
 891 557 l 1,43,-1
EndSplineSet
EndChar

StartChar: AE
Encoding: 198 198 159
Width: 1810
GlyphClass: 2
Flags: W
LayerCount: 2
Fore
SplineSet
706 1408 m 1,0,-1
 415 1430 l 1,1,-1
 429 1530 l 1,2,-1
 1745 1530 l 1,3,-1
 1738 1241 l 1,4,-1
 1632 1241 l 1,5,-1
 1584 1408 l 1,6,-1
 1185 1422 l 1,7,-1
 1113 854 l 1,8,-1
 1508 861 l 1,9,-1
 1496 705 l 1,10,-1
 1101 721 l 1,11,-1
 1028 116 l 1,12,-1
 1541 140 l 1,13,-1
 1637 325 l 1,14,-1
 1740 294 l 1,15,-1
 1675 0 l 1,16,-1
 697 0 l 1,17,-1
 707 86 l 1,18,-1
 826 115 l 1,19,-1
 868 476 l 1,20,-1
 395 476 l 1,21,-1
 211 116 l 1,22,-1
 400 86 l 1,23,-1
 394 0 l 1,24,-1
 -162 0 l 1,25,-1
 -148 86 l 1,26,-1
 6 115 l 1,27,-1
 706 1408 l 1,0,-1
882 597 m 1,28,-1
 976 1399 l 1,29,-1
 870 1404 l 1,30,-1
 457 597 l 1,31,-1
 882 597 l 1,28,-1
EndSplineSet
EndChar

StartChar: Ccedilla
Encoding: 199 199 160
Width: 1261
GlyphClass: 2
Flags: W
LayerCount: 2
Fore
SplineSet
697 -9 m 1,0,1
 708 -47 708 -47 708 -94 c 128,-1,2
 708 -141 708 -141 701.5 -204 c 128,-1,3
 695 -267 695 -267 673 -321.5 c 128,-1,4
 651 -376 651 -376 616 -407 c 0,5,6
 555 -462 555 -462 436 -462 c 0,7,8
 335 -462 335 -462 298 -434 c 1,9,-1
 333 -303 l 1,10,11
 359 -317 359 -317 397 -317 c 128,-1,12
 435 -317 435 -317 463 -306.5 c 128,-1,13
 491 -296 491 -296 514 -272 c 0,14,15
 577 -206 577 -206 577 -42 c 0,16,17
 577 -27 577 -27 576 -15 c 1,18,19
 266 -8 266 -8 144 328 c 0,20,21
 93 471 93 471 93 624 c 128,-1,22
 93 777 93 777 117.5 892 c 128,-1,23
 142 1007 142 1007 191 1109 c 128,-1,24
 240 1211 240 1211 308 1292 c 128,-1,25
 376 1373 376 1373 459 1430 c 0,26,27
 630 1546 630 1546 829 1546 c 0,28,29
 1018 1546 1018 1546 1184 1500 c 1,30,-1
 1222 1489 l 1,31,-1
 1154 1122 l 1,32,-1
 1037 1122 l 1,33,-1
 1016 1382 l 1,34,35
 973 1415 973 1415 912 1421.5 c 128,-1,36
 851 1428 851 1428 780 1428 c 128,-1,37
 709 1428 709 1428 634 1391 c 128,-1,38
 559 1354 559 1354 503 1292 c 128,-1,39
 447 1230 447 1230 408 1150 c 0,40,41
 302 931 302 931 302 662 c 0,42,43
 302 431 302 431 382 276 c 0,44,45
 473 101 473 101 641 101 c 0,46,47
 774 101 774 101 862 158 c 0,48,49
 893 177 893 177 908 205 c 1,50,-1
 975 402 l 1,51,-1
 1096 401 l 1,52,-1
 1057 70 l 1,53,54
 1001 66 1001 66 939 48 c 128,-1,55
 877 30 877 30 822.5 14.5 c 128,-1,56
 768 -1 768 -1 697 -9 c 1,0,1
EndSplineSet
EndChar

StartChar: Eth
Encoding: 208 208 169
Width: 1427
GlyphClass: 2
Flags: W
LayerCount: 2
Fore
SplineSet
28 88 m 1,0,-1
 176 118 l 1,1,-1
 252 722 l 1,2,-1
 102 722 l 1,3,-1
 118 852 l 1,4,-1
 268 852 l 1,5,-1
 338 1408 l 1,6,-1
 205 1431 l 1,7,-1
 217 1532 l 1,8,-1
 515 1532 l 1,9,10
 562 1534 562 1534 600 1537.5 c 128,-1,11
 638 1541 638 1541 658 1542.5 c 128,-1,12
 678 1544 678 1544 699 1546 c 0,13,14
 734 1548 734 1548 779 1548 c 0,15,16
 1071 1548 1071 1548 1218 1375 c 1,17,18
 1356 1211 1356 1211 1356 904 c 0,19,20
 1356 513 1356 513 1146 252 c 0,21,22
 1004 77 1004 77 796 14 c 0,23,24
 701 -14 701 -14 595 -14 c 0,25,26
 568 -14 568 -14 551.5 -13 c 128,-1,27
 535 -12 535 -12 520 -11 c 0,28,29
 458 -7 458 -7 426.5 -4.5 c 128,-1,30
 395 -2 395 -2 367 -1 c 128,-1,31
 339 0 339 0 312 1 c 128,-1,32
 285 2 285 2 264 2 c 2,33,-1
 19 2 l 1,34,-1
 28 88 l 1,0,-1
376 134 m 1,35,36
 425 116 425 116 514 109.5 c 128,-1,37
 603 103 603 103 627 103 c 1,38,39
 808 116 808 116 935 241 c 0,40,41
 1153 455 1153 455 1153 893 c 0,42,43
 1153 1187 1153 1187 1048 1314 c 1,44,45
 949 1432 949 1432 720 1432 c 0,46,47
 606 1432 606 1432 535 1413 c 1,48,-1
 465 852 l 1,49,-1
 857 852 l 1,50,-1
 841 722 l 1,51,-1
 449 722 l 1,52,-1
 376 134 l 1,35,36
EndSplineSet
EndChar

StartChar: multiply
Encoding: 215 215 176
Width: 1370
GlyphClass: 2
Flags: W
LayerCount: 2
Fore
SplineSet
231 438 m 1,0,-1
 614 765 l 1,1,-1
 313 1092 l 1,2,-1
 445 1215 l 1,3,-1
 726 865 l 1,4,-1
 1095 1215 l 1,5,-1
 1197 1092 l 1,6,-1
 814 765 l 1,7,-1
 1115 438 l 1,8,-1
 983 315 l 1,9,-1
 702 665 l 1,10,-1
 333 315 l 1,11,-1
 231 438 l 1,0,-1
EndSplineSet
EndChar

StartChar: Oslash
Encoding: 216 216 177
Width: 1384
GlyphClass: 2
Flags: W
LayerCount: 2
Fore
SplineSet
617 -18 m 0,0,1
 426 -18 426 -18 295 101 c 1,2,-1
 139 -132 l 1,3,-1
 50 -83 l 1,4,-1
 226 180 l 1,5,6
 101 357 101 357 101 652 c 0,7,8
 101 894 101 894 191 1101 c 0,9,10
 282 1309 282 1309 442 1430 c 0,11,12
 605 1552 605 1552 782 1552 c 128,-1,13
 959 1552 959 1552 1078 1458 c 1,14,-1
 1219 1670 l 1,15,-1
 1308 1621 l 1,16,-1
 1151 1385 l 1,17,18
 1300 1199 1300 1199 1300 882 c 0,19,20
 1300 504 1300 504 1112 248 c 0,21,22
 987 78 987 78 806 14 c 0,23,24
 716 -18 716 -18 617 -18 c 0,0,1
985 1319 m 1,25,26
 903 1427 903 1427 766 1427 c 0,27,28
 639 1427 639 1427 529 1330 c 0,29,30
 366 1186 366 1186 318 903 c 0,31,32
 305 822 305 822 305 772.5 c 128,-1,33
 305 723 305 723 306 666 c 0,34,35
 309 496 309 496 348 363 c 1,36,-1
 985 1319 l 1,25,26
394 249 m 1,37,38
 477 102 477 102 648 102 c 0,39,40
 744 102 744 102 828 159 c 0,41,42
 1001 276 1001 276 1068 560 c 0,43,44
 1099 689 1099 689 1099 839 c 0,45,46
 1099 1076 1099 1076 1040 1220 c 1,47,-1
 394 249 l 1,37,38
EndSplineSet
EndChar

StartChar: Thorn
Encoding: 222 222 183
Width: 1223
GlyphClass: 2
Flags: W
LayerCount: 2
Fore
SplineSet
509 1195 m 1,0,1
 604 1213 604 1213 727 1213 c 0,2,3
 953 1213 953 1213 1067.5 1113.5 c 128,-1,4
 1182 1014 1182 1014 1182 829 c 0,5,6
 1182 596 1182 596 1004 450 c 0,7,8
 833 310 833 310 576 310 c 2,9,-1
 516 310 l 2,10,11
 456 310 456 310 404 314 c 1,12,-1
 400 319 l 1,13,-1
 375 116 l 1,14,-1
 549 87 l 1,15,-1
 541 0 l 1,16,-1
 20 0 l 1,17,-1
 29 86 l 1,18,-1
 177 116 l 1,19,-1
 338 1406 l 1,20,-1
 205 1429 l 1,21,-1
 217 1530 l 1,22,-1
 700 1530 l 1,23,-1
 689 1429 l 1,24,-1
 536 1406 l 1,25,-1
 509 1195 l 1,0,1
418 434 m 1,26,27
 493 422 493 422 586 422 c 128,-1,28
 679 422 679 422 757 450 c 0,29,30
 985 532 985 532 985 779 c 0,31,32
 985 948 985 948 921 1018 c 0,33,34
 851 1094 851 1094 674 1094 c 0,35,36
 584 1094 584 1094 494 1075 c 1,37,-1
 414 432 l 1,38,-1
 418 434 l 1,26,27
EndSplineSet
EndChar

StartChar: germandbls
Encoding: 223 223 184
Width: 1194
GlyphClass: 2
Flags: W
LayerCount: 2
Fore
SplineSet
190 927 m 2,0,1
 254 1434 254 1434 544 1548 c 0,2,3
 639 1585 639 1585 741 1585 c 128,-1,4
 843 1585 843 1585 901 1566.5 c 128,-1,5
 959 1548 959 1548 1001 1512 c 0,6,7
 1091 1433 1091 1433 1091 1293 c 0,8,9
 1091 1134 1091 1134 962 1018 c 0,10,11
 876 942 876 942 854.5 909.5 c 128,-1,12
 833 877 833 877 833 840 c 128,-1,13
 833 803 833 803 863.5 753.5 c 128,-1,14
 894 704 894 704 957 626 c 1,15,16
 1018 531 1018 531 1038 488 c 0,17,18
 1081 392 1081 392 1081 314.5 c 128,-1,19
 1081 237 1081 237 1044 177.5 c 128,-1,20
 1007 118 1007 118 946 75 c 0,21,22
 818 -16 818 -16 645 -16 c 0,23,24
 518 -16 518 -16 424 31 c 1,25,-1
 450 218 l 1,26,27
 503 156 503 156 610 126 c 0,28,29
 645 116 645 116 680 116 c 128,-1,30
 715 116 715 116 750.5 120 c 128,-1,31
 786 124 786 124 814 140 c 0,32,33
 875 174 875 174 875 278 c 0,34,35
 875 381 875 381 786 523 c 1,36,37
 652 681 652 681 652 793 c 0,38,39
 652 856 652 856 674 893 c 0,40,41
 698 933 698 933 756 999 c 1,42,43
 889 1134 889 1134 889 1287 c 0,44,45
 889 1409 889 1409 794 1450 c 0,46,47
 761 1464 761 1464 709.5 1464 c 128,-1,48
 658 1464 658 1464 605 1432 c 128,-1,49
 552 1400 552 1400 508 1329 c 0,50,51
 416 1181 416 1181 376 867 c 2,52,-1
 267 0 l 1,53,-1
 73 0 l 1,54,-1
 190 927 l 2,0,1
EndSplineSet
EndChar

StartChar: ae
Encoding: 230 230 191
Width: 1711
GlyphClass: 2
Flags: W
LayerCount: 2
Fore
SplineSet
1131 -20 m 0,0,1
 867 -20 867 -20 790 205 c 1,2,3
 737 121 737 121 639 55 c 0,4,5
 528 -20 528 -20 428.5 -20 c 128,-1,6
 329 -20 329 -20 267 12.5 c 128,-1,7
 205 45 205 45 164 102 c 0,8,9
 83 216 83 216 83 412 c 0,10,11
 83 574 83 574 160 743 c 0,12,13
 290 1031 290 1031 540 1128 c 0,14,15
 628 1162 628 1162 726.5 1162 c 128,-1,16
 825 1162 825 1162 945 1122 c 1,17,-1
 1059 1162 l 1,18,-1
 1027 1039 l 1,19,20
 1169 1162 1169 1162 1341 1162 c 0,21,22
 1479 1162 1479 1162 1552 1088 c 1,23,24
 1620 1021 1620 1021 1620 926 c 128,-1,25
 1620 831 1620 831 1585 768.5 c 128,-1,26
 1550 706 1550 706 1493 656.5 c 128,-1,27
 1436 607 1436 607 1365 570.5 c 128,-1,28
 1294 534 1294 534 1222 510 c 0,29,30
 1077 462 1077 462 970 460 c 1,31,32
 968 426 968 426 968 395 c 128,-1,33
 968 364 968 364 970.5 319.5 c 128,-1,34
 973 275 973 275 992 227 c 0,35,36
 1035 119 1035 119 1155 119 c 0,37,38
 1351 119 1351 119 1515 265 c 1,39,-1
 1561 182 l 1,40,41
 1509 111 1509 111 1400 52 c 0,42,43
 1269 -20 1269 -20 1131 -20 c 0,0,1
1294 1046 m 0,44,45
 1122 1046 1122 1046 1022 768 c 0,46,47
 987 670 987 670 975 570 c 1,48,49
 1120 577 1120 577 1254 659 c 0,50,51
 1415 757 1415 757 1415 901.5 c 128,-1,52
 1415 1046 1415 1046 1294 1046 c 0,44,45
845 998 m 1,53,54
 793 1041 793 1041 711 1041 c 128,-1,55
 629 1041 629 1041 570.5 1013 c 128,-1,56
 512 985 512 985 466 938 c 128,-1,57
 420 891 420 891 386.5 829.5 c 128,-1,58
 353 768 353 768 331 701 c 0,59,60
 288 570 288 570 288 466.5 c 128,-1,61
 288 363 288 363 299 304.5 c 128,-1,62
 310 246 310 246 331 206 c 0,63,64
 374 122 374 122 450 122 c 0,65,66
 547 122 547 122 644 198 c 0,67,68
 721 258 721 258 764 337 c 1,69,70
 760 368 760 368 760 392 c 128,-1,71
 760 416 760 416 761.5 468 c 128,-1,72
 763 520 763 520 782.5 607.5 c 128,-1,73
 802 695 802 695 836 774 c 0,74,75
 907 935 907 935 1027 1039 c 1,76,-1
 997 922 l 1,77,-1
 774 563 l 1,78,-1
 845 998 l 1,53,54
EndSplineSet
EndChar

StartChar: ccedilla
Encoding: 231 231 192
Width: 903
GlyphClass: 2
Flags: W
LayerCount: 2
Fore
SplineSet
532 -12 m 1,0,1
 543 -53 543 -53 543 -100 c 128,-1,2
 543 -147 543 -147 536.5 -208 c 128,-1,3
 530 -269 530 -269 508 -323.5 c 128,-1,4
 486 -378 486 -378 452 -409 c 0,5,6
 390 -464 390 -464 271 -464 c 0,7,8
 170 -464 170 -464 133 -436 c 1,9,-1
 168 -305 l 1,10,11
 194 -319 194 -319 232 -319 c 128,-1,12
 270 -319 270 -319 298 -308.5 c 128,-1,13
 326 -298 326 -298 348 -274 c 0,14,15
 420 -199 420 -199 411 -19 c 1,16,17
 176 -1 176 -1 108 248 c 0,18,19
 86 329 86 329 86 418 c 128,-1,20
 86 507 86 507 103 591 c 128,-1,21
 120 675 120 675 153.5 756.5 c 128,-1,22
 187 838 187 838 236.5 911.5 c 128,-1,23
 286 985 286 985 352 1040 c 0,24,25
 495 1162 495 1162 675 1162 c 0,26,27
 805 1162 805 1162 895 1115 c 1,28,-1
 844 931 l 1,29,30
 747 1016 747 1016 629 1016 c 0,31,32
 495 1016 495 1016 398 866 c 1,33,34
 295 704 295 704 295 460 c 0,35,36
 295 203 295 203 416 139 c 0,37,38
 453 119 453 119 494.5 119 c 128,-1,39
 536 119 536 119 568 125.5 c 128,-1,40
 600 132 600 132 632 146 c 0,41,42
 693 173 693 173 774 232 c 1,43,-1
 813 151 l 1,44,45
 745 69 745 69 630 18 c 0,46,47
 585 -2 585 -2 532 -12 c 1,0,1
EndSplineSet
EndChar

StartChar: eth
Encoding: 240 240 201
Width: 1176
GlyphClass: 2
Flags: W
LayerCount: 2
Fore
SplineSet
681 1589 m 1,0,1
 756 1674 756 1674 835 1771 c 1,2,-1
 938 1680 l 1,3,-1
 787 1511 l 1,4,5
 1021 1308 1021 1308 1070 1017 c 0,6,7
 1085 924 1085 924 1085 848 c 0,8,9
 1085 730 1085 730 1068 595.5 c 128,-1,10
 1051 461 1051 461 997 341 c 128,-1,11
 943 221 943 221 866 140 c 0,12,13
 707 -27 707 -27 482 -27 c 0,14,15
 297 -27 297 -27 186 110 c 0,16,17
 86 234 86 234 86 412 c 0,18,19
 86 723 86 723 260 922 c 0,20,21
 425 1110 425 1110 645 1110 c 0,22,23
 815 1110 815 1110 885 995 c 1,24,25
 847 1151 847 1151 820 1211 c 0,26,27
 772 1314 772 1314 684 1396 c 1,28,-1
 537 1231 l 1,29,-1
 431 1319 l 1,30,-1
 583 1482 l 1,31,32
 439 1591 439 1591 347 1615 c 1,33,-1
 390 1734 l 1,34,35
 506 1701 506 1701 681 1589 c 1,0,1
305.5 525 m 128,-1,37
 297 458 297 458 297 396 c 128,-1,38
 297 334 297 334 311.5 276 c 128,-1,39
 326 218 326 218 354 174 c 1,40,41
 416 81 416 81 521 81 c 0,42,43
 643 81 643 81 738 224 c 0,44,45
 834 368 834 368 858 580 c 0,46,47
 860 602 860 602 864 630 c 0,48,49
 873 706 873 706 873 728 c 128,-1,50
 873 750 873 750 869 774 c 128,-1,51
 865 798 865 798 853.5 828 c 128,-1,52
 842 858 842 858 824 888.5 c 128,-1,53
 806 919 806 919 780 943 c 0,54,55
 720 998 720 998 649.5 998 c 128,-1,56
 579 998 579 998 530.5 970 c 128,-1,57
 482 942 482 942 444 895 c 128,-1,58
 406 848 406 848 378 786.5 c 128,-1,59
 350 725 350 725 332 658.5 c 128,-1,36
 314 592 314 592 305.5 525 c 128,-1,37
EndSplineSet
EndChar

StartChar: divide
Encoding: 247 247 208
Width: 1370
GlyphClass: 2
Flags: W
LayerCount: 2
Fore
SplineSet
802.5 1036.5 m 128,-1,1
 773 1026 773 1026 746 1026 c 128,-1,2
 719 1026 719 1026 695.5 1034.5 c 128,-1,3
 672 1043 672 1043 654 1059 c 0,4,5
 617 1093 617 1093 621.5 1137.5 c 128,-1,6
 626 1182 626 1182 643.5 1209 c 128,-1,7
 661 1236 661 1236 686 1256 c 0,8,9
 738 1298 738 1298 785.5 1298 c 128,-1,10
 833 1298 833 1298 857.5 1288 c 128,-1,11
 882 1278 882 1278 896 1261 c 0,12,13
 925 1227 925 1227 920 1183.5 c 128,-1,14
 915 1140 915 1140 898 1113 c 128,-1,15
 881 1086 881 1086 856.5 1066.5 c 128,-1,0
 832 1047 832 1047 802.5 1036.5 c 128,-1,1
292 853 m 1,16,-1
 1161 853 l 1,17,-1
 1143 696 l 1,18,-1
 274 696 l 1,19,-1
 292 853 l 1,16,-1
558 285 m 128,-1,21
 541 301 541 301 533.5 321.5 c 128,-1,22
 526 342 526 342 526 371 c 128,-1,23
 526 400 526 400 545.5 431 c 128,-1,24
 565 462 565 462 590 482 c 0,25,26
 643 524 643 524 690 524 c 128,-1,27
 737 524 737 524 761 514 c 0,28,29
 823 488 823 488 823 416 c 0,30,31
 823 343 823 343 761 292 c 0,32,33
 711 252 711 252 666.5 252 c 128,-1,34
 622 252 622 252 598.5 260.5 c 128,-1,20
 575 269 575 269 558 285 c 128,-1,21
EndSplineSet
EndChar

StartChar: oslash
Encoding: 248 248 209
Width: 1143
GlyphClass: 2
Flags: W
LayerCount: 2
Fore
SplineSet
483 -18 m 0,0,1
 348 -18 348 -18 255 45 c 1,2,-1
 136 -132 l 1,3,-1
 47 -83 l 1,4,-1
 181 116 l 1,5,6
 87 238 87 238 87 459 c 0,7,8
 87 628 87 628 157 790 c 0,9,10
 270 1050 270 1050 495 1136 c 0,11,12
 570 1164 570 1164 670.5 1164 c 128,-1,13
 771 1164 771 1164 854 1117 c 1,14,-1
 979 1303 l 1,15,-1
 1068 1254 l 1,16,-1
 934 1055 l 1,17,18
 1051 931 1051 931 1051 695 c 0,19,20
 1051 418 1051 418 896 208 c 0,21,22
 792 68 792 68 642 10 c 0,23,24
 567 -18 567 -18 483 -18 c 0,0,1
762 980 m 1,25,26
 707 1043 707 1043 618 1043 c 0,27,28
 459 1043 459 1043 368 839 c 1,29,30
 294 670 294 670 294 458 c 0,31,32
 294 451 294 451 294 410 c 128,-1,33
 294 369 294 369 308 305 c 1,34,-1
 762 980 l 1,25,26
354 192 m 1,35,36
 411 104 411 104 518 104 c 0,37,38
 677 104 677 104 768 308 c 1,39,40
 842 477 842 477 842 689 c 0,41,42
 842 801 842 801 817 880 c 1,43,-1
 354 192 l 1,35,36
EndSplineSet
EndChar

StartChar: thorn
Encoding: 254 254 215
Width: 1165
GlyphClass: 2
Flags: W
LayerCount: 2
Fore
SplineSet
627 14 m 0,0,1
 540 -20 540 -20 456 -20 c 128,-1,2
 372 -20 372 -20 298 -3 c 1,3,-1
 281 -140 l 1,4,-1
 221 -520 l 1,5,-1
 31 -520 l 1,6,-1
 102 -20 l 1,7,-1
 300 1482 l 1,8,-1
 205 1525 l 1,9,-1
 235 1611 l 1,10,-1
 466 1650 l 1,11,-1
 517 1623 l 1,12,-1
 433 998 l 1,13,14
 519 1109 519 1109 642 1148 c 0,15,16
 687 1162 687 1162 755.5 1162 c 128,-1,17
 824 1162 824 1162 888 1129.5 c 128,-1,18
 952 1097 952 1097 994 1040 c 0,19,20
 1077 926 1077 926 1077 730 c 0,21,22
 1077 474 1077 474 910 240 c 0,23,24
 794 79 794 79 627 14 c 0,0,1
318 143 m 1,25,26
 370 101 370 101 455 101 c 128,-1,27
 540 101 540 101 597 129.5 c 128,-1,28
 654 158 654 158 698.5 206.5 c 128,-1,29
 743 255 743 255 775.5 317.5 c 128,-1,30
 808 380 808 380 830 448 c 0,31,32
 872 584 872 584 872 723.5 c 128,-1,33
 872 863 872 863 827 941.5 c 128,-1,34
 782 1020 782 1020 704 1020 c 0,35,36
 620 1020 620 1020 530 955 c 1,37,38
 457 901 457 901 410 829 c 1,39,-1
 318 143 l 1,25,26
EndSplineSet
EndChar

StartChar: Aogonek
Encoding: 260 260 221
Width: 1342
GlyphClass: 2
Flags: W
LayerCount: 2
Fore
SplineSet
1172 -322 m 1,0,1
 1061 -416 1061 -416 922 -416 c 0,2,3
 847 -416 847 -416 804 -372 c 0,4,5
 767 -333 767 -333 769 -291 c 0,6,7
 773 -202 773 -202 803.5 -163.5 c 128,-1,8
 834 -125 834 -125 858.5 -102 c 128,-1,9
 883 -79 883 -79 908 -61 c 128,-1,10
 933 -43 933 -43 958 -28.5 c 128,-1,11
 983 -14 983 -14 1007 0 c 1,12,-1
 819 0 l 1,13,-1
 825 86 l 1,14,-1
 960 115 l 1,15,-1
 910 436 l 1,16,-1
 358 436 l 1,17,-1
 211 116 l 1,18,-1
 360 86 l 1,19,-1
 354 0 l 1,20,-1
 -117 0 l 1,21,-1
 -108 86 l 1,22,-1
 32 115 l 1,23,-1
 706 1530 l 1,24,-1
 905 1530 l 1,25,-1
 1158 118 l 1,26,-1
 1314 86 l 1,27,-1
 1307 0 l 1,28,-1
 1123 0 l 1,29,30
 1055 -55 1055 -55 1009.5 -104.5 c 128,-1,31
 964 -154 964 -154 963 -201 c 1,32,33
 958 -264 958 -264 998 -282 c 0,34,35
 1007 -287 1007 -287 1016 -287 c 0,36,37
 1071 -287 1071 -287 1146 -228 c 1,38,-1
 1172 -322 l 1,0,1
891 557 m 1,39,-1
 786 1236 l 1,40,-1
 775 1344 l 1,41,-1
 413 557 l 1,42,-1
 891 557 l 1,39,-1
EndSplineSet
EndChar

StartChar: aogonek
Encoding: 261 261 222
Width: 1173
GlyphClass: 2
Flags: W
LayerCount: 2
Fore
SplineSet
718 136 m 1,0,1
 588 -20 588 -20 413 -20 c 0,2,3
 251 -20 251 -20 164 102 c 0,4,5
 83 216 83 216 83 412 c 0,6,7
 83 574 83 574 160 743 c 0,8,9
 290 1031 290 1031 540 1128 c 0,10,11
 628 1162 628 1162 727.5 1162 c 128,-1,12
 827 1162 827 1162 929 1128 c 1,13,-1
 1048 1162 l 1,14,-1
 917 187 l 2,15,16
 912 146 912 146 923.5 128.5 c 128,-1,17
 935 111 935 111 953 111 c 128,-1,18
 971 111 971 111 1015 137 c 1,19,-1
 1046 84 l 1,20,21
 1032 64 1032 64 999 39 c 1,22,-1
 1000 39 l 1,23,24
 884 -55 884 -55 854 -86 c 0,25,26
 793 -151 793 -151 791 -201 c 1,27,28
 786 -264 786 -264 826 -282 c 0,29,30
 835 -287 835 -287 844 -287 c 0,31,32
 899 -287 899 -287 974 -228 c 1,33,-1
 1000 -322 l 1,34,35
 889 -416 889 -416 750 -416 c 0,36,37
 675 -416 675 -416 632 -372 c 0,38,39
 595 -333 595 -333 597 -291 c 0,40,41
 601 -202 601 -202 640 -153 c 0,42,43
 697 -79 697 -79 805 -17 c 1,44,45
 716 -1 716 -1 716 102 c 0,46,47
 716 108 716 108 716 115 c 2,48,-1
 718 136 l 1,0,1
832 1008 m 1,49,50
 785 1041 785 1041 707 1041 c 128,-1,51
 629 1041 629 1041 570.5 1013 c 128,-1,52
 512 985 512 985 466 938 c 128,-1,53
 420 891 420 891 386.5 829.5 c 128,-1,54
 353 768 353 768 331 701 c 0,55,56
 288 570 288 570 288 466.5 c 128,-1,57
 288 363 288 363 299 304.5 c 128,-1,58
 310 246 310 246 331 206 c 0,59,60
 374 122 374 122 450 122 c 0,61,62
 578 122 578 122 688 236 c 0,63,64
 719 268 719 268 740 298 c 1,65,-1
 832 1008 l 1,49,50
EndSplineSet
EndChar

StartChar: Dcroat
Encoding: 272 272 233
Width: 1427
GlyphClass: 2
Flags: W
LayerCount: 2
Fore
SplineSet
28 88 m 1,0,-1
 176 118 l 1,1,-1
 252 722 l 1,2,-1
 102 722 l 1,3,-1
 118 852 l 1,4,-1
 268 852 l 1,5,-1
 338 1408 l 1,6,-1
 205 1431 l 1,7,-1
 217 1532 l 1,8,-1
 515 1532 l 1,9,10
 562 1534 562 1534 600 1537.5 c 128,-1,11
 638 1541 638 1541 658 1542.5 c 128,-1,12
 678 1544 678 1544 699 1546 c 0,13,14
 734 1548 734 1548 779 1548 c 0,15,16
 1071 1548 1071 1548 1218 1375 c 1,17,18
 1356 1211 1356 1211 1356 904 c 0,19,20
 1356 513 1356 513 1146 252 c 0,21,22
 1004 77 1004 77 796 14 c 0,23,24
 701 -14 701 -14 595 -14 c 0,25,26
 568 -14 568 -14 551.5 -13 c 128,-1,27
 535 -12 535 -12 520 -11 c 0,28,29
 458 -7 458 -7 426.5 -4.5 c 128,-1,30
 395 -2 395 -2 367 -1 c 128,-1,31
 339 0 339 0 312 1 c 128,-1,32
 285 2 285 2 264 2 c 2,33,-1
 19 2 l 1,34,-1
 28 88 l 1,0,-1
376 134 m 1,35,36
 425 116 425 116 514 109.5 c 128,-1,37
 603 103 603 103 627 103 c 1,38,39
 808 116 808 116 935 241 c 0,40,41
 1153 455 1153 455 1153 893 c 0,42,43
 1153 1187 1153 1187 1048 1314 c 1,44,45
 949 1432 949 1432 720 1432 c 0,46,47
 606 1432 606 1432 535 1413 c 1,48,-1
 465 852 l 1,49,-1
 857 852 l 1,50,-1
 841 722 l 1,51,-1
 449 722 l 1,52,-1
 376 134 l 1,35,36
EndSplineSet
EndChar

StartChar: dcroat
Encoding: 273 273 234
Width: 1179
GlyphClass: 2
Flags: W
LayerCount: 2
Fore
SplineSet
844 -20 m 0,0,1
 724 -20 724 -20 724 103 c 0,2,3
 724 109 724 109 724 115 c 2,4,-1
 724 142 l 1,5,6
 636 33 636 33 510 -6 c 0,7,8
 464 -20 464 -20 396.5 -20 c 128,-1,9
 329 -20 329 -20 267 12.5 c 128,-1,10
 205 45 205 45 164 102 c 0,11,12
 83 216 83 216 83 412 c 0,13,14
 83 574 83 574 160 743 c 0,15,16
 290 1031 290 1031 540 1128 c 0,17,18
 628 1162 628 1162 710.5 1162 c 128,-1,19
 793 1162 793 1162 869 1144 c 1,20,-1
 887 1262 l 1,21,-1
 637 1262 l 1,22,-1
 653 1392 l 1,23,-1
 906 1392 l 1,24,-1
 920 1482 l 1,25,-1
 797 1525 l 1,26,-1
 818 1608 l 1,27,-1
 1082 1650 l 1,28,-1
 1135 1623 l 1,29,-1
 1101 1392 l 1,30,-1
 1235 1392 l 1,31,-1
 1219 1262 l 1,32,-1
 1082 1262 l 1,33,-1
 927 187 l 2,34,35
 916 111 916 111 948 111 c 0,36,37
 971 111 971 111 1015 137 c 1,38,-1
 1046 85 l 1,39,40
 1003 28 1003 28 916 -6 c 0,41,42
 882 -20 882 -20 844 -20 c 0,0,1
846 997 m 1,43,44
 795 1041 795 1041 712 1041 c 128,-1,45
 629 1041 629 1041 570.5 1012.5 c 128,-1,46
 512 984 512 984 466 935.5 c 128,-1,47
 420 887 420 887 386.5 824.5 c 128,-1,48
 353 762 353 762 331 694 c 0,49,50
 288 560 288 560 288 419.5 c 128,-1,51
 288 279 288 279 330.5 200.5 c 128,-1,52
 373 122 373 122 446 122 c 0,53,54
 570 122 570 122 686 238 c 0,55,56
 718 270 718 270 740 300 c 1,57,-1
 846 997 l 1,43,44
EndSplineSet
EndChar

StartChar: Eogonek
Encoding: 280 280 241
Width: 1219
GlyphClass: 2
Flags: W
LayerCount: 2
Fore
SplineSet
1005 -322 m 1,0,1
 894 -416 894 -416 755 -416 c 0,2,3
 680 -416 680 -416 637 -372 c 0,4,5
 600 -333 600 -333 602 -291 c 0,6,7
 606 -202 606 -202 636.5 -163.5 c 128,-1,8
 667 -125 667 -125 691.5 -102 c 128,-1,9
 716 -79 716 -79 741 -61 c 128,-1,10
 766 -43 766 -43 791 -28.5 c 128,-1,11
 816 -14 816 -14 840 0 c 1,12,-1
 18 0 l 1,13,-1
 28 86 l 1,14,-1
 177 115 l 1,15,-1
 337 1406 l 1,16,-1
 204 1429 l 1,17,-1
 216 1530 l 1,18,-1
 1143 1530 l 1,19,-1
 1136 1220 l 1,20,-1
 1030 1220 l 1,21,-1
 982 1408 l 1,22,-1
 541 1422 l 1,23,-1
 469 854 l 1,24,-1
 906 861 l 1,25,-1
 894 705 l 1,26,-1
 457 721 l 1,27,-1
 374 116 l 1,28,-1
 931 140 l 1,29,-1
 1050 347 l 1,30,-1
 1154 316 l 1,31,-1
 1065 0 l 1,32,-1
 956 0 l 1,33,34
 888 -55 888 -55 842.5 -104.5 c 128,-1,35
 797 -154 797 -154 796 -201 c 1,36,37
 791 -264 791 -264 830 -282 c 0,38,39
 840 -287 840 -287 849 -287 c 0,40,41
 904 -287 904 -287 979 -228 c 1,42,-1
 1005 -322 l 1,0,1
EndSplineSet
EndChar

StartChar: eogonek
Encoding: 281 281 242
Width: 1051
GlyphClass: 2
Flags: W
LayerCount: 2
Fore
SplineSet
610 -3 m 1,0,1
 548 -20 548 -20 464 -20 c 128,-1,2
 380 -20 380 -20 304 18 c 0,3,4
 154 92 154 92 106 263 c 0,5,6
 86 337 86 337 86 380 c 128,-1,7
 86 423 86 423 87.5 473.5 c 128,-1,8
 89 524 89 524 110.5 615 c 128,-1,9
 132 706 132 706 170 787.5 c 128,-1,10
 208 869 208 869 260.5 937.5 c 128,-1,11
 313 1006 313 1006 378 1056 c 0,12,13
 516 1162 516 1162 676 1162 c 0,14,15
 885 1162 885 1162 942 1012 c 0,16,17
 960 966 960 966 960 901 c 128,-1,18
 960 836 960 836 924 772.5 c 128,-1,19
 888 709 888 709 830 659 c 128,-1,20
 772 609 772 609 699 572.5 c 128,-1,21
 626 536 626 536 552 512 c 0,22,23
 403 462 403 462 295 460 c 1,24,25
 293 439 293 439 293 421 c 128,-1,26
 293 403 293 403 294 378 c 128,-1,27
 295 353 295 353 304 315 c 128,-1,28
 313 277 313 277 329 241.5 c 128,-1,29
 345 206 345 206 370 179 c 0,30,31
 426 119 426 119 510 119 c 0,32,33
 693 119 693 119 850 265 c 1,34,-1
 896 182 l 1,35,36
 858 132 858 132 799 88 c 1,37,38
 656 -34 656 -34 594 -142 c 1,39,40
 549 -218 549 -218 589 -268 c 0,41,42
 604 -287 604 -287 625 -287 c 0,43,44
 680 -287 680 -287 755 -228 c 1,45,-1
 781 -322 l 1,46,47
 670 -416 670 -416 531 -416 c 0,48,49
 456 -416 456 -416 413 -372 c 0,50,51
 376 -333 376 -333 378 -291 c 0,52,53
 382 -202 382 -202 412 -164 c 128,-1,54
 442 -126 442 -126 466 -103 c 128,-1,55
 490 -80 490 -80 514 -62.5 c 128,-1,56
 538 -45 538 -45 562 -31 c 128,-1,57
 586 -17 586 -17 610 -3 c 1,0,1
300 570 m 1,58,59
 446 577 446 577 588 660 c 0,60,61
 689 718 689 718 732 802 c 0,62,63
 755 845 755 845 755 910 c 128,-1,64
 755 975 755 975 720 1010.5 c 128,-1,65
 685 1046 685 1046 631.5 1046 c 128,-1,66
 578 1046 578 1046 535 1022.5 c 128,-1,67
 492 999 492 999 457.5 960 c 128,-1,68
 423 921 423 921 395.5 871 c 128,-1,69
 368 821 368 821 348 768 c 0,70,71
 312 668 312 668 300 570 c 1,58,59
EndSplineSet
EndChar

StartChar: gcommaaccent
Encoding: 291 291 252
Width: 1153
GlyphClass: 2
Flags: W
LayerCount: 2
Fore
SplineSet
701 1296 m 1,0,1
 636 1309 636 1309 598 1377 c 0,2,3
 568 1430 568 1430 568 1494 c 0,4,5
 568 1612 568 1612 660 1712 c 0,6,7
 731 1789 731 1789 800 1805 c 1,8,-1
 840 1765 l 1,9,-1
 837 1739 l 1,10,11
 799 1710 799 1710 781.5 1676 c 128,-1,12
 764 1642 764 1642 760.5 1606 c 128,-1,13
 757 1570 757 1570 762 1551 c 128,-1,14
 767 1532 767 1532 777 1515 c 0,15,16
 800 1476 800 1476 831 1470 c 1,17,-1
 825 1416 l 1,18,-1
 701 1296 l 1,0,1
540 1128 m 0,19,20
 628 1162 628 1162 726.5 1162 c 128,-1,21
 825 1162 825 1162 948 1121 c 1,22,-1
 1068 1162 l 1,23,-1
 875 -77 l 1,24,25
 842 -296 842 -296 662 -411 c 0,26,27
 511 -508 511 -508 338 -508 c 0,28,29
 207 -508 207 -508 119 -473 c 1,30,-1
 169 -288 l 1,31,32
 299 -350 299 -350 436 -350 c 0,33,34
 563 -350 563 -350 608 -310 c 0,35,36
 651 -271 651 -271 671 -145 c 2,37,-1
 716 133 l 1,38,39
 630 30 630 30 506 -7 c 0,40,41
 462 -20 462 -20 395.5 -20 c 128,-1,42
 329 -20 329 -20 267 12.5 c 128,-1,43
 205 45 205 45 164 102 c 0,44,45
 83 216 83 216 83 412 c 0,46,47
 83 574 83 574 160 743 c 0,48,49
 290 1031 290 1031 540 1128 c 0,19,20
843 1000 m 1,50,51
 791 1041 791 1041 710 1041 c 128,-1,52
 629 1041 629 1041 570.5 1012.5 c 128,-1,53
 512 984 512 984 466 935.5 c 128,-1,54
 420 887 420 887 386.5 824.5 c 128,-1,55
 353 762 353 762 331 694 c 0,56,57
 288 560 288 560 288 419.5 c 128,-1,58
 288 279 288 279 330.5 200.5 c 128,-1,59
 373 122 373 122 446 122 c 0,60,61
 570 122 570 122 688 240 c 0,62,63
 720 272 720 272 742 302 c 1,64,-1
 843 1000 l 1,50,51
EndSplineSet
EndChar

StartChar: Hbar
Encoding: 294 294 255
Width: 1533
GlyphClass: 2
Flags: W
LayerCount: 2
Fore
SplineSet
29 86 m 1,0,-1
 177 116 l 1,1,-1
 286 992 l 1,2,-1
 92 992 l 1,3,-1
 106 1122 l 1,4,-1
 302 1122 l 1,5,-1
 338 1406 l 1,6,-1
 205 1429 l 1,7,-1
 217 1530 l 1,8,-1
 700 1530 l 1,9,-1
 689 1429 l 1,10,-1
 536 1406 l 1,11,-1
 500 1122 l 1,12,-1
 1154 1122 l 1,13,-1
 1190 1406 l 1,14,-1
 1040 1429 l 1,15,-1
 1050 1530 l 1,16,-1
 1537 1530 l 1,17,-1
 1525 1429 l 1,18,-1
 1387 1406 l 1,19,-1
 1351 1122 l 1,20,-1
 1555 1122 l 1,21,-1
 1541 992 l 1,22,-1
 1335 992 l 1,23,-1
 1227 117 l 1,24,-1
 1378 86 l 1,25,-1
 1369 0 l 1,26,-1
 859 0 l 1,27,-1
 867 87 l 1,28,-1
 1030 117 l 1,29,-1
 1092 622 l 1,30,-1
 438 622 l 1,31,-1
 375 116 l 1,32,-1
 532 87 l 1,33,-1
 524 0 l 1,34,-1
 20 0 l 1,35,-1
 29 86 l 1,0,-1
1108 752 m 1,36,-1
 1138 992 l 1,37,-1
 484 992 l 1,38,-1
 454 752 l 1,39,-1
 1108 752 l 1,36,-1
EndSplineSet
EndChar

StartChar: hbar
Encoding: 295 295 256
Width: 1239
GlyphClass: 2
Flags: W
LayerCount: 2
Fore
SplineSet
890 -21 m 0,0,1
 760 -21 760 -21 767 111 c 0,2,3
 772 197 772 197 790.5 299 c 128,-1,4
 809 401 809 401 816.5 444 c 128,-1,5
 824 487 824 487 834 538.5 c 128,-1,6
 844 590 844 590 852 644 c 0,7,8
 872 766 872 766 872 835 c 128,-1,9
 872 904 872 904 864 935 c 128,-1,10
 856 966 856 966 842 982 c 0,11,12
 820 1005 820 1005 769.5 1005 c 128,-1,13
 719 1005 719 1005 674 985.5 c 128,-1,14
 629 966 629 966 584 932 c 0,15,16
 487 859 487 859 413 750 c 1,17,-1
 313 0 l 1,18,-1
 119 0 l 1,19,-1
 283 1262 l 1,20,-1
 126 1262 l 1,21,-1
 142 1392 l 1,22,-1
 300 1392 l 1,23,-1
 312 1482 l 1,24,-1
 194 1525 l 1,25,-1
 211 1608 l 1,26,-1
 477 1650 l 1,27,-1
 529 1623 l 1,28,-1
 498 1392 l 1,29,-1
 724 1392 l 1,30,-1
 708 1262 l 1,31,-1
 481 1262 l 1,32,-1
 434 911 l 1,33,34
 565 1086 565 1086 730 1142 c 0,35,36
 787 1162 787 1162 842.5 1162 c 128,-1,37
 898 1162 898 1162 939.5 1146.5 c 128,-1,38
 981 1131 981 1131 1010 1096 c 0,39,40
 1072 1023 1072 1023 1072 861 c 0,41,42
 1072 772 1072 772 1050.5 659.5 c 128,-1,43
 1029 547 1029 547 1018 488 c 0,44,45
 966 188 966 188 978 130 c 0,46,47
 983 110 983 110 1000.5 110 c 128,-1,48
 1018 110 1018 110 1064 136 c 1,49,-1
 1095 84 l 1,50,51
 1062 31 1062 31 963 -8 c 0,52,53
 928 -21 928 -21 890 -21 c 0,0,1
EndSplineSet
EndChar

StartChar: Iogonek
Encoding: 302 302 263
Width: 706
GlyphClass: 2
Flags: W
LayerCount: 2
Fore
SplineSet
393 -322 m 1,0,1
 282 -416 282 -416 143 -416 c 0,2,3
 68 -416 68 -416 25 -372 c 0,4,5
 -10 -335 -10 -335 -10 -285 c 0,6,7
 -10 -208 -10 -208 22.5 -166.5 c 128,-1,8
 55 -125 55 -125 79.5 -102 c 128,-1,9
 104 -79 104 -79 129 -61 c 128,-1,10
 154 -43 154 -43 179 -28.5 c 128,-1,11
 204 -14 204 -14 228 0 c 1,12,-1
 20 0 l 1,13,-1
 29 86 l 1,14,-1
 177 116 l 1,15,-1
 338 1406 l 1,16,-1
 205 1429 l 1,17,-1
 217 1530 l 1,18,-1
 700 1530 l 1,19,-1
 689 1429 l 1,20,-1
 536 1406 l 1,21,-1
 375 116 l 1,22,-1
 532 87 l 1,23,-1
 524 0 l 1,24,-1
 344 0 l 1,25,26
 276 -55 276 -55 230.5 -104.5 c 128,-1,27
 185 -154 185 -154 184 -201 c 1,28,29
 179 -264 179 -264 218 -282 c 0,30,31
 228 -287 228 -287 237 -287 c 0,32,33
 292 -287 292 -287 367 -228 c 1,34,-1
 393 -322 l 1,0,1
EndSplineSet
EndChar

StartChar: iogonek
Encoding: 303 303 264
Width: 641
GlyphClass: 2
Flags: W
LayerCount: 2
Fore
SplineSet
434 1388 m 0,0,1
 408 1388 408 1388 386.5 1397.5 c 128,-1,2
 365 1407 365 1407 349 1424 c 0,3,4
 315 1459 315 1459 316.5 1498 c 128,-1,5
 318 1537 318 1537 331.5 1563 c 128,-1,6
 345 1589 345 1589 366 1608 c 0,7,8
 412 1651 412 1651 451 1651 c 128,-1,9
 490 1651 490 1651 513 1642 c 0,10,11
 583 1613 583 1613 583 1541 c 0,12,13
 583 1480 583 1480 536 1432 c 1,14,15
 491 1388 491 1388 434 1388 c 0,0,1
439 -322 m 1,16,17
 328 -416 328 -416 189 -416 c 0,18,19
 114 -416 114 -416 71 -372 c 0,20,21
 36 -335 36 -335 36 -285 c 0,22,23
 36 -208 36 -208 77 -155 c 0,24,25
 137 -78 137 -78 245 -16 c 1,26,27
 162 0 162 0 162 91 c 0,28,29
 162 164 162 164 213 491.5 c 128,-1,30
 264 819 264 819 285 963 c 1,31,-1
 137 1014 l 1,32,-1
 155 1095 l 1,33,-1
 457 1146 l 1,34,-1
 506 1122 l 1,35,-1
 370 187 l 2,36,37
 367 168 367 168 367 154 c 0,38,39
 367 111 367 111 391.5 111 c 128,-1,40
 416 111 416 111 459 138 c 1,41,-1
 491 85 l 1,42,43
 467 53 467 53 419 23 c 1,44,45
 281 -87 281 -87 246 -148 c 0,46,47
 231 -175 231 -175 229.5 -200 c 128,-1,48
 228 -225 228 -225 233 -241.5 c 128,-1,49
 238 -258 238 -258 246 -268 c 0,50,51
 263 -287 263 -287 283 -287 c 0,52,53
 338 -287 338 -287 413 -228 c 1,54,-1
 439 -322 l 1,16,17
EndSplineSet
EndChar

StartChar: dotlessi
Encoding: 305 305 266
Width: 641
GlyphClass: 2
Flags: W
LayerCount: 2
Fore
SplineSet
286 -20 m 0,0,1
 162 -20 162 -20 162 94 c 0,2,3
 162 166 162 166 213 492.5 c 128,-1,4
 264 819 264 819 285 963 c 1,5,-1
 137 1014 l 1,6,-1
 155 1095 l 1,7,-1
 457 1146 l 1,8,-1
 506 1122 l 1,9,-1
 370 187 l 2,10,11
 367 168 367 168 367 154 c 0,12,13
 367 111 367 111 391.5 111 c 128,-1,14
 416 111 416 111 459 138 c 1,15,-1
 491 85 l 1,16,17
 449 29 449 29 358 -6 c 0,18,19
 324 -20 324 -20 286 -20 c 0,0,1
EndSplineSet
EndChar

StartChar: kgreenlandic
Encoding: 312 312 273
Width: 1070
GlyphClass: 2
Flags: W
LayerCount: 2
Fore
SplineSet
264 982 m 1,0,-1
 148 1025 l 1,1,-1
 169 1109 l 1,2,-1
 428 1151 l 1,3,-1
 479 1124 l 1,4,-1
 330 0 l 1,5,-1
 138 0 l 1,6,-1
 264 982 l 1,0,-1
877 134.5 m 128,-1,8
 906 106 906 106 925.5 106 c 128,-1,9
 945 106 945 106 1000 125 c 1,10,-1
 1030 79 l 1,11,12
 987 18 987 18 881 -10 c 0,13,14
 847 -19 847 -19 809 -19 c 0,15,16
 722 -19 722 -19 669 88 c 2,17,-1
 421 582 l 1,18,-1
 862 1130 l 1,19,-1
 1093 1130 l 1,20,-1
 604 584 l 1,21,-1
 823 206 l 2,22,7
 848 163 848 163 877 134.5 c 128,-1,8
EndSplineSet
EndChar

StartChar: lacute
Encoding: 314 314 275
Width: 606
GlyphClass: 2
Flags: W
LayerCount: 2
Fore
SplineSet
257 -20 m 0,0,1
 142 -20 142 -20 142 102 c 0,2,3
 142 108 142 108 142 115 c 2,4,-1
 148 192 l 1,5,-1
 314 1355 l 1,6,-1
 191 1398 l 1,7,-1
 212 1481 l 1,8,-1
 474 1523 l 1,9,-1
 522 1496 l 1,10,-1
 338 187 l 1,11,12
 334 111 334 111 358.5 111 c 128,-1,13
 383 111 383 111 427 137 c 1,14,-1
 458 85 l 1,15,16
 415 28 415 28 328 -6 c 0,17,18
 294 -20 294 -20 257 -20 c 0,0,1
383 1658 m 1,19,-1
 659 2000 l 1,20,-1
 783 1862 l 1,21,22
 748 1788 748 1788 626 1709 c 0,23,24
 530 1647 530 1647 436 1613 c 1,25,-1
 383 1658 l 1,19,-1
EndSplineSet
EndChar

StartChar: Lslash
Encoding: 321 321 282
Width: 1167
GlyphClass: 2
Flags: W
LayerCount: 2
Fore
SplineSet
29 89 m 1,0,-1
 177 118 l 1,1,-1
 231 550 l 1,2,-1
 71 483 l 1,3,-1
 35 601 l 1,4,-1
 249 693 l 1,5,-1
 338 1408 l 1,6,-1
 205 1431 l 1,7,-1
 217 1532 l 1,8,-1
 735 1532 l 1,9,-1
 724 1431 l 1,10,-1
 536 1408 l 1,11,-1
 458 783 l 1,12,-1
 860 957 l 1,13,-1
 895 830 l 1,14,-1
 440 638 l 1,15,-1
 375 118 l 1,16,-1
 843 129 l 1,17,-1
 979 456 l 1,18,-1
 1096 433 l 1,19,-1
 1000 2 l 1,20,-1
 21 2 l 1,21,-1
 29 89 l 1,0,-1
EndSplineSet
EndChar

StartChar: lslash
Encoding: 322 322 283
Width: 606
GlyphClass: 2
Flags: W
LayerCount: 2
Fore
SplineSet
257 -20 m 0,0,1
 142 -20 142 -20 142 102 c 0,2,3
 142 108 142 108 142 115 c 2,4,-1
 148 192 l 1,5,-1
 229 760 l 1,6,-1
 85 704 l 1,7,-1
 85 841 l 1,8,-1
 250 908 l 1,9,-1
 332 1482 l 1,10,-1
 209 1525 l 1,11,-1
 230 1608 l 1,12,-1
 492 1650 l 1,13,-1
 540 1623 l 1,14,-1
 451 991 l 1,15,-1
 619 1060 l 1,16,-1
 619 913 l 1,17,-1
 429 839 l 1,18,-1
 338 187 l 1,19,20
 334 111 334 111 358.5 111 c 128,-1,21
 383 111 383 111 427 137 c 1,22,-1
 458 85 l 1,23,24
 415 28 415 28 328 -6 c 0,25,26
 294 -20 294 -20 257 -20 c 0,0,1
EndSplineSet
EndChar

StartChar: Eng
Encoding: 330 330 290
Width: 1516
GlyphClass: 2
Flags: W
LayerCount: 2
Fore
SplineSet
41 86 m 1,0,-1
 177 114 l 1,1,-1
 351 1406 l 1,2,-1
 199 1429 l 1,3,-1
 216 1530 l 1,4,-1
 557 1530 l 1,5,-1
 1033 418 l 1,6,-1
 1094 225 l 1,7,-1
 1229 1407 l 1,8,-1
 1089 1429 l 1,9,-1
 1101 1530 l 1,10,-1
 1548 1530 l 1,11,-1
 1538 1429 l 1,12,-1
 1392 1406 l 1,13,-1
 1194 0 l 2,14,15
 1171 -162 1171 -162 1020 -258 c 0,16,17
 903 -333 903 -333 731 -365 c 1,18,-1
 696 -277 l 1,19,20
 884 -212 884 -212 966 -94 c 0,21,22
 996 -51 996 -51 1006 0 c 1,23,-1
 528 1095 l 1,24,-1
 471 1278 l 1,25,-1
 350 116 l 1,26,-1
 504 87 l 1,27,-1
 496 0 l 1,28,-1
 33 0 l 1,29,-1
 41 86 l 1,0,-1
EndSplineSet
EndChar

StartChar: eng
Encoding: 331 331 291
Width: 1262
GlyphClass: 2
Flags: W
LayerCount: 2
Fore
SplineSet
426 -400 m 1,0,1
 454 -412 454 -412 511.5 -412 c 128,-1,2
 569 -412 569 -412 619 -371 c 128,-1,3
 669 -330 669 -330 704 -263 c 0,4,5
 773 -128 773 -128 824 234 c 1,6,7
 889 686 889 686 889 862 c 0,8,9
 889 988 889 988 823 1001 c 0,10,11
 802 1005 802 1005 769.5 1005 c 128,-1,12
 737 1005 737 1005 692.5 986 c 128,-1,13
 648 967 648 967 603 933 c 0,14,15
 508 861 508 861 432 755 c 1,16,-1
 330 0 l 1,17,-1
 135 0 l 1,18,-1
 263 943 l 1,19,-1
 271 941 l 1,20,-1
 164 1005 l 1,21,-1
 182 1094 l 1,22,-1
 424 1146 l 1,23,-1
 472 1122 l 1,24,-1
 455 926 l 1,25,26
 588 1089 588 1089 752 1144 c 0,27,28
 807 1162 807 1162 863 1162 c 0,29,30
 1089 1162 1089 1162 1089 888 c 0,31,32
 1089 650 1089 650 1019 211 c 0,33,34
 1001 99 1001 99 981 0 c 0,35,36
 877 -518 877 -518 531 -518 c 0,37,38
 426 -518 426 -518 391 -481 c 1,39,-1
 426 -400 l 1,0,1
EndSplineSet
EndChar

StartChar: OE
Encoding: 338 338 298
Width: 2216
GlyphClass: 2
Flags: W
LayerCount: 2
Fore
SplineSet
612 -20 m 0,0,1
 504 -20 504 -20 410 24 c 128,-1,2
 316 68 316 68 248 150 c 1,3,4
 102 330 102 330 102 650 c 0,5,6
 102 1026 102 1026 302 1284 c 0,7,8
 433 1452 433 1452 616 1516 c 0,9,10
 707 1547 707 1547 811.5 1547 c 128,-1,11
 916 1547 916 1547 1000.5 1501 c 128,-1,12
 1085 1455 1085 1455 1144 1376 c 0,13,14
 1261 1218 1261 1218 1278 959 c 1,15,-1
 1336 1421 l 1,16,-1
 1222 1440 l 1,17,-1
 1231 1530 l 1,18,-1
 2140 1530 l 1,19,-1
 2133 1220 l 1,20,-1
 2027 1220 l 1,21,-1
 1979 1408 l 1,22,-1
 1538 1422 l 1,23,-1
 1466 854 l 1,24,-1
 1903 861 l 1,25,-1
 1891 705 l 1,26,-1
 1454 721 l 1,27,-1
 1371 116 l 1,28,-1
 1928 140 l 1,29,-1
 2047 347 l 1,30,-1
 2151 316 l 1,31,-1
 2062 0 l 1,32,-1
 1038 0 l 1,33,-1
 1048 86 l 1,34,-1
 1174 115 l 1,35,-1
 1220 491 l 1,36,37
 1143 258 1143 258 984 120 c 0,38,39
 822 -20 822 -20 612 -20 c 0,0,1
328 456 m 0,40,41
 386 100 386 100 649 100 c 0,42,43
 745 100 745 100 829 157 c 0,44,45
 999 274 999 274 1068 558 c 0,46,47
 1099 688 1099 688 1099 837 c 0,48,49
 1099 1288 1099 1288 910 1390 c 0,50,51
 850 1422 850 1422 778 1422 c 128,-1,52
 706 1422 706 1422 645.5 1397 c 128,-1,53
 585 1372 585 1372 533 1326 c 128,-1,54
 481 1280 481 1280 438 1216 c 0,55,56
 353 1088 353 1088 320 900 c 0,57,58
 306 819 306 819 306 770 c 0,59,60
 306 589 306 589 328 456 c 0,40,41
EndSplineSet
EndChar

StartChar: oe
Encoding: 339 339 299
Width: 1778
GlyphClass: 2
Flags: W
LayerCount: 2
Fore
SplineSet
869 173 m 1,0,1
 707 -20 707 -20 483 -20 c 0,2,3
 295 -20 295 -20 192 100 c 1,4,5
 87 224 87 224 87 457 c 0,6,7
 87 626 87 626 157 788 c 0,8,9
 270 1048 270 1048 495 1134 c 0,10,11
 570 1162 570 1162 654 1162 c 0,12,13
 904 1162 904 1162 1001 954 c 1,14,15
 1172 1162 1172 1162 1403 1162 c 0,16,17
 1612 1162 1612 1162 1670 1012 c 0,18,19
 1687 966 1687 966 1687 901 c 128,-1,20
 1687 836 1687 836 1651 772.5 c 128,-1,21
 1615 709 1615 709 1557 659 c 128,-1,22
 1499 609 1499 609 1426 572.5 c 128,-1,23
 1353 536 1353 536 1279 512 c 0,24,25
 1130 462 1130 462 1022 460 c 1,26,27
 1019 439 1019 439 1019 421 c 128,-1,28
 1019 403 1019 403 1020.5 378 c 128,-1,29
 1022 353 1022 353 1031 315 c 128,-1,30
 1040 277 1040 277 1056 241.5 c 128,-1,31
 1072 206 1072 206 1097 179 c 0,32,33
 1153 119 1153 119 1237 119 c 0,34,35
 1420 119 1420 119 1577 265 c 1,36,-1
 1623 182 l 1,37,38
 1573 110 1573 110 1470 52 c 0,39,40
 1344 -20 1344 -20 1213 -20 c 0,41,42
 975 -20 975 -20 869 173 c 1,0,1
1027 570 m 1,43,44
 1174 577 1174 577 1316 660 c 0,45,46
 1416 718 1416 718 1460 802 c 0,47,48
 1482 845 1482 845 1482 910 c 128,-1,49
 1482 975 1482 975 1447 1010.5 c 128,-1,50
 1412 1046 1412 1046 1358.5 1046 c 128,-1,51
 1305 1046 1305 1046 1262 1022.5 c 128,-1,52
 1219 999 1219 999 1184.5 960 c 128,-1,53
 1150 921 1150 921 1122.5 871 c 128,-1,54
 1095 821 1095 821 1076 768 c 0,55,56
 1039 668 1039 668 1027 570 c 1,43,44
422 126 m 0,57,58
 463 102 463 102 519.5 102 c 128,-1,59
 576 102 576 102 623 129.5 c 128,-1,60
 670 157 670 157 706 204 c 1,61,62
 776 292 776 292 813 440 c 1,63,64
 818 539 818 539 841 630 c 1,65,66
 842 648 842 648 842 666 c 128,-1,67
 842 684 842 684 841.5 732.5 c 128,-1,68
 841 781 841 781 826.5 844 c 128,-1,69
 812 907 812 907 784 950 c 0,70,71
 726 1041 726 1041 618 1041 c 0,72,73
 459 1041 459 1041 368 837 c 1,74,75
 294 668 294 668 294 456 c 0,76,77
 294 198 294 198 422 126 c 0,57,58
EndSplineSet
EndChar

StartChar: Scedilla
Encoding: 350 350 310
Width: 1094
GlyphClass: 2
Flags: W
LayerCount: 2
Fore
SplineSet
523 -20 m 1,0,1
 532 -58 532 -58 532 -102 c 128,-1,2
 532 -146 532 -146 525.5 -207.5 c 128,-1,3
 519 -269 519 -269 497 -323.5 c 128,-1,4
 475 -378 475 -378 440 -409 c 0,5,6
 379 -464 379 -464 260 -464 c 0,7,8
 159 -464 159 -464 122 -436 c 1,9,-1
 157 -305 l 1,10,11
 183 -319 183 -319 221 -319 c 128,-1,12
 259 -319 259 -319 287 -308.5 c 128,-1,13
 315 -298 315 -298 338 -274 c 0,14,15
 401 -208 401 -208 401 -47 c 0,16,17
 401 -33 401 -33 400 -21 c 1,18,19
 226 -12 226 -12 104 39 c 0,20,21
 70 53 70 53 54 65 c 1,22,-1
 95 343 l 1,23,-1
 211 343 l 1,24,-1
 237 150 l 1,25,26
 320 92 320 92 465 92 c 0,27,28
 580 92 580 92 666 146 c 0,29,30
 781 218 781 218 781 352 c 0,31,32
 781 499 781 499 632 614 c 0,33,34
 586 650 586 650 530 686 c 128,-1,35
 474 722 474 722 414 764.5 c 128,-1,36
 354 807 354 807 306 859 c 0,37,38
 194 979 194 979 194 1131 c 0,39,40
 194 1318 194 1318 330 1434 c 1,41,42
 464 1550 464 1550 663 1550 c 0,43,44
 908 1550 908 1550 1036 1465 c 1,45,-1
 990 1203 l 1,46,-1
 884 1203 l 1,47,-1
 856 1382 l 1,48,49
 786 1433 786 1433 656 1433 c 0,50,51
 485 1433 485 1433 419 1312 c 0,52,53
 391 1260 391 1260 391 1194 c 128,-1,54
 391 1128 391 1128 409.5 1081.5 c 128,-1,55
 428 1035 428 1035 464 994 c 0,56,57
 520 928 520 928 614 869.5 c 128,-1,58
 708 811 708 811 766.5 770.5 c 128,-1,59
 825 730 825 730 872 680 c 0,60,61
 979 568 979 568 979 423 c 0,62,63
 979 232 979 232 852 113 c 0,64,65
 727 -3 727 -3 523 -20 c 1,0,1
EndSplineSet
Substitution2: "'locl' Localized Forms lookup 7 subtable" uni0218
Substitution2: "'locl' Localized Forms lookup 6 subtable" uni0218
Substitution2: "'aalt' Access All Alternates in Latin lookup 0 subtable" uni0218
EndChar

StartChar: scedilla
Encoding: 351 351 311
Width: 885
GlyphClass: 2
Flags: W
LayerCount: 2
Fore
SplineSet
447 -10 m 1,0,1
 458 -51 458 -51 458 -99 c 128,-1,2
 458 -147 458 -147 451.5 -208 c 128,-1,3
 445 -269 445 -269 423 -323.5 c 128,-1,4
 401 -378 401 -378 366 -409 c 0,5,6
 305 -464 305 -464 186 -464 c 0,7,8
 85 -464 85 -464 48 -436 c 1,9,-1
 83 -305 l 1,10,11
 109 -319 109 -319 147 -319 c 128,-1,12
 185 -319 185 -319 213 -308.5 c 128,-1,13
 241 -298 241 -298 264 -274 c 0,14,15
 327 -208 327 -208 327 -46 c 0,16,17
 327 -31 327 -31 326 -20 c 1,18,19
 189 -17 189 -17 88 18 c 0,20,21
 59 28 59 28 47 39 c 1,22,-1
 83 190 l 1,23,24
 151 143 151 143 264 122 c 0,25,26
 306 115 306 115 344.5 115 c 128,-1,27
 383 115 383 115 418 119 c 128,-1,28
 453 123 453 123 482 138 c 0,29,30
 550 171 550 171 550 259 c 0,31,32
 550 361 550 361 438 448 c 0,33,34
 407 472 407 472 377.5 494.5 c 128,-1,35
 348 517 348 517 312.5 550.5 c 128,-1,36
 277 584 277 584 244 628 c 0,37,38
 166 734 166 734 166 826 c 128,-1,39
 166 918 166 918 197.5 977.5 c 128,-1,40
 229 1037 229 1037 282 1078 c 0,41,42
 391 1162 391 1162 550 1162 c 0,43,44
 662 1162 662 1162 728 1147 c 128,-1,45
 794 1132 794 1132 806 1126 c 1,46,-1
 768 959 l 1,47,48
 742 997 742 997 628 1024 c 0,49,50
 588 1034 588 1034 548.5 1034 c 128,-1,51
 509 1034 509 1034 478 1028 c 128,-1,52
 447 1022 447 1022 422 1006 c 0,53,54
 354 965 354 965 354 876 c 0,55,56
 354 761 354 761 513 640 c 0,57,58
 613 563 613 563 655 509 c 0,59,60
 737 403 737 403 737 291 c 0,61,62
 737 168 737 168 653 88 c 1,63,64
 576 13 576 13 447 -10 c 1,0,1
EndSplineSet
Substitution2: "'locl' Localized Forms lookup 7 subtable" uni0219
Substitution2: "'locl' Localized Forms lookup 6 subtable" uni0219
Substitution2: "'aalt' Access All Alternates in Latin lookup 0 subtable" uni0219
EndChar

StartChar: uni0162
Encoding: 354 354 314
Width: 1225
GlyphClass: 2
Flags: W
LayerCount: 2
Fore
SplineSet
588 0 m 1,0,1
 602 -44 602 -44 602 -95.5 c 128,-1,2
 602 -147 602 -147 595.5 -208 c 128,-1,3
 589 -269 589 -269 567 -323.5 c 128,-1,4
 545 -378 545 -378 510 -409 c 0,5,6
 449 -464 449 -464 330 -464 c 0,7,8
 229 -464 229 -464 192 -436 c 1,9,-1
 227 -305 l 1,10,11
 253 -319 253 -319 291 -319 c 128,-1,12
 329 -319 329 -319 357 -308.5 c 128,-1,13
 385 -298 385 -298 408 -274 c 0,14,15
 471 -208 471 -208 471 -48 c 0,16,17
 471 -20 471 -20 468 0 c 1,18,-1
 196 0 l 1,19,-1
 205 93 l 1,20,-1
 449 116 l 1,21,-1
 625 1423 l 1,22,-1
 299 1396 l 1,23,-1
 227 1153 l 1,24,-1
 113 1151 l 1,25,-1
 169 1530 l 1,26,-1
 1303 1530 l 1,27,-1
 1258 1150 l 1,28,-1
 1150 1137 l 1,29,-1
 1137 1397 l 1,30,-1
 824 1423 l 1,31,-1
 647 116 l 1,32,-1
 895 93 l 1,33,-1
 888 0 l 1,34,-1
 588 0 l 1,0,1
EndSplineSet
Substitution2: "'locl' Localized Forms lookup 7 subtable" uni021A
Substitution2: "'aalt' Access All Alternates in Latin lookup 0 subtable" uni021A
EndChar

StartChar: uni0163
Encoding: 355 355 315
Width: 735
GlyphClass: 2
Flags: W
LayerCount: 2
Fore
SplineSet
378 -16 m 1,0,1
 388 -58 388 -58 388 -103 c 128,-1,2
 388 -148 388 -148 381.5 -208.5 c 128,-1,3
 375 -269 375 -269 353 -323.5 c 128,-1,4
 331 -378 331 -378 296 -409 c 0,5,6
 235 -464 235 -464 116 -464 c 0,7,8
 15 -464 15 -464 -22 -436 c 1,9,-1
 13 -305 l 1,10,11
 39 -319 39 -319 77 -319 c 128,-1,12
 115 -319 115 -319 143 -308.5 c 128,-1,13
 171 -298 171 -298 194 -274 c 0,14,15
 257 -208 257 -208 257 -56 c 0,16,17
 257 -30 257 -30 255 -11 c 1,18,19
 205 4 205 4 185 34 c 0,20,21
 150 86 150 86 150 160.5 c 128,-1,22
 150 235 150 235 251 1007 c 1,23,-1
 131 1007 l 1,24,-1
 151 1094 l 1,25,-1
 274 1141 l 1,26,27
 315 1189 315 1189 351 1285.5 c 128,-1,28
 387 1382 387 1382 400 1416 c 1,29,-1
 504 1416 l 1,30,-1
 468 1146 l 1,31,-1
 730 1146 l 1,32,-1
 710 1007 l 1,33,-1
 451 1007 l 1,34,35
 431 853 431 853 410 698.5 c 128,-1,36
 389 544 389 544 376 438 c 0,37,38
 353 263 353 263 353 223.5 c 128,-1,39
 353 184 353 184 356.5 166 c 128,-1,40
 360 148 360 148 369 138 c 0,41,42
 408 92 408 92 537 142 c 0,43,44
 597 166 597 166 629 190 c 1,45,-1
 647 102 l 1,46,47
 600 40 600 40 458 0 c 0,48,49
 417 -11 417 -11 378 -16 c 1,0,1
EndSplineSet
Substitution2: "'locl' Localized Forms lookup 7 subtable" uni021B
Substitution2: "'aalt' Access All Alternates in Latin lookup 0 subtable" uni021B
EndChar

StartChar: Tbar
Encoding: 358 358 318
Width: 1225
GlyphClass: 2
Flags: W
LayerCount: 2
Fore
SplineSet
205 93 m 1,0,-1
 449 116 l 1,1,-1
 530 722 l 1,2,-1
 279 722 l 1,3,-1
 295 852 l 1,4,-1
 548 852 l 1,5,-1
 625 1423 l 1,6,-1
 299 1396 l 1,7,-1
 227 1153 l 1,8,-1
 113 1151 l 1,9,-1
 169 1530 l 1,10,-1
 1303 1530 l 1,11,-1
 1258 1150 l 1,12,-1
 1150 1137 l 1,13,-1
 1137 1397 l 1,14,-1
 824 1423 l 1,15,-1
 746 852 l 1,16,-1
 1034 852 l 1,17,-1
 1018 722 l 1,18,-1
 729 722 l 1,19,-1
 647 116 l 1,20,-1
 895 93 l 1,21,-1
 888 0 l 1,22,-1
 196 0 l 1,23,-1
 205 93 l 1,0,-1
EndSplineSet
EndChar

StartChar: tbar
Encoding: 359 359 319
Width: 735
GlyphClass: 2
Flags: W
LayerCount: 2
Fore
SplineSet
399 621 m 1,0,1
 353 282 353 282 353 233 c 128,-1,2
 353 184 353 184 356.5 166 c 128,-1,3
 360 148 360 148 369 138 c 0,4,5
 408 92 408 92 537 142 c 0,6,7
 597 166 597 166 629 190 c 1,8,-1
 647 102 l 1,9,10
 587 29 587 29 422 -9 c 0,11,12
 375 -20 375 -20 335 -20 c 128,-1,13
 295 -20 295 -20 262 -12.5 c 128,-1,14
 229 -5 229 -5 204 16 c 0,15,16
 150 60 150 60 150 169 c 0,17,18
 150 229 150 229 201 621 c 1,19,-1
 79 621 l 1,20,-1
 95 751 l 1,21,-1
 218 751 l 1,22,23
 236 897 236 897 251 1007 c 1,24,-1
 131 1007 l 1,25,-1
 151 1094 l 1,26,-1
 274 1141 l 1,27,28
 315 1189 315 1189 351 1285.5 c 128,-1,29
 387 1382 387 1382 400 1416 c 1,30,-1
 504 1416 l 1,31,-1
 468 1146 l 1,32,-1
 730 1146 l 1,33,-1
 710 1007 l 1,34,-1
 451 1007 l 1,35,36
 435 879 435 879 417 751 c 1,37,-1
 677 751 l 1,38,-1
 661 621 l 1,39,-1
 399 621 l 1,0,1
EndSplineSet
EndChar

StartChar: Uogonek
Encoding: 370 370 330
Width: 1379
GlyphClass: 2
Flags: W
LayerCount: 2
Fore
SplineSet
622 -19 m 1,0,-1
 597 -20 l 1,1,2
 382 -20 382 -20 265 100 c 0,3,4
 145 224 145 224 145 454 c 0,5,6
 145 518 145 518 153 593 c 1,7,-1
 260 1407 l 1,8,-1
 127 1430 l 1,9,-1
 139 1530 l 1,10,-1
 622 1530 l 1,11,-1
 611 1430 l 1,12,-1
 460 1405 l 1,13,-1
 356 610 l 1,14,15
 345 507 345 507 345 468 c 128,-1,16
 345 429 345 429 345 418 c 0,17,18
 348 255 348 255 421.5 172.5 c 128,-1,19
 495 90 495 90 627 90 c 0,20,21
 966 90 966 90 1027 626 c 1,22,-1
 1130 1405 l 1,23,-1
 997 1429 l 1,24,-1
 1008 1530 l 1,25,-1
 1440 1530 l 1,26,-1
 1429 1429 l 1,27,-1
 1305 1407 l 1,28,-1
 1201 627 l 2,29,30
 1143 190 1143 190 912 54 c 0,31,32
 836 9 836 9 740 -8 c 1,33,34
 617 -136 617 -136 613 -201 c 0,35,36
 610 -265 610 -265 648 -282 c 0,37,38
 657 -287 657 -287 666 -287 c 0,39,40
 721 -287 721 -287 796 -228 c 1,41,-1
 822 -322 l 1,42,43
 711 -416 711 -416 572 -416 c 0,44,45
 497 -416 497 -416 454 -372 c 0,46,47
 417 -333 417 -333 419 -291 c 0,48,49
 423 -202 423 -202 461 -153 c 0,50,51
 517 -80 517 -80 622 -19 c 1,0,-1
EndSplineSet
EndChar

StartChar: uogonek
Encoding: 371 371 331
Width: 1207
GlyphClass: 2
Flags: W
LayerCount: 2
Fore
SplineSet
430 -20 m 0,0,1
 165 -20 165 -20 165 255 c 0,2,3
 165 334 165 334 200 597 c 2,4,-1
 247 946 l 1,5,-1
 149 1005 l 1,6,-1
 167 1094 l 1,7,-1
 409 1146 l 1,8,-1
 457 1122 l 1,9,-1
 391 589 l 1,10,11
 361 364 361 364 361 299 c 128,-1,12
 361 234 361 234 371 201 c 128,-1,13
 381 168 381 168 400 150 c 0,14,15
 433 117 433 117 485.5 117 c 128,-1,16
 538 117 538 117 573.5 127.5 c 128,-1,17
 609 138 609 138 642 156 c 0,18,19
 709 192 709 192 761 246 c 1,20,-1
 881 1155 l 1,21,-1
 1074 1155 l 1,22,-1
 949 189 l 2,23,24
 947 171 947 171 947 157 c 0,25,26
 947 113 947 113 970 113 c 128,-1,27
 993 113 993 113 1037 140 c 1,28,-1
 1068 87 l 1,29,30
 1030 39 1030 39 958 5 c 1,31,32
 834 -94 834 -94 804 -152 c 0,33,34
 791 -177 791 -177 790 -201 c 128,-1,35
 789 -225 789 -225 794 -241.5 c 128,-1,36
 799 -258 799 -258 808 -268 c 0,37,38
 824 -287 824 -287 844 -287 c 0,39,40
 899 -287 899 -287 974 -228 c 1,41,-1
 1000 -322 l 1,42,43
 889 -416 889 -416 750 -416 c 0,44,45
 675 -416 675 -416 632 -372 c 0,46,47
 595 -333 595 -333 597 -291 c 0,48,49
 601 -202 601 -202 630 -165 c 128,-1,50
 659 -128 659 -128 680.5 -107 c 128,-1,51
 702 -86 702 -86 724 -69 c 0,52,53
 759 -42 759 -42 812 -13 c 1,54,55
 741 6 741 6 741 82 c 0,56,57
 741 96 741 96 743 111 c 1,58,59
 612 -20 612 -20 430 -20 c 0,0,1
EndSplineSet
EndChar

StartChar: florin
Encoding: 402 402 343
Width: 1058
GlyphClass: 2
Flags: W
LayerCount: 2
Fore
SplineSet
791 1674 m 0,0,1
 839 1690 839 1690 911.5 1690 c 128,-1,2
 984 1690 984 1690 1018 1673 c 1,3,-1
 1007 1503 l 1,4,5
 993 1511 993 1511 946 1522.5 c 128,-1,6
 899 1534 899 1534 844 1534 c 128,-1,7
 789 1534 789 1534 753.5 1527 c 128,-1,8
 718 1520 718 1520 690 1494 c 0,9,10
 630 1440 630 1440 617 1285 c 1,11,-1
 600 1140 l 1,12,-1
 908 1140 l 1,13,-1
 897 1005 l 1,14,-1
 589 1005 l 1,15,-1
 417 -356 l 1,16,-1
 239 -356 l 1,17,-1
 411 1005 l 1,18,-1
 195 1005 l 1,19,-1
 201 1081 l 1,20,-1
 421 1140 l 1,21,-1
 429 1203 l 1,22,23
 446 1413 446 1413 602 1558 c 0,24,25
 691 1642 691 1642 791 1674 c 0,0,1
EndSplineSet
EndChar

StartChar: dotlessj
Encoding: 567 567 350
Width: 647
GlyphClass: 2
Flags: W
LayerCount: 2
Fore
SplineSet
-174 -400 m 1,0,1
 -146 -412 -146 -412 -88.5 -412 c 128,-1,2
 -31 -412 -31 -412 18 -371 c 128,-1,3
 67 -330 67 -330 100 -263 c 0,4,5
 150 -161 150 -161 188 65 c 1,6,-1
 284 963 l 1,7,-1
 128 1014 l 1,8,-1
 146 1095 l 1,9,-1
 457 1146 l 1,10,-1
 505 1122 l 1,11,-1
 377 0 l 2,12,13
 348 -248 348 -248 224 -386 c 1,14,15
 107 -518 107 -518 -69 -518 c 0,16,17
 -174 -518 -174 -518 -209 -481 c 1,18,-1
 -174 -400 l 1,0,1
EndSplineSet
EndChar

StartChar: circumflex
Encoding: 710 710 351
Width: 795
GlyphClass: 2
Flags: W
LayerCount: 2
Fore
SplineSet
50 1276 m 1,0,-1
 367 1650 l 1,1,-1
 545 1650 l 1,2,-1
 745 1276 l 1,3,-1
 671 1218 l 1,4,-1
 430 1482 l 1,5,-1
 107 1219 l 1,6,-1
 50 1276 l 1,0,-1
EndSplineSet
EndChar

StartChar: caron
Encoding: 711 711 352
Width: 794
GlyphClass: 2
Flags: W
LayerCount: 2
Fore
SplineSet
395 1389 m 1,0,1
 627 1588 627 1588 702 1650 c 1,2,-1
 764 1593 l 1,3,-1
 479 1255 l 1,4,-1
 303 1255 l 1,5,-1
 70 1592 l 1,6,-1
 137 1650 l 1,7,-1
 395 1389 l 1,0,1
EndSplineSet
EndChar

StartChar: uni02c9
Encoding: 713 713 353
Width: 643
GlyphClass: 2
Flags: W
LayerCount: 2
Fore
SplineSet
50 1867 m 1,0,-1
 593 1867 l 1,1,-1
 593 1743 l 1,2,-1
 50 1743 l 1,3,-1
 50 1867 l 1,0,-1
EndSplineSet
EndChar

StartChar: breve
Encoding: 728 728 354
Width: 717
GlyphClass: 2
Flags: W
LayerCount: 2
Fore
SplineSet
334 1300 m 0,0,1
 275 1300 275 1300 220 1332 c 0,2,3
 113 1395 113 1395 76 1526 c 1,4,5
 61 1583 61 1583 61 1614 c 128,-1,6
 61 1645 61 1645 61 1651 c 1,7,-1
 165 1651 l 1,8,9
 181 1524 181 1524 263 1470 c 0,10,11
 298 1447 298 1447 353 1447 c 0,12,13
 448 1447 448 1447 510 1526 c 0,14,15
 542 1567 542 1567 575 1651 c 1,16,-1
 677 1651 l 1,17,18
 674 1523 674 1523 578 1414 c 0,19,20
 477 1300 477 1300 334 1300 c 0,0,1
EndSplineSet
EndChar

StartChar: dotaccent
Encoding: 729 729 355
Width: 388
GlyphClass: 2
Flags: W
LayerCount: 2
Fore
SplineSet
178 1388 m 0,0,1
 152 1388 152 1388 130 1398 c 0,2,3
 61 1428 61 1428 61 1503 c 0,4,5
 61 1563 61 1563 110 1608 c 0,6,7
 156 1651 156 1651 195 1651 c 128,-1,8
 234 1651 234 1651 257 1642 c 0,9,10
 327 1613 327 1613 327 1541 c 0,11,12
 327 1480 327 1480 280 1432 c 1,13,14
 235 1388 235 1388 178 1388 c 0,0,1
EndSplineSet
EndChar

StartChar: ring
Encoding: 730 730 356
Width: 722
GlyphClass: 2
Flags: W
LayerCount: 2
Fore
SplineSet
360 1253 m 0,0,1
 293 1253 293 1253 238 1272 c 0,2,3
 90 1324 90 1324 90 1486 c 0,4,5
 90 1505 90 1505 95.5 1550 c 128,-1,6
 101 1595 101 1595 135 1644 c 128,-1,7
 169 1693 169 1693 218 1724 c 1,8,9
 312 1786 312 1786 446.5 1786 c 128,-1,10
 581 1786 581 1786 647 1721.5 c 128,-1,11
 713 1657 713 1657 713 1560 c 0,12,13
 713 1403 713 1403 592 1318 c 0,14,15
 498 1253 498 1253 360 1253 c 0,0,1
319 1355 m 128,-1,17
 349 1340 349 1340 385.5 1339.5 c 128,-1,18
 422 1339 422 1339 454.5 1347.5 c 128,-1,19
 487 1356 487 1356 511 1376 c 0,20,21
 573 1428 573 1428 573 1538 c 0,22,23
 573 1644 573 1644 488 1684 c 0,24,25
 459 1698 459 1698 422 1698 c 128,-1,26
 385 1698 385 1698 352.5 1689 c 128,-1,27
 320 1680 320 1680 295 1660 c 0,28,29
 231 1609 231 1609 231 1505 c 0,30,31
 231 1442 231 1442 260 1406 c 128,-1,16
 289 1370 289 1370 319 1355 c 128,-1,17
EndSplineSet
EndChar

StartChar: ogonek
Encoding: 731 731 357
Width: 487
GlyphClass: 2
Flags: W
LayerCount: 2
Fore
SplineSet
422 -304 m 1,0,1
 327 -388 327 -388 199 -388 c 0,2,3
 131 -388 131 -388 93 -348 c 0,4,5
 62 -316 62 -316 62 -279 c 0,6,7
 62 -217 62 -217 101 -153 c 128,-1,8
 140 -89 140 -89 190.5 -48 c 128,-1,9
 241 -7 241 -7 288 25 c 1,10,-1
 340 59 l 1,11,-1
 360 7 l 1,12,13
 245 -118 245 -118 245 -195.5 c 128,-1,14
 245 -273 245 -273 283 -273 c 0,15,16
 332 -273 332 -273 399 -220 c 1,17,-1
 422 -304 l 1,0,1
EndSplineSet
EndChar

StartChar: tilde
Encoding: 732 732 358
Width: 816
GlyphClass: 2
Flags: W
LayerCount: 2
Fore
SplineSet
50 1481 m 1,0,1
 73 1527 73 1527 143 1592 c 1,2,3
 220 1650 220 1650 297 1650 c 0,4,5
 364 1650 364 1650 420 1601 c 0,6,7
 436 1587 436 1587 458 1567 c 0,8,9
 523 1510 523 1510 553.5 1510 c 128,-1,10
 584 1510 584 1510 605.5 1520.5 c 128,-1,11
 627 1531 627 1531 645 1547 c 0,12,13
 665 1565 665 1565 708 1620 c 1,14,-1
 766 1529 l 1,15,16
 750 1481 750 1481 683 1409 c 1,17,18
 608 1348 608 1348 515 1348 c 0,19,20
 421 1348 421 1348 346 1428 c 1,21,22
 321 1451 321 1451 297 1469.5 c 128,-1,23
 273 1488 273 1488 250.5 1488 c 128,-1,24
 228 1488 228 1488 208.5 1479.5 c 128,-1,25
 189 1471 189 1471 169 1458 c 0,26,27
 127 1429 127 1429 97 1397 c 1,28,-1
 50 1481 l 1,0,1
EndSplineSet
EndChar

StartChar: hungarumlaut
Encoding: 733 733 359
Width: 917
GlyphClass: 2
Flags: W
LayerCount: 2
Fore
SplineSet
475 1296 m 1,0,-1
 722 1712 l 1,1,-1
 867 1594 l 1,2,3
 851 1521 851 1521 725 1385 c 1,4,5
 632 1292 632 1292 540 1252 c 1,6,-1
 475 1296 l 1,0,-1
50 1296 m 1,7,-1
 287 1712 l 1,8,-1
 432 1595 l 1,9,10
 411 1515 411 1515 291 1385 c 1,11,12
 192 1286 192 1286 114 1252 c 1,13,-1
 50 1296 l 1,7,-1
EndSplineSet
EndChar

StartChar: pi
Encoding: 960 960 363
Width: 1621
GlyphClass: 2
Flags: W
LayerCount: 2
Fore
SplineSet
1519 1214 m 1,0,1
 1480 963 1480 963 1185 963 c 2,2,-1
 1168 963 l 1,3,-1
 1078 262 l 2,4,5
 1076 254 1076 254 1076 246 c 2,6,-1
 1076 231 l 2,7,8
 1076 186 1076 186 1093 162 c 128,-1,9
 1110 138 1110 138 1132.5 137 c 128,-1,10
 1155 136 1155 136 1181 147 c 128,-1,11
 1207 158 1207 158 1230 178 c 0,12,13
 1280 220 1280 220 1300 289 c 1,14,-1
 1434 289 l 1,15,16
 1402 169 1402 169 1310 80 c 1,17,18
 1200 -24 1200 -24 1061 -24 c 0,19,20
 934 -24 934 -24 901 88 c 0,21,22
 891 122 891 122 891 153 c 128,-1,23
 891 184 891 184 893 198 c 128,-1,24
 895 212 895 212 897.5 259 c 128,-1,25
 900 306 900 306 910 398 c 0,26,27
 939 646 939 646 998 963 c 1,28,-1
 723 964 l 1,29,-1
 638 430 l 2,30,31
 584 92 584 92 400 8 c 0,32,33
 343 -18 343 -18 277 -28 c 1,34,-1
 160 96 l 1,35,36
 337 145 337 145 400 262 c 0,37,38
 429 315 429 315 440.5 373 c 128,-1,39
 452 431 452 431 465 489 c 2,40,-1
 572 964 l 1,41,-1
 509 964 l 2,42,43
 430 964 430 964 357 887 c 0,44,45
 336 865 336 865 325 841 c 1,46,-1
 199 858 l 1,47,48
 199 954 199 954 288 1030 c 0,49,50
 393 1119 393 1119 561 1119 c 2,51,-1
 1227 1119 l 2,52,53
 1314 1119 1314 1119 1358 1165 c 0,54,55
 1376 1184 1376 1184 1391 1214 c 1,56,-1
 1519 1214 l 1,0,1
EndSplineSet
EndChar

StartChar: endash
Encoding: 8211 8211 386
Width: 1356
GlyphClass: 2
Flags: W
LayerCount: 2
Fore
SplineSet
198 851 m 1,0,-1
 1215 851 l 1,1,-1
 1185 694 l 1,2,-1
 168 694 l 1,3,-1
 198 851 l 1,0,-1
EndSplineSet
EndChar

StartChar: emdash
Encoding: 8212 8212 387
Width: 1849
GlyphClass: 2
Flags: W
LayerCount: 2
Fore
SplineSet
197 851 m 1,0,-1
 1708 851 l 1,1,-1
 1678 694 l 1,2,-1
 168 694 l 1,3,-1
 197 851 l 1,0,-1
EndSplineSet
EndChar

StartChar: quoteleft
Encoding: 8216 8216 388
Width: 682
GlyphClass: 2
Flags: W
LayerCount: 2
Fore
SplineSet
395 937 m 1,0,1
 304 961 304 961 256 1048 c 0,2,3
 217 1119 217 1119 217 1199.5 c 128,-1,4
 217 1280 217 1280 233.5 1339 c 128,-1,5
 250 1398 250 1398 278.5 1448 c 128,-1,6
 307 1498 307 1498 345 1540 c 128,-1,7
 383 1582 383 1582 426 1616 c 0,8,9
 505 1678 505 1678 608 1721 c 1,10,-1
 649 1651 l 1,11,-1
 647 1629 l 1,12,13
 568 1603 568 1603 502 1504 c 256,14,15
 436 1405 436 1405 436 1300 c 0,16,17
 436 1236 436 1236 459 1198 c 0,18,19
 499 1134 499 1134 546 1128 c 1,20,-1
 541 1087 l 1,21,-1
 395 937 l 1,0,1
EndSplineSet
EndChar

StartChar: quotereversed
Encoding: 8219 8219 391
Width: 682
GlyphClass: 2
Flags: W
LayerCount: 2
Fore
SplineSet
465 936 m 1,0,1
 371 981 371 981 309 1075 c 0,2,3
 242 1177 242 1177 242 1298 c 0,4,5
 242 1438 242 1438 328 1556 c 0,6,7
 417 1679 417 1679 556 1720 c 1,8,-1
 644 1570 l 1,9,-1
 633 1529 l 1,10,11
 548 1518 548 1518 488 1418 c 0,12,13
 434 1329 434 1329 434 1234 c 0,14,15
 434 1120 434 1120 496 1057 c 0,16,17
 515 1037 515 1037 539 1028 c 1,18,-1
 533 1006 l 1,19,-1
 465 936 l 1,0,1
EndSplineSet
EndChar

StartChar: dagger
Encoding: 8224 8224 395
Width: 816
GlyphClass: 2
Flags: W
LayerCount: 2
Fore
SplineSet
380 1008 m 1,0,-1
 406 1127 l 1,1,-1
 136 1127 l 1,2,-1
 158 1277 l 1,3,-1
 449 1277 l 1,4,5
 451 1325 451 1325 451 1373 c 128,-1,6
 451 1421 451 1421 454 1469 c 1,7,-1
 475 1646 l 1,8,-1
 665 1646 l 1,9,-1
 635 1469 l 1,10,-1
 574 1277 l 1,11,-1
 856 1277 l 1,12,-1
 835 1127 l 1,13,-1
 575 1127 l 1,14,-1
 569 1008 l 1,15,-1
 398 151 l 1,16,-1
 281 151 l 1,17,-1
 380 1008 l 1,0,-1
EndSplineSet
EndChar

StartChar: daggerdbl
Encoding: 8225 8225 396
Width: 816
GlyphClass: 2
Flags: W
LayerCount: 2
Fore
SplineSet
590 1127 m 1,0,1
 583 1059 583 1059 583 1026 c 128,-1,2
 583 993 583 993 583 981 c 1,3,-1
 521 779 l 1,4,-1
 756 779 l 1,5,-1
 735 629 l 1,6,-1
 521 629 l 1,7,8
 523 576 523 576 514 510 c 1,9,-1
 407 -51 l 1,10,-1
 289 -51 l 1,11,-1
 325 510 l 1,12,-1
 351 629 l 1,13,-1
 136 629 l 1,14,-1
 160 779 l 1,15,-1
 385 779 l 1,16,-1
 384 981 l 1,17,-1
 430 1127 l 1,18,-1
 179 1127 l 1,19,-1
 203 1277 l 1,20,-1
 475 1277 l 1,21,-1
 471 1469 l 1,22,-1
 490 1646 l 1,23,-1
 681 1646 l 1,24,-1
 653 1469 l 1,25,-1
 600 1277 l 1,26,-1
 850 1277 l 1,27,-1
 828 1127 l 1,28,-1
 590 1127 l 1,0,1
EndSplineSet
EndChar

StartChar: bullet
Encoding: 8226 8226 397
Width: 858
GlyphClass: 2
Flags: W
LayerCount: 2
Fore
SplineSet
504.5 530.5 m 128,-1,1
 459 507 459 507 415 507 c 128,-1,2
 371 507 371 507 339 521 c 128,-1,3
 307 535 307 535 284 559 c 0,4,5
 233 611 233 611 233 669.5 c 128,-1,6
 233 728 233 728 253.5 773.5 c 128,-1,7
 274 819 274 819 309 856 c 0,8,9
 388 939 388 939 484 939 c 0,10,11
 559 939 559 939 610 890 c 0,12,13
 660 841 660 841 660 781.5 c 128,-1,14
 660 722 660 722 639.5 675.5 c 128,-1,15
 619 629 619 629 584.5 591.5 c 128,-1,0
 550 554 550 554 504.5 530.5 c 128,-1,1
EndSplineSet
EndChar

StartChar: ellipsis
Encoding: 8230 8230 398
Width: 1578
GlyphClass: 2
Flags: W
LayerCount: 2
Fore
SplineSet
1142 50.5 m 128,-1,1
 1135 74 1135 74 1139 104 c 128,-1,2
 1143 134 1143 134 1157.5 161 c 128,-1,3
 1172 188 1172 188 1194 208 c 0,4,5
 1242 250 1242 250 1287.5 250 c 128,-1,6
 1333 250 1333 250 1358 240 c 0,7,8
 1418 215 1418 215 1418 143 c 0,9,10
 1418 68 1418 68 1358 18 c 0,11,12
 1310 -22 1310 -22 1266 -22 c 128,-1,13
 1222 -22 1222 -22 1200.5 -13.5 c 128,-1,14
 1179 -5 1179 -5 1164 11 c 128,-1,0
 1149 27 1149 27 1142 50.5 c 128,-1,1
616 50.5 m 128,-1,16
 609 74 609 74 613 104 c 128,-1,17
 617 134 617 134 631.5 161 c 128,-1,18
 646 188 646 188 668 208 c 0,19,20
 716 250 716 250 761.5 250 c 128,-1,21
 807 250 807 250 832 240 c 0,22,23
 892 215 892 215 892 143 c 0,24,25
 892 68 892 68 832 18 c 0,26,27
 784 -22 784 -22 740 -22 c 128,-1,28
 696 -22 696 -22 674.5 -13.5 c 128,-1,29
 653 -5 653 -5 638 11 c 128,-1,15
 623 27 623 27 616 50.5 c 128,-1,16
112 11 m 128,-1,31
 97 27 97 27 91.5 46 c 128,-1,32
 86 65 86 65 86 94.5 c 128,-1,33
 86 124 86 124 103 156 c 128,-1,34
 120 188 120 188 142 208 c 0,35,36
 190 250 190 250 235.5 250 c 128,-1,37
 281 250 281 250 306 240 c 0,38,39
 366 215 366 215 366 143 c 0,40,41
 366 68 366 68 306 18 c 0,42,43
 258 -22 258 -22 214 -22 c 128,-1,44
 170 -22 170 -22 148.5 -13.5 c 128,-1,30
 127 -5 127 -5 112 11 c 128,-1,31
EndSplineSet
EndChar

StartChar: perthousand
Encoding: 8240 8240 399
Width: 2708
GlyphClass: 3
Flags: W
LayerCount: 2
Fore
SplineSet
1824 380 m 0,0,1
 1824 453 1824 453 1855 529.5 c 128,-1,2
 1886 606 1886 606 1941 666 c 0,3,4
 2063 799 2063 799 2237 799 c 0,5,6
 2514 799 2514 799 2514 504 c 0,7,8
 2514 331 2514 331 2402 202 c 0,9,10
 2283 64 2283 64 2102 64 c 0,11,12
 1968 64 1968 64 1894 153 c 0,13,14
 1824 237 1824 237 1824 380 c 0,0,1
2334 496 m 0,15,16
 2334 697 2334 697 2209 697 c 0,17,18
 2106 697 2106 697 2045 584 c 0,19,20
 1995 490 1995 490 1995 376 c 0,21,22
 1995 226 1995 226 2070 182 c 0,23,24
 2096 167 2096 167 2141.5 167 c 128,-1,25
 2187 167 2187 167 2225.5 201 c 128,-1,26
 2264 235 2264 235 2288 286 c 0,27,28
 2334 382 2334 382 2334 496 c 0,15,16
1342 1530 m 1,29,-1
 1501 1530 l 1,30,-1
 554 0 l 1,31,-1
 395 0 l 1,32,-1
 1342 1530 l 1,29,-1
648.5 783 m 128,-1,34
 572 745 572 745 490.5 745 c 128,-1,35
 409 745 409 745 357 768.5 c 128,-1,36
 305 792 305 792 270 834 c 0,37,38
 200 918 200 918 200 1055 c 0,39,40
 200 1219 200 1219 317 1347 c 0,41,42
 439 1480 439 1480 613 1480 c 0,43,44
 890 1480 890 1480 890 1185 c 0,45,46
 890 1012 890 1012 778 883 c 0,47,33
 725 821 725 821 648.5 783 c 128,-1,34
710 1177 m 0,48,49
 710 1378 710 1378 585 1378 c 0,50,51
 482 1378 482 1378 421 1264 c 0,52,53
 371 1171 371 1171 371 1057 c 0,54,55
 371 907 371 907 446 863 c 0,56,57
 472 848 472 848 517.5 848 c 128,-1,58
 563 848 563 848 601.5 882 c 128,-1,59
 640 916 640 916 664 966 c 0,60,61
 710 1063 710 1063 710 1177 c 0,48,49
1036 380 m 0,62,63
 1036 453 1036 453 1067 529.5 c 128,-1,64
 1098 606 1098 606 1153 666 c 0,65,66
 1275 799 1275 799 1449 799 c 0,67,68
 1726 799 1726 799 1726 504 c 0,69,70
 1726 331 1726 331 1614 202 c 0,71,72
 1495 64 1495 64 1314 64 c 0,73,74
 1180 64 1180 64 1106 153 c 0,75,76
 1036 237 1036 237 1036 380 c 0,62,63
1546 496 m 0,77,78
 1546 697 1546 697 1421 697 c 0,79,80
 1318 697 1318 697 1257 584 c 0,81,82
 1207 490 1207 490 1207 376 c 0,83,84
 1207 226 1207 226 1282 182 c 0,85,86
 1308 167 1308 167 1353.5 167 c 128,-1,87
 1399 167 1399 167 1437.5 201 c 128,-1,88
 1476 235 1476 235 1500 286 c 0,89,90
 1546 382 1546 382 1546 496 c 0,77,78
EndSplineSet
Ligature2: "'frac' Diagonal Fractions in Latin lookup 10 subtable" zero slash zero zero
EndChar

StartChar: minute
Encoding: 8242 8242 400
Width: 623
GlyphClass: 2
Flags: W
LayerCount: 2
Fore
SplineSet
384 1782 m 1,0,-1
 589 1782 l 1,1,-1
 433 1190 l 1,2,-1
 295 1190 l 1,3,-1
 384 1782 l 1,0,-1
EndSplineSet
EndChar

StartChar: guilsinglleft
Encoding: 8249 8249 402
Width: 1190
GlyphClass: 2
Flags: W
LayerCount: 2
Fore
SplineSet
264 690 m 1,0,-1
 956 1086 l 1,1,-1
 994 971 l 1,2,-1
 484 615 l 1,3,-1
 898 264 l 1,4,-1
 828 152 l 1,5,-1
 242 530 l 1,6,-1
 264 690 l 1,0,-1
EndSplineSet
EndChar

StartChar: fraction
Encoding: 8260 8260 405
Width: 1026
GlyphClass: 2
Flags: W
LayerCount: 2
Fore
SplineSet
773 1530 m 1,0,-1
 932 1530 l 1,1,-1
 251 0 l 1,2,-1
 92 0 l 1,3,-1
 773 1530 l 1,0,-1
EndSplineSet
EndChar

StartChar: Euro
Encoding: 8364 8364 406
Width: 1388
GlyphClass: 2
Flags: W
LayerCount: 2
Fore
SplineSet
224 695 m 1,0,1
 224 780 224 780 248 894 c 1,2,-1
 93 894 l 1,3,-1
 107 1024 l 1,4,-1
 284 1024 l 1,5,6
 366 1273 366 1273 544 1412 c 0,7,8
 716 1546 716 1546 929 1546 c 0,9,10
 1071 1546 1071 1546 1243 1492 c 0,11,12
 1261 1487 1261 1487 1281.5 1481 c 128,-1,13
 1302 1475 1302 1475 1315 1472 c 1,14,-1
 1262 1254 l 1,15,-1
 1154 1254 l 1,16,-1
 1129 1340 l 1,17,-1
 1132 1339 l 1,18,19
 1094 1396 1094 1396 974 1420 c 0,20,21
 931 1428 931 1428 870 1428 c 128,-1,22
 809 1428 809 1428 747.5 1402.5 c 128,-1,23
 686 1377 686 1377 634 1326 c 0,24,25
 523 1219 523 1219 471 1024 c 1,26,-1
 1045 1024 l 1,27,-1
 1031 894 l 1,28,-1
 444 894 l 1,29,30
 431 822 431 822 426 695 c 1,31,-1
 978 695 l 1,32,-1
 965 564 l 1,33,-1
 425 564 l 1,34,35
 435 228 435 228 592 134 c 0,36,37
 646 101 646 101 703.5 101 c 128,-1,38
 761 101 761 101 803.5 107 c 128,-1,39
 846 113 846 113 885 126 c 0,40,41
 971 153 971 153 1006 205 c 1,42,-1
 1074 340 l 1,43,-1
 1194 339 l 1,44,-1
 1148 70 l 1,45,46
 1105 67 1105 67 1048 51 c 128,-1,47
 991 35 991 35 955.5 24.5 c 128,-1,48
 920 14 920 14 879 5 c 0,49,50
 632 -49 632 -49 490 34 c 0,51,52
 255 172 255 172 226 564 c 1,53,-1
 26 564 l 1,54,-1
 40 695 l 1,55,-1
 224 695 l 1,0,1
EndSplineSet
EndChar

StartChar: uni2113
Encoding: 8467 8467 407
Width: 1214
GlyphClass: 2
Flags: W
LayerCount: 2
Fore
SplineSet
335 201 m 1,0,1
 253 129 253 129 162 60 c 1,2,-1
 86 118 l 1,3,4
 204 214 204 214 307 312 c 1,5,6
 293 396 293 396 293 516 c 128,-1,7
 293 636 293 636 313.5 776.5 c 128,-1,8
 334 917 334 917 372.5 1048.5 c 128,-1,9
 411 1180 411 1180 465 1295 c 128,-1,10
 519 1410 519 1410 586 1496 c 0,11,12
 729 1680 729 1680 892 1680 c 0,13,14
 976 1680 976 1680 1025 1616 c 0,15,16
 1072 1555 1072 1555 1072 1429 c 128,-1,17
 1072 1303 1072 1303 1024.5 1152 c 128,-1,18
 977 1001 977 1001 892 854 c 0,19,20
 730 571 730 571 443 299 c 1,21,22
 468 191 468 191 512.5 136.5 c 128,-1,23
 557 82 557 82 599.5 82 c 128,-1,24
 642 82 642 82 681.5 108.5 c 128,-1,25
 721 135 721 135 754 180 c 0,26,27
 826 280 826 280 838 421 c 1,28,-1
 1000 396 l 1,29,30
 943 108 943 108 754 7 c 0,31,32
 687 -29 687 -29 600 -29 c 0,33,34
 413 -29 413 -29 335 201 c 1,0,1
425 432 m 1,35,36
 788 828 788 828 882 1202 c 0,37,38
 913 1323 913 1323 913 1433 c 0,39,40
 913 1466 913 1466 895.5 1491.5 c 128,-1,41
 878 1517 878 1517 840 1517 c 128,-1,42
 802 1517 802 1517 752 1471 c 128,-1,43
 702 1425 702 1425 654.5 1347 c 128,-1,44
 607 1269 607 1269 565 1166.5 c 128,-1,45
 523 1064 523 1064 492 951 c 0,46,47
 423 705 423 705 423 501 c 2,48,-1
 423 466 l 2,49,50
 423 449 423 449 425 432 c 1,35,36
EndSplineSet
EndChar

StartChar: afii61352
Encoding: 8470 8470 408
Width: 2496
GlyphClass: 2
Flags: W
LayerCount: 2
Fore
SplineSet
1575 984 m 128,-1,1
 1575 1157 1575 1157 1632.5 1261.5 c 128,-1,2
 1690 1366 1690 1366 1758 1423 c 0,3,4
 1891 1533 1891 1533 2060 1533 c 0,5,6
 2255 1533 2255 1533 2356 1402 c 0,7,8
 2438 1295 2438 1295 2438 1124 c 256,9,10
 2438 953 2438 953 2380.5 847 c 128,-1,11
 2323 741 2323 741 2254 683 c 0,12,13
 2122 571 2122 571 1954 571 c 0,14,15
 1760 571 1760 571 1658 704 c 0,16,0
 1575 811 1575 811 1575 984 c 128,-1,1
34 85 m 1,17,-1
 180 113 l 1,18,-1
 328 1401 l 1,19,-1
 172 1424 l 1,20,-1
 180 1522 l 1,21,-1
 586 1522 l 1,22,-1
 996 493 l 1,23,-1
 1097 205 l 1,24,-1
 1225 1401 l 1,25,-1
 1068 1424 l 1,26,-1
 1076 1522 l 1,27,-1
 1554 1522 l 1,28,-1
 1546 1424 l 1,29,-1
 1385 1401 l 1,30,-1
 1233 0 l 1,31,-1
 998 0 l 1,32,-1
 602 999 l 1,33,-1
 472 1294 l 1,34,-1
 348 114 l 1,35,-1
 525 85 l 1,36,-1
 519 0 l 1,37,-1
 28 0 l 1,38,-1
 34 85 l 1,17,-1
2044 1430 m 0,39,40
 1806 1430 1806 1430 1776 1069 c 0,41,42
 1772 1029 1772 1029 1772 988.5 c 128,-1,43
 1772 948 1772 948 1780 891 c 0,44,45
 1797 761 1797 761 1878 702 c 0,46,47
 1918 674 1918 674 1969 674 c 0,48,49
 2206 674 2206 674 2236 1037 c 0,50,51
 2240 1077 2240 1077 2240 1117.5 c 128,-1,52
 2240 1158 2240 1158 2232 1215 c 0,53,54
 2215 1346 2215 1346 2134 1402 c 0,55,56
 2095 1430 2095 1430 2044 1430 c 0,39,40
1529 148 m 1,57,-1
 2302 148 l 1,58,-1
 2290 0 l 1,59,-1
 1517 0 l 1,60,-1
 1529 148 l 1,57,-1
EndSplineSet
EndChar

StartChar: trademark
Encoding: 8482 8482 409
Width: 2120
GlyphClass: 2
Flags: W
LayerCount: 2
Fore
SplineSet
907 854 m 1,0,-1
 1014 869 l 1,1,-1
 1126 1460 l 1,2,-1
 1027 1469 l 1,3,-1
 1039 1553 l 1,4,-1
 1377 1553 l 1,5,-1
 1504 995 l 1,6,-1
 1760 1553 l 1,7,-1
 2087 1553 l 1,8,-1
 2075 1469 l 1,9,-1
 1978 1460 l 1,10,-1
 1957 870 l 1,11,-1
 2053 854 l 1,12,-1
 2042 777 l 1,13,-1
 1694 777 l 1,14,-1
 1705 854 l 1,15,-1
 1801 870 l 1,16,-1
 1821 1240 l 1,17,-1
 1840 1463 l 1,18,-1
 1809 1393 l 1,19,-1
 1511 769 l 1,20,-1
 1404 769 l 1,21,-1
 1266 1316 l 1,22,-1
 1231 1466 l 1,23,-1
 1125 869 l 1,24,-1
 1218 854 l 1,25,-1
 1207 777 l 1,26,-1
 896 777 l 1,27,-1
 907 854 l 1,0,-1
266 854 m 1,28,-1
 392 869 l 1,29,-1
 474 1458 l 1,30,-1
 311 1447 l 1,31,-1
 251 1319 l 1,32,-1
 186 1318 l 1,33,-1
 238 1553 l 1,34,-1
 914 1553 l 1,35,-1
 882 1320 l 1,36,-1
 819 1315 l 1,37,-1
 811 1448 l 1,38,-1
 645 1460 l 1,39,-1
 563 870 l 1,40,-1
 693 854 l 1,41,-1
 682 777 l 1,42,-1
 255 777 l 1,43,-1
 266 854 l 1,28,-1
EndSplineSet
EndChar

StartChar: Omega
Encoding: 8486 8486 410
Width: 1659
GlyphClass: 2
Flags: W
LayerCount: 2
Fore
SplineSet
4 359 m 1,0,-1
 104 366 l 1,1,-1
 130 151 l 1,2,-1
 464 151 l 1,3,4
 339 244 339 244 243 440 c 0,5,6
 156 619 156 619 156 795 c 0,7,8
 156 935 156 935 199.5 1048.5 c 128,-1,9
 243 1162 243 1162 298 1238.5 c 128,-1,10
 353 1315 353 1315 424 1372.5 c 128,-1,11
 495 1430 495 1430 576 1468 c 0,12,13
 738 1545 738 1545 903.5 1545 c 128,-1,14
 1069 1545 1069 1545 1188 1502 c 0,15,16
 1433 1415 1433 1415 1510 1172 c 0,17,18
 1536 1090 1536 1090 1536 1017 c 128,-1,19
 1536 944 1536 944 1530 888.5 c 128,-1,20
 1524 833 1524 833 1504 766.5 c 128,-1,21
 1484 700 1484 700 1453.5 632 c 128,-1,22
 1423 564 1423 564 1383.5 497 c 128,-1,23
 1344 430 1344 430 1298 369 c 0,24,25
 1202 239 1202 239 1104 161 c 1,26,-1
 1434 161 l 1,27,-1
 1524 397 l 1,28,-1
 1622 390 l 1,29,-1
 1553 0 l 1,30,-1
 927 0 l 1,31,-1
 907 129 l 1,32,33
 1067 230 1067 230 1182 430 c 0,34,35
 1328 684 1328 684 1328 975 c 0,36,37
 1328 1187 1328 1187 1214 1309 c 0,38,39
 1099 1433 1099 1433 899 1433 c 0,40,41
 552 1433 552 1433 422 1121 c 0,42,43
 360 973 360 973 360 779 c 0,44,45
 360 583 360 583 444 400 c 0,46,47
 532 209 532 209 653 129 c 1,48,-1
 613 0 l 1,49,-1
 -16 0 l 1,50,-1
 4 359 l 1,0,-1
EndSplineSet
EndChar

StartChar: estimated
Encoding: 8494 8494 411
Width: 1372
GlyphClass: 2
Flags: W
LayerCount: 2
Fore
SplineSet
1280 832 m 1,0,1
 1280 683 1280 683 1269 631 c 1,2,-1
 375 631 l 1,3,-1
 375 280 l 1,4,5
 486 101 486 101 760 101 c 0,6,7
 933 101 933 101 1121 195 c 1,8,-1
 1160 82 l 1,9,10
 1065 14 1065 14 850 -10 c 0,11,12
 790 -16 790 -16 738 -16 c 0,13,14
 446 -16 446 -16 280 166 c 0,15,16
 115 347 115 347 115 671 c 0,17,18
 115 976 115 976 271 1158 c 0,19,20
 441 1356 441 1356 753 1356 c 0,21,22
 968 1356 968 1356 1115 1219 c 0,23,24
 1272 1073 1272 1073 1280 832 c 1,0,1
1036 1109 m 1,25,26
 943 1238 943 1238 715.5 1238 c 128,-1,27
 488 1238 488 1238 375 1053 c 1,28,-1
 375 768 l 1,29,-1
 1036 768 l 1,30,-1
 1036 1109 l 1,25,26
EndSplineSet
EndChar

StartChar: partialdiff
Encoding: 8706 8706 412
Width: 1364
GlyphClass: 2
Flags: W
LayerCount: 2
Fore
SplineSet
274 1551 m 1,0,1
 436 1682 436 1682 665 1682 c 0,2,3
 866 1682 866 1682 1000 1560 c 0,4,5
 1167 1408 1167 1408 1204 1122 c 0,6,7
 1215 1042 1215 1042 1215 953.5 c 128,-1,8
 1215 865 1215 865 1204 750.5 c 128,-1,9
 1193 636 1193 636 1165.5 525 c 128,-1,10
 1138 414 1138 414 1091 314.5 c 128,-1,11
 1044 215 1044 215 974 140 c 0,12,13
 819 -24 819 -24 577 -24 c 0,14,15
 403 -24 403 -24 287 116 c 0,16,17
 185 240 185 240 185 403 c 0,18,19
 185 580 185 580 285 736 c 0,20,21
 369 867 369 867 506 946 c 0,22,23
 639 1022 639 1022 778.5 1022 c 128,-1,24
 918 1022 918 1022 1038 933 c 1,25,26
 1038 943 1038 943 1038 953 c 0,27,28
 1038 1560 1038 1560 589 1560 c 0,29,30
 475 1560 475 1560 354 1483 c 1,31,-1
 274 1551 l 1,0,1
1025 732 m 1,32,33
 909 893 909 893 699 893 c 0,34,35
 657 893 657 893 602 869 c 128,-1,36
 547 845 547 845 497 794 c 0,37,38
 369 664 369 664 369 454 c 0,39,40
 369 330 369 330 428 228 c 0,41,42
 500 102 500 102 636 102 c 0,43,44
 913 102 913 102 992 515 c 0,45,46
 1005 580 1005 580 1014 644 c 2,47,-1
 1025 732 l 1,32,33
EndSplineSet
EndChar

StartChar: Delta
Encoding: 8710 8710 413
Width: 1407
GlyphClass: 2
Flags: W
LayerCount: 2
Fore
SplineSet
-33 22 m 1,0,-1
 731 1508 l 1,1,-1
 763 1508 l 1,2,-1
 1332 27 l 1,3,-1
 1315 0 l 1,4,-1
 -21 0 l 1,5,-1
 -33 22 l 1,0,-1
1075 119 m 1,6,-1
 683 1187 l 1,7,-1
 153 119 l 1,8,-1
 1075 119 l 1,6,-1
EndSplineSet
EndChar

StartChar: product
Encoding: 8719 8719 414
Width: 1536
GlyphClass: 2
Flags: W
LayerCount: 2
Fore
SplineSet
320 -57 m 1,0,-1
 320 1402 l 1,1,-1
 156 1424 l 1,2,-1
 156 1522 l 1,3,-1
 1493 1522 l 1,4,-1
 1493 1424 l 1,5,-1
 1329 1402 l 1,6,-1
 1329 -57 l 1,7,-1
 1497 -88 l 1,8,-1
 1497 -172 l 1,9,-1
 963 -172 l 1,10,-1
 963 -88 l 1,11,-1
 1135 -57 l 1,12,-1
 1135 1402 l 1,13,-1
 514 1402 l 1,14,-1
 514 -57 l 1,15,-1
 685 -88 l 1,16,-1
 685 -172 l 1,17,-1
 152 -172 l 1,18,-1
 152 -88 l 1,19,-1
 320 -57 l 1,0,-1
EndSplineSet
EndChar

StartChar: summation
Encoding: 8721 8721 415
Width: 1591
GlyphClass: 2
Flags: W
LayerCount: 2
Fore
SplineSet
775 674 m 1,0,-1
 227 1442 l 1,1,-1
 257 1522 l 1,2,-1
 1326 1522 l 1,3,-1
 1353 1238 l 1,4,-1
 1231 1238 l 1,5,-1
 1171 1400 l 1,6,-1
 456 1417 l 1,7,-1
 986 694 l 1,8,-1
 455 -62 l 1,9,-1
 1168 -43 l 1,10,-1
 1271 163 l 1,11,-1
 1379 139 l 1,12,-1
 1331 -172 l 1,13,-1
 253 -171 l 1,14,-1
 227 -119 l 1,15,-1
 775 674 l 1,0,-1
EndSplineSet
EndChar

StartChar: minus
Encoding: 8722 8722 416
Width: 1001
GlyphClass: 2
Flags: W
LayerCount: 2
Fore
SplineSet
186 851 m 1,0,-1
 860 851 l 1,1,-1
 842 694 l 1,2,-1
 168 694 l 1,3,-1
 186 851 l 1,0,-1
EndSplineSet
EndChar

StartChar: uni2215
Encoding: 8725 8725 417
Width: 854
GlyphClass: 2
Flags: W
LayerCount: 2
Fore
SplineSet
741 1599 m 1,0,-1
 888 1599 l 1,1,-1
 113 -363 l 1,2,-1
 -34 -363 l 1,3,-1
 741 1599 l 1,0,-1
EndSplineSet
EndChar

StartChar: uni2219
Encoding: 8729 8729 418
Width: 655
GlyphClass: 2
Flags: W
LayerCount: 2
Fore
SplineSet
378 584.5 m 128,-1,1
 350 572 350 572 321 572 c 128,-1,2
 292 572 292 572 267.5 582.5 c 128,-1,3
 243 593 243 593 224 612 c 0,4,5
 183 656 183 656 183 704 c 128,-1,6
 183 752 183 752 195 780.5 c 128,-1,7
 207 809 207 809 228 832 c 0,8,9
 273 880 273 880 320 880 c 128,-1,10
 367 880 367 880 392.5 868.5 c 128,-1,11
 418 857 418 857 436 838 c 1,12,13
 471 798 471 798 471 736 c 0,14,15
 471 733 471 733 471 716 c 128,-1,16
 471 699 471 699 459.5 670 c 128,-1,17
 448 641 448 641 427 619 c 128,-1,0
 406 597 406 597 378 584.5 c 128,-1,1
EndSplineSet
EndChar

StartChar: radical
Encoding: 8730 8730 419
Width: 1587
GlyphClass: 2
Flags: W
LayerCount: 2
Fore
SplineSet
276 543 m 1,0,1
 274 542 274 542 139 470 c 1,2,-1
 82 578 l 1,3,-1
 271 709 l 1,4,-1
 457 709 l 1,5,-1
 673 -116 l 1,6,-1
 1460 1917 l 1,7,-1
 1663 1917 l 1,8,-1
 742 -353 l 1,9,-1
 554 -353 l 1,10,-1
 276 543 l 1,0,1
EndSplineSet
EndChar

StartChar: infinity
Encoding: 8734 8734 420
Width: 1878
GlyphClass: 2
Flags: W
LayerCount: 2
Fore
SplineSet
925 496 m 1,0,1
 763 240 763 240 546 240 c 0,2,3
 372 240 372 240 268 350 c 1,4,5
 172 450 172 450 172 597 c 0,6,7
 172 767 172 767 287 880 c 0,8,9
 403 994 403 994 573 994 c 0,10,11
 735 994 735 994 880 831 c 0,12,13
 921 785 921 785 960 737 c 1,14,15
 1071 907 1071 907 1232 971 c 0,16,17
 1291 994 1291 994 1368 994 c 128,-1,18
 1445 994 1445 994 1513.5 964.5 c 128,-1,19
 1582 935 1582 935 1626 884 c 0,20,21
 1712 786 1712 786 1712 637 c 0,22,23
 1712 465 1712 465 1604 354 c 0,24,25
 1494 240 1494 240 1311 240 c 0,26,27
 1149 240 1149 240 1005 402 c 0,28,29
 964 448 964 448 925 496 c 1,0,1
485 380.5 m 128,-1,31
 528 357 528 357 574.5 357 c 128,-1,32
 621 357 621 357 658.5 376 c 128,-1,33
 696 395 696 395 731 426 c 0,34,35
 782 472 782 472 860 579 c 1,36,37
 828 623 828 623 794 674 c 128,-1,38
 760 725 760 725 721 769 c 0,39,40
 630 872 630 872 542 872 c 0,41,42
 449 872 449 872 395 798 c 0,43,44
 348 733 348 733 348 657 c 128,-1,45
 348 581 348 581 364.5 531.5 c 128,-1,46
 381 482 381 482 411.5 443 c 128,-1,30
 442 404 442 404 485 380.5 c 128,-1,31
1026 653 m 1,47,48
 1058 608 1058 608 1095 555 c 128,-1,49
 1132 502 1132 502 1174 457 c 0,50,51
 1272 352 1272 352 1362 352 c 0,52,53
 1455 352 1455 352 1499 429 c 0,54,55
 1536 494 1536 494 1536 572.5 c 128,-1,56
 1536 651 1536 651 1522.5 699 c 128,-1,57
 1509 747 1509 747 1482 784 c 0,58,59
 1423 867 1423 867 1324 867 c 0,60,61
 1192 867 1192 867 1026 653 c 1,47,48
EndSplineSet
EndChar

StartChar: integral
Encoding: 8747 8747 421
Width: 1063
GlyphClass: 2
Flags: W
LayerCount: 2
Fore
SplineSet
168 -280 m 1,0,1
 196 -352 196 -352 281 -386 c 0,2,3
 309 -398 309 -398 358.5 -398 c 128,-1,4
 408 -398 408 -398 450 -378 c 128,-1,5
 492 -358 492 -358 514 -317 c 0,6,7
 553 -247 553 -247 553 -105 c 128,-1,8
 553 37 553 37 536 141 c 128,-1,9
 519 245 519 245 493 350.5 c 128,-1,10
 467 456 467 456 437 561.5 c 128,-1,11
 407 667 407 667 381 772 c 0,12,13
 321 1014 321 1014 321 1152 c 128,-1,14
 321 1290 321 1290 349.5 1383.5 c 128,-1,15
 378 1477 378 1477 432 1548 c 0,16,17
 547 1700 547 1700 734 1700 c 0,18,19
 864 1700 864 1700 948 1630 c 0,20,21
 983 1601 983 1601 1004 1553 c 1,22,-1
 876 1462 l 1,23,24
 871 1499 871 1499 836 1527 c 0,25,26
 768 1580 768 1580 702 1580 c 128,-1,27
 636 1580 636 1580 594.5 1560 c 128,-1,28
 553 1540 553 1540 530 1499 c 0,29,30
 492 1429 492 1429 492 1287 c 128,-1,31
 492 1145 492 1145 509 1041 c 128,-1,32
 526 937 526 937 552 832 c 128,-1,33
 578 727 578 727 608 621.5 c 128,-1,34
 638 516 638 516 664 411 c 0,35,36
 724 169 724 169 724 30.5 c 128,-1,37
 724 -108 724 -108 695.5 -201.5 c 128,-1,38
 667 -295 667 -295 613 -366 c 0,39,40
 496 -518 496 -518 310 -518 c 0,41,42
 181 -518 181 -518 97 -448 c 0,43,44
 62 -419 62 -419 41 -371 c 1,45,-1
 168 -280 l 1,0,1
EndSplineSet
EndChar

StartChar: notequal
Encoding: 8800 8800 423
Width: 1026
GlyphClass: 2
Flags: W
LayerCount: 2
Fore
SplineSet
293 339 m 1,0,-1
 80 339 l 1,1,-1
 98 496 l 1,2,-1
 366 496 l 1,3,-1
 528 848 l 1,4,-1
 150 848 l 1,5,-1
 168 1005 l 1,6,-1
 601 1005 l 1,7,-1
 748 1324 l 1,8,-1
 907 1324 l 1,9,-1
 760 1005 l 1,10,-1
 983 1005 l 1,11,-1
 965 848 l 1,12,-1
 687 848 l 1,13,-1
 525 496 l 1,14,-1
 913 496 l 1,15,-1
 895 339 l 1,16,-1
 452 339 l 1,17,-1
 296 0 l 1,18,-1
 137 0 l 1,19,-1
 293 339 l 1,0,-1
EndSplineSet
EndChar

StartChar: lessequal
Encoding: 8804 8804 424
Width: 1364
GlyphClass: 2
Flags: W
LayerCount: 2
Fore
SplineSet
207 767 m 1,0,-1
 1205 1204 l 1,1,-1
 1184 1021 l 1,2,-1
 454 726 l 1,3,-1
 1115 428 l 1,4,-1
 1094 246 l 1,5,-1
 198 689 l 1,6,-1
 207 767 l 1,0,-1
158 148 m 1,7,-1
 1106 148 l 1,8,-1
 1088 -2 l 1,9,-1
 140 -2 l 1,10,-1
 158 148 l 1,7,-1
EndSplineSet
EndChar

StartChar: greaterequal
Encoding: 8805 8805 425
Width: 1364
GlyphClass: 2
Flags: W
LayerCount: 2
Fore
SplineSet
221 428 m 1,0,-1
 956 726 l 1,1,-1
 299 1021 l 1,2,-1
 323 1204 l 1,3,-1
 1212 767 l 1,4,-1
 1202 689 l 1,5,-1
 197 246 l 1,6,-1
 221 428 l 1,0,-1
161 148 m 1,7,-1
 1109 148 l 1,8,-1
 1089 -2 l 1,9,-1
 141 -2 l 1,10,-1
 161 148 l 1,7,-1
EndSplineSet
EndChar

StartChar: lozenge
Encoding: 9674 9674 426
Width: 1364
GlyphClass: 2
Flags: W
LayerCount: 2
Fore
SplineSet
162 691 m 1,0,-1
 162 745 l 1,1,-1
 588 1436 l 1,2,-1
 775 1436 l 1,3,-1
 1201 745 l 1,4,-1
 1201 691 l 1,5,-1
 775 0 l 1,6,-1
 588 0 l 1,7,-1
 162 691 l 1,0,-1
1013 718 m 1,8,-1
 681 1286 l 1,9,-1
 349 718 l 1,10,-1
 681 150 l 1,11,-1
 1013 718 l 1,8,-1
EndSplineSet
EndChar

StartChar: commaaccent
Encoding: 63171 63171 427
Width: 367
GlyphClass: 2
Flags: W
LayerCount: 2
Fore
SplineSet
155 -51 m 1,0,1
 220 -64 220 -64 258 -132 c 0,2,3
 288 -185 288 -185 288 -249 c 0,4,5
 288 -367 288 -367 196 -468 c 1,6,7
 125 -544 125 -544 56 -560 c 1,8,-1
 16 -520 l 1,9,-1
 19 -494 l 1,10,11
 57 -465 57 -465 74.5 -431 c 128,-1,12
 92 -397 92 -397 95.5 -361 c 128,-1,13
 99 -325 99 -325 94 -306 c 128,-1,14
 89 -287 89 -287 79 -270 c 0,15,16
 56 -231 56 -231 25 -225 c 1,17,-1
 31 -171 l 1,18,-1
 155 -51 l 1,0,1
EndSplineSet
EndChar

StartChar: grave.cap
Encoding: 65537 -1 433
Width: 522
GlyphClass: 2
Flags: W
LayerCount: 2
Fore
SplineSet
390 1613 m 1,0,1
 302 1645 302 1645 226 1694 c 0,2,3
 81 1789 81 1789 50 1862 c 1,4,-1
 183 2000 l 1,5,-1
 446 1658 l 1,6,-1
 390 1613 l 1,0,1
EndSplineSet
EndChar

StartChar: dieresis.cap
Encoding: 65538 -1 434
Width: 806
GlyphClass: 2
Flags: W
LayerCount: 2
Fore
SplineSet
475 1804.5 m 128,-1,1
 475 1844 475 1844 489 1870 c 128,-1,2
 503 1896 503 1896 524 1916 c 0,3,4
 569 1959 569 1959 609 1959 c 128,-1,5
 649 1959 649 1959 672 1950 c 0,6,7
 742 1921 742 1921 742 1848 c 0,8,9
 742 1786 742 1786 695 1740 c 0,10,11
 649 1696 649 1696 608 1696 c 0,12,13
 544 1696 544 1696 509.5 1730.5 c 128,-1,0
 475 1765 475 1765 475 1804.5 c 128,-1,1
66 1770 m 0,14,15
 58 1789 58 1789 58 1800.5 c 128,-1,16
 58 1812 58 1812 58.5 1828 c 128,-1,17
 59 1844 59 1844 72.5 1870 c 128,-1,18
 86 1896 86 1896 106 1916 c 0,19,20
 151 1959 151 1959 190.5 1959 c 128,-1,21
 230 1959 230 1959 253 1950 c 0,22,23
 323 1921 323 1921 323 1848 c 0,24,25
 323 1787 323 1787 275 1740 c 0,26,27
 229 1696 229 1696 188 1696 c 0,28,29
 95 1696 95 1696 66 1770 c 0,14,15
EndSplineSet
EndChar

StartChar: acute.cap
Encoding: 65539 -1 435
Width: 527
GlyphClass: 2
Flags: W
LayerCount: 2
Fore
SplineSet
77 1658 m 1,0,-1
 353 2000 l 1,1,-1
 477 1862 l 1,2,3
 442 1788 442 1788 320 1709 c 0,4,5
 224 1647 224 1647 130 1613 c 1,6,-1
 77 1658 l 1,0,-1
EndSplineSet
EndChar

StartChar: circumflex.cap
Encoding: 65540 -1 436
Width: 794
GlyphClass: 2
Flags: W
LayerCount: 2
Fore
SplineSet
50 1672 m 1,0,-1
 345 2000 l 1,1,-1
 522 2000 l 1,2,-1
 744 1672 l 1,3,-1
 676 1613 l 1,4,-1
 425 1829 l 1,5,-1
 111 1614 l 1,6,-1
 50 1672 l 1,0,-1
EndSplineSet
EndChar

StartChar: caron.cap
Encoding: 65541 -1 437
Width: 792
GlyphClass: 2
Flags: W
LayerCount: 2
Fore
SplineSet
70 1942 m 1,0,-1
 135 2000 l 1,1,-1
 393 1749 l 1,2,-1
 700 2000 l 1,3,-1
 762 1943 l 1,4,-1
 477 1614 l 1,5,-1
 302 1614 l 1,6,-1
 70 1942 l 1,0,-1
EndSplineSet
EndChar

StartChar: breve.cap
Encoding: 65542 -1 438
Width: 715
GlyphClass: 2
Flags: W
LayerCount: 2
Fore
SplineSet
335 1627 m 0,0,1
 265 1627 265 1627 212 1659 c 0,2,3
 109 1722 109 1722 75 1854 c 0,4,5
 61 1910 61 1910 61 1941 c 128,-1,6
 61 1972 61 1972 61 1979 c 1,7,-1
 165 1979 l 1,8,9
 184 1855 184 1855 263 1800 c 0,10,11
 298 1775 298 1775 349.5 1775 c 128,-1,12
 401 1775 401 1775 437.5 1796.5 c 128,-1,13
 474 1818 474 1818 500 1850 c 0,14,15
 538 1895 538 1895 572 1980 c 1,16,-1
 675 1980 l 1,17,18
 673 1853 673 1853 573 1742 c 0,19,20
 469 1627 469 1627 335 1627 c 0,0,1
EndSplineSet
EndChar

StartChar: dotaccent.cap
Encoding: 65543 -1 439
Width: 389
GlyphClass: 2
Flags: W
LayerCount: 2
Fore
SplineSet
130 1700 m 0,0,1
 61 1731 61 1731 61 1805 c 0,2,3
 61 1864 61 1864 110 1911 c 0,4,5
 155 1954 155 1954 194 1954 c 128,-1,6
 233 1954 233 1954 256 1944 c 0,7,8
 328 1916 328 1916 328 1843 c 0,9,10
 328 1782 328 1782 280 1736 c 0,11,12
 234 1691 234 1691 193 1691 c 128,-1,13
 152 1691 152 1691 130 1700 c 0,0,1
EndSplineSet
EndChar

StartChar: ring.cap
Encoding: 65544 -1 440
Width: 722
GlyphClass: 2
Flags: W
LayerCount: 2
Fore
SplineSet
332 1467 m 0,0,1
 265 1467 265 1467 210 1486 c 0,2,3
 60 1539 60 1539 60 1697 c 256,4,5
 60 1855 60 1855 188 1938 c 0,6,7
 283 2000 283 2000 410 2000 c 0,8,9
 551 2000 551 2000 624 1930 c 1,10,11
 685 1870 685 1870 685 1772 c 0,12,13
 685 1618 685 1618 563 1532 c 0,14,15
 470 1467 470 1467 332 1467 c 0,0,1
472 1581 m 0,16,17
 544 1641 544 1641 544 1752 c 0,18,19
 544 1858 544 1858 460 1898 c 0,20,21
 430 1912 430 1912 393 1912 c 128,-1,22
 356 1912 356 1912 323.5 1903 c 128,-1,23
 291 1894 291 1894 266 1874 c 0,24,25
 202 1821 202 1821 202 1719 c 0,26,27
 202 1656 202 1656 244.5 1604.5 c 128,-1,28
 287 1553 287 1553 363 1553 c 128,-1,29
 439 1553 439 1553 472 1581 c 0,16,17
EndSplineSet
EndChar

StartChar: tilde.cap
Encoding: 65545 -1 441
Width: 813
GlyphClass: 2
Flags: W
LayerCount: 2
Fore
SplineSet
50 1801 m 1,0,1
 73 1847 73 1847 143 1912 c 1,2,3
 220 1970 220 1970 297 1970 c 0,4,5
 364 1970 364 1970 420 1921 c 0,6,7
 436 1907 436 1907 458 1887 c 0,8,9
 523 1830 523 1830 553.5 1830 c 128,-1,10
 584 1830 584 1830 605.5 1840.5 c 128,-1,11
 627 1851 627 1851 645 1867 c 0,12,13
 665 1885 665 1885 708 1940 c 1,14,-1
 766 1849 l 1,15,16
 750 1801 750 1801 683 1729 c 1,17,18
 608 1668 608 1668 515 1668 c 0,19,20
 421 1668 421 1668 346 1748 c 1,21,22
 321 1771 321 1771 297 1789.5 c 128,-1,23
 273 1808 273 1808 250.5 1808 c 128,-1,24
 228 1808 228 1808 208.5 1799.5 c 128,-1,25
 189 1791 189 1791 169 1778 c 0,26,27
 127 1749 127 1749 97 1717 c 1,28,-1
 50 1801 l 1,0,1
EndSplineSet
EndChar

StartChar: hungarumlaut.cap
Encoding: 65546 -1 442
Width: 922
GlyphClass: 2
Flags: W
LayerCount: 2
Fore
SplineSet
475 1625 m 1,0,-1
 787 2000 l 1,1,-1
 922 1881 l 1,2,3
 871 1795 871 1795 746 1701 c 0,4,5
 623 1609 623 1609 529 1580 c 1,6,-1
 475 1625 l 1,0,-1
60 1625 m 1,7,-1
 372 2000 l 1,8,-1
 505 1882 l 1,9,10
 471 1802 471 1802 333 1702 c 1,11,12
 210 1611 210 1611 114 1580 c 1,13,-1
 60 1625 l 1,7,-1
EndSplineSet
EndChar

StartChar: caronvertical
Encoding: 65547 -1 443
Width: 315
GlyphClass: 2
Flags: W
LayerCount: 2
Fore
SplineSet
393 1680 m 1,0,1
 426 1645 426 1645 426 1532 c 0,2,3
 426 1309 426 1309 313 1118 c 0,4,5
 288 1075 288 1075 263 1045 c 1,6,-1
 203 1075 l 1,7,-1
 197 1100 l 1,8,9
 265 1386 265 1386 243 1508 c 0,10,11
 232 1568 232 1568 217 1592 c 1,12,-1
 236 1634 l 1,13,-1
 393 1680 l 1,0,1
EndSplineSet
EndChar

StartChar: macron.cap
Encoding: 65548 -1 444
Width: 614
GlyphClass: 2
Flags: W
LayerCount: 2
Fore
SplineSet
54 1878 m 1,0,-1
 564 1878 l 1,1,-1
 559 1729 l 1,2,-1
 50 1729 l 1,3,-1
 54 1878 l 1,0,-1
EndSplineSet
EndChar

